  0
SECTION
  2
HEADER
  9
$ACADVER
  1
AC1021
  9
$ACADMAINTVER
 70
    25
  9
$DWGCODEPAGE
  3
ANSI_936
  9
$LASTSAVEDBY
  1
ProD
  9
$INSBASE
 10
0.0
 20
0.0
 30
0.0
  9
$EXTMIN
 10
52.92551065080965
 20
74.58679984032937
 30
0.0
  9
$EXTMAX
 10
278.4655106508096
 20
147.7269734403294
 30
0.0
  9
$LIMMIN
 10
0.0
 20
0.0
  9
$LIMMAX
 10
420.0
 20
297.0
  9
$ORTHOMODE
 70
     0
  9
$REGENMODE
 70
     1
  9
$FILLMODE
 70
     1
  9
$QTEXTMODE
 70
     0
  9
$MIRRTEXT
 70
     0
  9
$LTSCALE
 40
1.0
  9
$ATTMODE
 70
     1
  9
$TEXTSIZE
 40
2.5
  9
$TRACEWID
 40
1.0
  9
$TEXTSTYLE
  7
Standard
  9
$CLAYER
  8
0
  9
$CELTYPE
  6
ByLayer
  9
$CECOLOR
 62
   256
  9
$CELTSCALE
 40
1.0
  9
$DISPSILH
 70
     0
  9
$DIMSCALE
 40
1.0
  9
$DIMASZ
 40
2.5
  9
$DIMEXO
 40
0.625
  9
$DIMDLI
 40
3.75
  9
$DIMRND
 40
0.0
  9
$DIMDLE
 40
0.0
  9
$DIMEXE
 40
1.25
  9
$DIMTP
 40
0.0
  9
$DIMTM
 40
0.0
  9
$DIMTXT
 40
2.5
  9
$DIMCEN
 40
2.5
  9
$DIMTSZ
 40
0.0
  9
$DIMTOL
 70
     0
  9
$DIMLIM
 70
     0
  9
$DIMTIH
 70
     0
  9
$DIMTOH
 70
     0
  9
$DIMSE1
 70
     0
  9
$DIMSE2
 70
     0
  9
$DIMTAD
 70
     1
  9
$DIMZIN
 70
     8
  9
$DIMBLK
  1

  9
$DIMASO
 70
     1
  9
$DIMSHO
 70
     1
  9
$DIMPOST
  1

  9
$DIMAPOST
  1

  9
$DIMALT
 70
     0
  9
$DIMALTD
 70
     3
  9
$DIMALTF
 40
0.03937007874016
  9
$DIMLFAC
 40
1.0
  9
$DIMTOFL
 70
     1
  9
$DIMTVP
 40
0.0
  9
$DIMTIX
 70
     0
  9
$DIMSOXD
 70
     0
  9
$DIMSAH
 70
     0
  9
$DIMBLK1
  1

  9
$DIMBLK2
  1

  9
$DIMSTYLE
  2
ISO-25
  9
$DIMCLRD
 70
     0
  9
$DIMCLRE
 70
     0
  9
$DIMCLRT
 70
     0
  9
$DIMTFAC
 40
1.0
  9
$DIMGAP
 40
0.625
  9
$DIMJUST
 70
     0
  9
$DIMSD1
 70
     0
  9
$DIMSD2
 70
     0
  9
$DIMTOLJ
 70
     0
  9
$DIMTZIN
 70
     8
  9
$DIMALTZ
 70
     0
  9
$DIMALTTZ
 70
     0
  9
$DIMUPT
 70
     0
  9
$DIMDEC
 70
     2
  9
$DIMTDEC
 70
     2
  9
$DIMALTU
 70
     2
  9
$DIMALTTD
 70
     3
  9
$DIMTXSTY
  7
Standard
  9
$DIMAUNIT
 70
     0
  9
$DIMADEC
 70
     0
  9
$DIMALTRND
 40
0.0
  9
$DIMAZIN
 70
     0
  9
$DIMDSEP
 70
    44
  9
$DIMATFIT
 70
     3
  9
$DIMFRAC
 70
     0
  9
$DIMLDRBLK
  1

  9
$DIMLUNIT
 70
     2
  9
$DIMLWD
 70
    -2
  9
$DIMLWE
 70
    -2
  9
$DIMTMOVE
 70
     0
  9
$DIMFXL
 40
1.0
  9
$DIMFXLON
 70
     0
  9
$DIMJOGANG
 40
0.7853981633974483
  9
$DIMTFILL
 70
     0
  9
$DIMTFILLCLR
 70
     0
  9
$DIMARCSYM
 70
     0
  9
$DIMLTYPE
  6

  9
$DIMLTEX1
  6

  9
$DIMLTEX2
  6

  9
$LUNITS
 70
     2
  9
$LUPREC
 70
     4
  9
$SKETCHINC
 40
1.0
  9
$FILLETRAD
 40
0.0
  9
$AUNITS
 70
     0
  9
$AUPREC
 70
     0
  9
$MENU
  1
.
  9
$ELEVATION
 40
0.0
  9
$PELEVATION
 40
0.0
  9
$THICKNESS
 40
0.0
  9
$LIMCHECK
 70
     0
  9
$CHAMFERA
 40
0.0
  9
$CHAMFERB
 40
0.0
  9
$CHAMFERC
 40
0.0
  9
$CHAMFERD
 40
0.0
  9
$SKPOLY
 70
     0
  9
$TDCREATE
 40
2458545.908723797
  9
$TDUCREATE
 40
2458545.575390463
  9
$TDUPDATE
 40
2458545.909102130
  9
$TDUUPDATE
 40
2458545.575768797
  9
$TDINDWG
 40
0.0003791435
  9
$TDUSRTIMER
 40
0.0003790625
  9
$USRTIMER
 70
     1
  9
$ANGBASE
 50
0.0
  9
$ANGDIR
 70
     0
  9
$PDMODE
 70
     0
  9
$PDSIZE
 40
0.0
  9
$PLINEWID
 40
0.0
  9
$SPLFRAME
 70
     0
  9
$SPLINETYPE
 70
     6
  9
$SPLINESEGS
 70
     8
  9
$HANDSEED
  5
7BA
  9
$SURFTAB1
 70
     6
  9
$SURFTAB2
 70
     6
  9
$SURFTYPE
 70
     6
  9
$SURFU
 70
     6
  9
$SURFV
 70
     6
  9
$UCSBASE
  2

  9
$UCSNAME
  2

  9
$UCSORG
 10
0.0
 20
0.0
 30
0.0
  9
$UCSXDIR
 10
1.0
 20
0.0
 30
0.0
  9
$UCSYDIR
 10
0.0
 20
1.0
 30
0.0
  9
$UCSORTHOREF
  2

  9
$UCSORTHOVIEW
 70
     0
  9
$UCSORGTOP
 10
0.0
 20
0.0
 30
0.0
  9
$UCSORGBOTTOM
 10
0.0
 20
0.0
 30
0.0
  9
$UCSORGLEFT
 10
0.0
 20
0.0
 30
0.0
  9
$UCSORGRIGHT
 10
0.0
 20
0.0
 30
0.0
  9
$UCSORGFRONT
 10
0.0
 20
0.0
 30
0.0
  9
$UCSORGBACK
 10
0.0
 20
0.0
 30
0.0
  9
$PUCSBASE
  2

  9
$PUCSNAME
  2

  9
$PUCSORG
 10
0.0
 20
0.0
 30
0.0
  9
$PUCSXDIR
 10
1.0
 20
0.0
 30
0.0
  9
$PUCSYDIR
 10
0.0
 20
1.0
 30
0.0
  9
$PUCSORTHOREF
  2

  9
$PUCSORTHOVIEW
 70
     0
  9
$PUCSORGTOP
 10
0.0
 20
0.0
 30
0.0
  9
$PUCSORGBOTTOM
 10
0.0
 20
0.0
 30
0.0
  9
$PUCSORGLEFT
 10
0.0
 20
0.0
 30
0.0
  9
$PUCSORGRIGHT
 10
0.0
 20
0.0
 30
0.0
  9
$PUCSORGFRONT
 10
0.0
 20
0.0
 30
0.0
  9
$PUCSORGBACK
 10
0.0
 20
0.0
 30
0.0
  9
$USERI1
 70
     0
  9
$USERI2
 70
     0
  9
$USERI3
 70
     0
  9
$USERI4
 70
     0
  9
$USERI5
 70
     0
  9
$USERR1
 40
0.0
  9
$USERR2
 40
0.0
  9
$USERR3
 40
0.0
  9
$USERR4
 40
0.0
  9
$USERR5
 40
0.0
  9
$WORLDVIEW
 70
     1
  9
$SHADEDGE
 70
     3
  9
$SHADEDIF
 70
    70
  9
$TILEMODE
 70
     1
  9
$MAXACTVP
 70
    64
  9
$PINSBASE
 10
0.0
 20
0.0
 30
0.0
  9
$PLIMCHECK
 70
     0
  9
$PEXTMIN
 10
0.0
 20
0.0
 30
0.0
  9
$PEXTMAX
 10
0.0
 20
0.0
 30
0.0
  9
$PLIMMIN
 10
0.0
 20
0.0
  9
$PLIMMAX
 10
12.0
 20
9.0
  9
$UNITMODE
 70
     0
  9
$VISRETAIN
 70
     1
  9
$PLINEGEN
 70
     0
  9
$PSLTSCALE
 70
     1
  9
$TREEDEPTH
 70
  3020
  9
$CMLSTYLE
  2
Standard
  9
$CMLJUST
 70
     0
  9
$CMLSCALE
 40
20.0
  9
$PROXYGRAPHICS
 70
     1
  9
$MEASUREMENT
 70
     1
  9
$CELWEIGHT
370
    -1
  9
$ENDCAPS
280
     0
  9
$JOINSTYLE
280
     0
  9
$LWDISPLAY
290
     0
  9
$INSUNITS
 70
     4
  9
$HYPERLINKBASE
  1

  9
$STYLESHEET
  1

  9
$XEDIT
290
     1
  9
$CEPSNTYPE
380
     0
  9
$PSTYLEMODE
290
     1
  9
$FINGERPRINTGUID
  2
{48FF95C8-AD3F-4884-B7AB-EA81F03F0B9C}
  9
$VERSIONGUID
  2
{1A8256D9-DCCD-42A4-8E84-96ABAE0F0470}
  9
$EXTNAMES
290
     1
  9
$PSVPSCALE
 40
0.0
  9
$OLESTARTUP
290
     0
  9
$SORTENTS
280
   127
  9
$INDEXCTL
280
     0
  9
$HIDETEXT
280
     1
  9
$XCLIPFRAME
290
     0
  9
$HALOGAP
280
     0
  9
$OBSCOLOR
 70
   257
  9
$OBSLTYPE
280
     0
  9
$INTERSECTIONDISPLAY
280
     0
  9
$INTERSECTIONCOLOR
 70
   257
  9
$DIMASSOC
280
     2
  9
$PROJECTNAME
  1

  9
$CAMERADISPLAY
290
     0
  9
$LENSLENGTH
 40
50.0
  9
$CAMERAHEIGHT
 40
0.0
  9
$STEPSPERSEC
 40
2.0
  9
$STEPSIZE
 40
6.0
  9
$3DDWFPREC
 40
2.0
  9
$PSOLWIDTH
 40
5.0
  9
$PSOLHEIGHT
 40
80.0
  9
$LOFTANG1
 40
1.570796326794896
  9
$LOFTANG2
 40
1.570796326794896
  9
$LOFTMAG1
 40
0.0
  9
$LOFTMAG2
 40
0.0
  9
$LOFTPARAM
 70
     7
  9
$LOFTNORMALS
280
     1
  9
$LATITUDE
 40
37.795
  9
$LONGITUDE
 40
-122.394
  9
$NORTHDIRECTION
 40
0.0
  9
$TIMEZONE
 70
 -8000
  9
$LIGHTGLYPHDISPLAY
280
     1
  9
$TILEMODELIGHTSYNCH
280
     1
  9
$CMATERIAL
347
EC
  9
$SOLIDHIST
280
     1
  9
$SHOWHIST
280
     1
  9
$DWFFRAME
280
     2
  9
$DGNFRAME
280
     0
  9
$REALWORLDSCALE
290
     1
  9
$INTERFERECOLOR
 62
     1
  9
$INTERFEREOBJVS
345
F9
  9
$INTERFEREVPVS
346
F6
  9
$CSHADOW
280
     0
  9
$SHADOWPLANELOCATION
 40
0.0
  0
ENDSEC
  0
SECTION
  2
CLASSES
  0
CLASS
  1
ACDBDICTIONARYWDFLT
  2
AcDbDictionaryWithDefault
  3
ObjectDBX Classes
 90
        0
 91
        1
280
     0
281
     0
  0
CLASS
  1
DICTIONARYVAR
  2
AcDbDictionaryVar
  3
ObjectDBX Classes
 90
        0
 91
        5
280
     0
281
     0
  0
CLASS
  1
TABLESTYLE
  2
AcDbTableStyle
  3
ObjectDBX Classes
 90
     4095
 91
        1
280
     0
281
     0
  0
CLASS
  1
MATERIAL
  2
AcDbMaterial
  3
ObjectDBX Classes
 90
     1153
 91
        3
280
     0
281
     0
  0
CLASS
  1
VISUALSTYLE
  2
AcDbVisualStyle
  3
ObjectDBX Classes
 90
     4095
 91
       16
280
     0
281
     0
  0
CLASS
  1
SCALE
  2
AcDbScale
  3
ObjectDBX Classes
 90
     1153
 91
       33
280
     0
281
     0
  0
CLASS
  1
MLEADERSTYLE
  2
AcDbMLeaderStyle
  3
ACDB_MLEADERSTYLE_CLASS
 90
     4095
 91
        2
280
     0
281
     0
  0
CLASS
  1
CELLSTYLEMAP
  2
AcDbCellStyleMap
  3
ObjectDBX Classes
 90
     1152
 91
        2
280
     0
281
     0
  0
CLASS
  1
SORTENTSTABLE
  2
AcDbSortentsTable
  3
ObjectDBX Classes
 90
        0
 91
        1
280
     0
281
     0
  0
ENDSEC
  0
SECTION
  2
TABLES
  0
TABLE
  2
VPORT
  5
8
330
0
100
AcDbSymbolTable
 70
     1
  0
VPORT
  5
EA
330
8
100
AcDbSymbolTableRecord
100
AcDbViewportTableRecord
  2
*Active
 70
     0
 10
0.0
 20
0.0
 11
1.0
 21
1.0
 12
214.040051722568
 22
80.32068175013669
 13
0.0
 23
0.0
 14
10.0
 24
10.0
 15
10.0
 25
10.0
 16
0.0
 26
0.0
 36
1.0
 17
0.0
 27
0.0
 37
0.0
 40
232.0748586996312
 41
2.210778443113772
 42
50.0
 43
0.0
 44
0.0
 50
0.0
 51
0.0
 71
     0
 72
  1000
 73
     1
 74
     3
 75
     0
 76
     0
 77
     0
 78
     0
281
     0
 65
     1
110
0.0
120
0.0
130
0.0
111
1.0
121
0.0
131
0.0
112
0.0
122
1.0
132
0.0
 79
     0
146
0.0
348
F5
 60
     2
 61
     5
292
     1
282
     1
141
0.0
142
0.0
 63
   250
421
  3355443
  0
ENDTAB
  0
TABLE
  2
LTYPE
  5
5
330
0
100
AcDbSymbolTable
 70
     1
  0
LTYPE
  5
14
330
5
100
AcDbSymbolTableRecord
100
AcDbLinetypeTableRecord
  2
ByBlock
 70
     0
  3

 72
    65
 73
     0
 40
0.0
  0
LTYPE
  5
15
330
5
100
AcDbSymbolTableRecord
100
AcDbLinetypeTableRecord
  2
ByLayer
 70
     0
  3

 72
    65
 73
     0
 40
0.0
  0
LTYPE
  5
16
330
5
100
AcDbSymbolTableRecord
100
AcDbLinetypeTableRecord
  2
Continuous
 70
     0
  3
Solid line
 72
    65
 73
     0
 40
0.0
  0
ENDTAB
  0
TABLE
  2
LAYER
  5
2
102
{ACAD_XDICTIONARY
360
1B3
102
}
330
0
100
AcDbSymbolTable
 70
     2
  0
LAYER
  5
10
102
{ACAD_XDICTIONARY
360
13C
102
}
330
2
100
AcDbSymbolTableRecord
100
AcDbLayerTableRecord
  2
0
 70
     0
 62
     7
  6
Continuous
370
    -3
390
F
347
EE
  0
LAYER
  5
1B1
102
{ACAD_XDICTIONARY
360
1B2
102
}
330
2
100
AcDbSymbolTableRecord
100
AcDbLayerTableRecord
  2
BLACK
 70
     0
 62
     7
  6
Continuous
370
    -3
390
F
347
EE
  0
ENDTAB
  0
TABLE
  2
STYLE
  5
3
330
0
100
AcDbSymbolTable
 70
     2
  0
STYLE
  5
11
330
3
100
AcDbSymbolTableRecord
100
AcDbTextStyleTableRecord
  2
Standard
 70
     0
 40
0.0
 41
1.0
 50
0.0
 71
     0
 42
2.5
  3
txt
  4
gbcbig.shx
  0
STYLE
  5
132
330
3
100
AcDbSymbolTableRecord
100
AcDbTextStyleTableRecord
  2
Annotative
 70
     0
 40
0.0
 41
1.0
 50
0.0
 71
     0
 42
2.5
  3
txt.shx
  4
gbcbig.shx
1001
AcadAnnotative
1000
AnnotativeData
1002
{
1070
     1
1070
     1
1002
}
  0
ENDTAB
  0
TABLE
  2
VIEW
  5
6
330
0
100
AcDbSymbolTable
 70
     0
  0
ENDTAB
  0
TABLE
  2
UCS
  5
7
330
0
100
AcDbSymbolTable
 70
     0
  0
ENDTAB
  0
TABLE
  2
APPID
  5
9
330
0
100
AcDbSymbolTable
 70
     7
  0
APPID
  5
12
330
9
100
AcDbSymbolTableRecord
100
AcDbRegAppTableRecord
  2
ACAD
 70
     0
  0
APPID
  5
9E
330
9
100
AcDbSymbolTableRecord
100
AcDbRegAppTableRecord
  2
ACAD_PSEXT
 70
     0
  0
APPID
  5
133
330
9
100
AcDbSymbolTableRecord
100
AcDbRegAppTableRecord
  2
AcadAnnoPO
 70
     0
  0
APPID
  5
134
330
9
100
AcDbSymbolTableRecord
100
AcDbRegAppTableRecord
  2
AcadAnnotative
 70
     0
  0
APPID
  5
135
330
9
100
AcDbSymbolTableRecord
100
AcDbRegAppTableRecord
  2
ACAD_DSTYLE_DIMJAG
 70
     0
  0
APPID
  5
136
330
9
100
AcDbSymbolTableRecord
100
AcDbRegAppTableRecord
  2
ACAD_DSTYLE_DIMTALN
 70
     0
  0
APPID
  5
165
330
9
100
AcDbSymbolTableRecord
100
AcDbRegAppTableRecord
  2
ACAD_MLEADERVER
 70
     0
  0
ENDTAB
  0
TABLE
  2
DIMSTYLE
  5
A
330
0
100
AcDbSymbolTable
 70
     2
100
AcDbDimStyleTable
 71
     2
340
27
340
137
  0
DIMSTYLE
105
27
330
A
100
AcDbSymbolTableRecord
100
AcDbDimStyleTableRecord
  2
ISO-25
 70
     0
 41
2.5
 42
0.625
 43
3.75
 44
1.25
 73
     0
 74
     0
 77
     1
 78
     8
140
2.5
141
2.5
143
0.03937007874016
147
0.625
171
     3
172
     1
271
     2
272
     2
274
     3
278
    44
283
     0
284
     8
340
11
  0
DIMSTYLE
105
137
330
A
100
AcDbSymbolTableRecord
100
AcDbDimStyleTableRecord
  2
Annotative
 70
     0
 40
0.0
 41
2.5
 42
0.625
 43
3.75
 44
1.25
 73
     0
 74
     0
 77
     1
 78
     8
140
2.5
141
2.5
143
0.03937007874016
147
0.625
171
     3
172
     1
271
     2
272
     2
274
     3
278
    44
283
     0
284
     8
340
11
1001
AcadAnnotative
1000
AnnotativeData
1002
{
1070
     1
1070
     1
1002
}
1001
ACAD_DSTYLE_DIMJAG
1070
   388
1040
1.5
1001
ACAD_DSTYLE_DIMTALN
1070
   392
1070
     0
  0
ENDTAB
  0
TABLE
  2
BLOCK_RECORD
  5
1
330
0
100
AcDbSymbolTable
 70
     2
  0
BLOCK_RECORD
  5
1F
330
1
100
AcDbSymbolTableRecord
100
AcDbBlockTableRecord
  2
*Model_Space
340
22
 70
     0
280
     1
281
     0
  0
BLOCK_RECORD
  5
D2
330
1
100
AcDbSymbolTableRecord
100
AcDbBlockTableRecord
  2
*Paper_Space
340
D3
 70
     0
280
     1
281
     0
  0
BLOCK_RECORD
  5
D6
330
1
100
AcDbSymbolTableRecord
100
AcDbBlockTableRecord
  2
*Paper_Space0
340
D7
 70
     0
280
     1
281
     0
  0
ENDTAB
  0
ENDSEC
  0
SECTION
  2
BLOCKS
  0
BLOCK
  5
20
330
1F
100
AcDbEntity
  8
0
100
AcDbBlockBegin
  2
*Model_Space
 70
     0
 10
0.0
 20
0.0
 30
0.0
  3
*Model_Space
  1

  0
ENDBLK
  5
21
330
1F
100
AcDbEntity
  8
0
100
AcDbBlockEnd
  0
BLOCK
  5
D4
330
D2
100
AcDbEntity
 67
     1
  8
0
100
AcDbBlockBegin
  2
*Paper_Space
 70
     0
 10
0.0
 20
0.0
 30
0.0
  3
*Paper_Space
  1

  0
ENDBLK
  5
D5
330
D2
100
AcDbEntity
 67
     1
  8
0
100
AcDbBlockEnd
  0
BLOCK
  5
D8
330
D6
100
AcDbEntity
 67
     1
  8
0
100
AcDbBlockBegin
  2
*Paper_Space0
 70
     0
 10
0.0
 20
0.0
 30
0.0
  3
*Paper_Space0
  1

  0
ENDBLK
  5
D9
330
D6
100
AcDbEntity
 67
     1
  8
0
100
AcDbBlockEnd
  0
ENDSEC
  0
SECTION
  2
ENTITIES
  0
LWPOLYLINE
  5
4B9
330
1F
100
AcDbEntity
  8
0
  6
Continuous
 62
     7
100
AcDbPolyline
 90
        8
 70
     1
 43
0.0
 10
278.4655106508096
 20
146.7269734403291
 10
278.4655106508094
 20
75.58679984032938
 42
-0.4142135623730946
 10
277.4655106508094
 20
74.58679984032937
 10
53.92551065080965
 20
74.58679984032937
 42
-0.4142135623730956
 10
52.92551065080965
 20
75.58679984032938
 10
52.92551065080965
 20
146.7269734403294
 42
-0.4142135623730944
 10
53.92551065080965
 20
147.7269734403294
 10
277.4655106508096
 20
147.7269734403291
 42
-0.4142135623730953
  0
LINE
  5
4BA
330
1F
100
AcDbEntity
  8
0
 62
     0
100
AcDbLine
 10
56.30209565080986
 20
89.5815866403293
 30
0.0
 11
70.30158565080956
 21
89.5815866403293
 31
0.0
  0
LINE
  5
4BB
330
1F
100
AcDbEntity
  8
0
 62
     0
100
AcDbLine
 10
70.30158565080956
 20
89.5815866403293
 30
0.0
 11
70.30158565080956
 21
75.58205664032925
 31
0.0
  0
LINE
  5
4BC
330
1F
100
AcDbEntity
  8
0
 62
     0
100
AcDbLine
 10
70.30158565080956
 20
75.58205664032925
 30
0.0
 11
56.3020956508094
 21
75.58205664032925
 31
0.0
  0
LINE
  5
4BD
330
1F
100
AcDbEntity
  8
0
 62
     0
100
AcDbLine
 10
56.3020956508094
 20
75.58205664032925
 30
0.0
 11
56.30209565080986
 21
89.5815866403293
 31
0.0
  0
LINE
  5
4BE
330
1F
100
AcDbEntity
  8
0
 62
     0
100
AcDbLine
 10
77.73338565080985
 20
89.5815866403293
 30
0.0
 11
91.73268565080935
 21
89.5815866403293
 31
0.0
  0
LINE
  5
4BF
330
1F
100
AcDbEntity
  8
0
 62
     0
100
AcDbLine
 10
91.73268565080935
 20
89.5815866403293
 30
0.0
 11
91.73268565080935
 21
75.58205664032925
 31
0.0
  0
LINE
  5
4C0
330
1F
100
AcDbEntity
  8
0
 62
     0
100
AcDbLine
 10
91.73268565080935
 20
75.58205664032925
 30
0.0
 11
77.73338565080985
 21
75.58205664032925
 31
0.0
  0
LINE
  5
4C1
330
1F
100
AcDbEntity
  8
0
 62
     0
100
AcDbLine
 10
77.73338565080985
 20
75.58205664032925
 30
0.0
 11
77.73338565080985
 21
89.5815866403293
 31
0.0
  0
LINE
  5
4C2
330
1F
100
AcDbEntity
  8
0
 62
     0
100
AcDbLine
 10
113.1639856508095
 20
89.5815866403293
 30
0.0
 11
113.1639856508095
 21
75.58205664032925
 31
0.0
  0
LINE
  5
4C3
330
1F
100
AcDbEntity
  8
0
 62
     0
100
AcDbLine
 10
218.2271856508096
 20
89.5815866403293
 30
0.0
 11
219.1402606508104
 21
89.5815866403293
 31
0.0
  0
LINE
  5
4C4
330
1F
100
AcDbEntity
  8
0
 62
     0
100
AcDbLine
 10
226.5402606508082
 20
89.5815866403293
 30
0.0
 11
232.2261856508098
 21
89.5815866403293
 31
0.0
  0
LINE
  5
4C5
330
1F
100
AcDbEntity
  8
0
 62
     0
100
AcDbLine
 10
232.2261856508098
 20
89.5815866403293
 30
0.0
 11
232.2261856508098
 21
75.58205664032925
 31
0.0
  0
LINE
  5
4C6
330
1F
100
AcDbEntity
  8
0
 62
     0
100
AcDbLine
 10
232.2261856508098
 20
75.58205664032925
 30
0.0
 11
218.2271856508096
 21
75.58205664032925
 31
0.0
  0
LINE
  5
4C7
330
1F
100
AcDbEntity
  8
0
 62
     0
100
AcDbLine
 10
218.2271856508096
 20
75.58205664032925
 30
0.0
 11
218.2271856508096
 21
89.5815866403293
 31
0.0
  0
LINE
  5
4C8
330
1F
100
AcDbEntity
  8
0
 62
     0
100
AcDbLine
 10
237.2771856508098
 20
89.5815866403293
 30
0.0
 11
253.6581856508096
 21
89.5815866403293
 31
0.0
  0
LINE
  5
4C9
330
1F
100
AcDbEntity
  8
0
 62
     0
100
AcDbLine
 10
253.6581856508096
 20
89.5815866403293
 30
0.0
 11
253.6581856508096
 21
75.58205664032925
 31
0.0
  0
LINE
  5
4CA
330
1F
100
AcDbEntity
  8
0
 62
     0
100
AcDbLine
 10
253.6581856508096
 20
75.58205664032925
 30
0.0
 11
237.2771856508098
 21
75.58068664032953
 31
0.0
  0
LINE
  5
4CB
330
1F
100
AcDbEntity
  8
0
 62
     0
100
AcDbLine
 10
261.0891856508096
 20
89.5815866403293
 30
0.0
 11
275.0891856508097
 21
89.5815866403293
 31
0.0
  0
LINE
  5
4CC
330
1F
100
AcDbEntity
  8
0
 62
     0
100
AcDbLine
 10
275.0891856508097
 20
89.5815866403293
 30
0.0
 11
275.0891856508097
 21
75.58205664032925
 31
0.0
  0
LINE
  5
4CD
330
1F
100
AcDbEntity
  8
0
 62
     0
100
AcDbLine
 10
275.0891856508097
 20
75.58205664032925
 30
0.0
 11
261.0891856508096
 21
75.58205664032925
 31
0.0
  0
LINE
  5
4CE
330
1F
100
AcDbEntity
  8
0
 62
     0
100
AcDbLine
 10
261.0891856508096
 20
75.58205664032925
 30
0.0
 11
261.0891856508096
 21
89.5815866403293
 31
0.0
  0
LINE
  5
4CF
330
1F
100
AcDbEntity
  8
0
 62
     0
100
AcDbLine
 10
61.06459565080967
 20
108.6314866403295
 30
0.0
 11
75.06408565080938
 21
108.6314866403295
 31
0.0
  0
LINE
  5
4D0
330
1F
100
AcDbEntity
  8
0
 62
     0
100
AcDbLine
 10
75.06408565080938
 20
108.6314866403295
 30
0.0
 11
75.06408565080938
 21
94.6320866403296
 31
0.0
  0
LINE
  5
4D1
330
1F
100
AcDbEntity
  8
0
 62
     0
100
AcDbLine
 10
75.06408565080938
 20
94.6320866403296
 30
0.0
 11
61.06459565080967
 21
94.6320866403296
 31
0.0
  0
LINE
  5
4D2
330
1F
100
AcDbEntity
  8
0
 62
     0
100
AcDbLine
 10
61.06459565080967
 20
94.6320866403296
 30
0.0
 11
61.06459565080967
 21
108.6314866403295
 31
0.0
  0
LINE
  5
4D3
330
1F
100
AcDbEntity
  8
0
 62
     0
100
AcDbLine
 10
87.25838565080948
 20
108.6314866403295
 30
0.0
 11
101.2576856508099
 21
108.6314866403295
 31
0.0
  0
LINE
  5
4D4
330
1F
100
AcDbEntity
  8
0
 62
     0
100
AcDbLine
 10
101.2576856508099
 20
108.6314866403295
 30
0.0
 11
101.2576856508099
 21
94.6320866403296
 31
0.0
  0
LINE
  5
4D5
330
1F
100
AcDbEntity
  8
0
 62
     0
100
AcDbLine
 10
101.2576856508099
 20
94.6320866403296
 30
0.0
 11
87.25838565080948
 21
94.6320866403296
 31
0.0
  0
LINE
  5
4D6
330
1F
100
AcDbEntity
  8
0
 62
     0
100
AcDbLine
 10
87.25838565080948
 20
94.6320866403296
 30
0.0
 11
87.25838565080948
 21
108.6314866403295
 31
0.0
  0
LINE
  5
4D7
330
1F
100
AcDbEntity
  8
0
 62
     0
100
AcDbLine
 10
106.3083856508096
 20
108.6314866403295
 30
0.0
 11
120.3076856508096
 21
108.6314866403295
 31
0.0
  0
LINE
  5
4D8
330
1F
100
AcDbEntity
  8
0
 62
     0
100
AcDbLine
 10
120.3076856508096
 20
108.6314866403295
 30
0.0
 11
120.3076856508096
 21
94.6320866403296
 31
0.0
  0
LINE
  5
4D9
330
1F
100
AcDbEntity
  8
0
 62
     0
100
AcDbLine
 10
120.3076856508096
 20
94.6320866403296
 30
0.0
 11
106.3083856508096
 21
94.6320866403296
 31
0.0
  0
LINE
  5
4DA
330
1F
100
AcDbEntity
  8
0
 62
     0
100
AcDbLine
 10
106.3083856508096
 20
94.6320866403296
 30
0.0
 11
106.3083856508096
 21
108.6314866403295
 31
0.0
  0
LINE
  5
4DB
330
1F
100
AcDbEntity
  8
0
 62
     0
100
AcDbLine
 10
125.3583856508098
 20
108.6314866403295
 30
0.0
 11
139.3576856508093
 21
108.6314866403295
 31
0.0
  0
LINE
  5
4DC
330
1F
100
AcDbEntity
  8
0
 62
     0
100
AcDbLine
 10
139.3576856508093
 20
108.6314866403295
 30
0.0
 11
139.3576856508093
 21
94.6320866403296
 31
0.0
  0
LINE
  5
4DD
330
1F
100
AcDbEntity
  8
0
 62
     0
100
AcDbLine
 10
139.3576856508093
 20
94.6320866403296
 30
0.0
 11
125.3583856508098
 21
94.6320866403296
 31
0.0
  0
LINE
  5
4DE
330
1F
100
AcDbEntity
  8
0
 62
     0
100
AcDbLine
 10
125.3583856508098
 20
94.6320866403296
 30
0.0
 11
125.3583856508098
 21
108.6314866403295
 31
0.0
  0
LINE
  5
4DF
330
1F
100
AcDbEntity
  8
0
 62
     0
100
AcDbLine
 10
144.4083856508096
 20
108.6314866403295
 30
0.0
 11
158.4081856508096
 21
108.6314866403295
 31
0.0
  0
LINE
  5
4E0
330
1F
100
AcDbEntity
  8
0
 62
     0
100
AcDbLine
 10
158.4081856508096
 20
108.6314866403295
 30
0.0
 11
158.4081856508096
 21
94.6320866403296
 31
0.0
  0
LINE
  5
4E1
330
1F
100
AcDbEntity
  8
0
 62
     0
100
AcDbLine
 10
158.4081856508096
 20
94.6320866403296
 30
0.0
 11
144.4083856508096
 21
94.6320866403296
 31
0.0
  0
LINE
  5
4E2
330
1F
100
AcDbEntity
  8
0
 62
     0
100
AcDbLine
 10
144.4083856508096
 20
94.6320866403296
 30
0.0
 11
144.4083856508096
 21
108.6314866403295
 31
0.0
  0
LINE
  5
4E3
330
1F
100
AcDbEntity
  8
0
 62
     0
100
AcDbLine
 10
163.4581856508098
 20
108.6314866403295
 30
0.0
 11
177.4581856508098
 21
108.6314866403295
 31
0.0
  0
LINE
  5
4E4
330
1F
100
AcDbEntity
  8
0
 62
     0
100
AcDbLine
 10
177.4581856508098
 20
108.6314866403295
 30
0.0
 11
177.4581856508098
 21
94.6320866403296
 31
0.0
  0
LINE
  5
4E5
330
1F
100
AcDbEntity
  8
0
 62
     0
100
AcDbLine
 10
177.4581856508098
 20
94.6320866403296
 30
0.0
 11
163.4581856508098
 21
94.6320866403296
 31
0.0
  0
LINE
  5
4E6
330
1F
100
AcDbEntity
  8
0
 62
     0
100
AcDbLine
 10
163.4581856508098
 20
94.6320866403296
 30
0.0
 11
163.4581856508098
 21
108.6314866403295
 31
0.0
  0
LINE
  5
4E7
330
1F
100
AcDbEntity
  8
0
 62
     0
100
AcDbLine
 10
182.5081856508095
 20
108.6314866403295
 30
0.0
 11
196.5081856508095
 21
108.6314866403295
 31
0.0
  0
LINE
  5
4E8
330
1F
100
AcDbEntity
  8
0
 62
     0
100
AcDbLine
 10
196.5081856508095
 20
108.6314866403295
 30
0.0
 11
196.5081856508095
 21
94.6320866403296
 31
0.0
  0
LINE
  5
4E9
330
1F
100
AcDbEntity
  8
0
 62
     0
100
AcDbLine
 10
196.5081856508095
 20
94.6320866403296
 30
0.0
 11
182.5081856508095
 21
94.6320866403296
 31
0.0
  0
LINE
  5
4EA
330
1F
100
AcDbEntity
  8
0
 62
     0
100
AcDbLine
 10
182.5081856508095
 20
94.6320866403296
 30
0.0
 11
182.5081856508095
 21
108.6314866403295
 31
0.0
  0
LINE
  5
4EB
330
1F
100
AcDbEntity
  8
0
 62
     0
100
AcDbLine
 10
201.5581856508097
 20
108.6314866403295
 30
0.0
 11
215.5581856508097
 21
108.6314866403295
 31
0.0
  0
LINE
  5
4EC
330
1F
100
AcDbEntity
  8
0
 62
     0
100
AcDbLine
 10
215.5581856508097
 20
108.6314866403295
 30
0.0
 11
215.5581856508097
 21
94.6320866403296
 31
0.0
  0
LINE
  5
4ED
330
1F
100
AcDbEntity
  8
0
 62
     0
100
AcDbLine
 10
215.5581856508097
 20
94.6320866403296
 30
0.0
 11
201.5581856508097
 21
94.6320866403296
 31
0.0
  0
LINE
  5
4EE
330
1F
100
AcDbEntity
  8
0
 62
     0
100
AcDbLine
 10
201.5581856508097
 20
94.6320866403296
 30
0.0
 11
201.5581856508097
 21
108.6314866403295
 31
0.0
  0
LINE
  5
4EF
330
1F
100
AcDbEntity
  8
0
 62
     0
100
AcDbLine
 10
220.6081856508094
 20
108.6314866403295
 30
0.0
 11
234.6081856508094
 21
108.6314866403295
 31
0.0
  0
LINE
  5
4F0
330
1F
100
AcDbEntity
  8
0
 62
     0
100
AcDbLine
 10
234.6081856508094
 20
108.6314866403295
 30
0.0
 11
234.6081856508094
 21
94.6320866403296
 31
0.0
  0
LINE
  5
4F1
330
1F
100
AcDbEntity
  8
0
 62
     0
100
AcDbLine
 10
234.6081856508094
 20
94.6320866403296
 30
0.0
 11
220.6081856508094
 21
94.6320866403296
 31
0.0
  0
LINE
  5
4F2
330
1F
100
AcDbEntity
  8
0
 62
     0
100
AcDbLine
 10
220.6081856508094
 20
94.6320866403296
 30
0.0
 11
220.6081856508094
 21
108.6314866403295
 31
0.0
  0
LINE
  5
4F3
330
1F
100
AcDbEntity
  8
0
 62
     0
100
AcDbLine
 10
239.6581856508096
 20
108.6314866403295
 30
0.0
 11
256.0391856508095
 21
108.6314866403295
 31
0.0
  0
LINE
  5
4F4
330
1F
100
AcDbEntity
  8
0
 62
     0
100
AcDbLine
 10
256.0391856508095
 20
94.6320866403296
 30
0.0
 11
239.6581856508096
 21
94.6320866403296
 31
0.0
  0
LINE
  5
4F5
330
1F
100
AcDbEntity
  8
0
 62
     0
100
AcDbLine
 10
239.6581856508096
 20
94.6320866403296
 30
0.0
 11
239.6581856508096
 21
108.6314866403295
 31
0.0
  0
LINE
  5
4F6
330
1F
100
AcDbEntity
  8
0
 62
     0
100
AcDbLine
 10
261.0891856508096
 20
94.6320866403296
 30
0.0
 11
261.0891856508096
 21
108.6314866403295
 31
0.0
  0
LINE
  5
4F7
330
1F
100
AcDbEntity
  8
0
 62
     0
100
AcDbLine
 10
56.30209565080986
 20
127.6814866403292
 30
0.0
 11
70.30158565080956
 21
127.6814866403292
 31
0.0
  0
LINE
  5
4F8
330
1F
100
AcDbEntity
  8
0
 62
     0
100
AcDbLine
 10
70.30158565080956
 20
127.6814866403292
 30
0.0
 11
70.30158565080956
 21
113.6821866403293
 31
0.0
  0
LINE
  5
4F9
330
1F
100
AcDbEntity
  8
0
 62
     0
100
AcDbLine
 10
70.30158565080956
 20
113.6821866403293
 30
0.0
 11
56.30209565080986
 21
113.6821866403293
 31
0.0
  0
LINE
  5
4FA
330
1F
100
AcDbEntity
  8
0
 62
     0
100
AcDbLine
 10
56.30209565080986
 20
113.6821866403293
 30
0.0
 11
56.30209565080986
 21
127.6814866403292
 31
0.0
  0
LINE
  5
4FB
330
1F
100
AcDbEntity
  8
0
 62
     0
100
AcDbLine
 10
77.73338565080985
 20
127.6814866403292
 30
0.0
 11
91.73268565080935
 21
127.6814866403292
 31
0.0
  0
LINE
  5
4FC
330
1F
100
AcDbEntity
  8
0
 62
     0
100
AcDbLine
 10
91.73268565080935
 20
127.6814866403292
 30
0.0
 11
91.73268565080935
 21
113.6821866403293
 31
0.0
  0
LINE
  5
4FD
330
1F
100
AcDbEntity
  8
0
 62
     0
100
AcDbLine
 10
91.73268565080935
 20
113.6821866403293
 30
0.0
 11
77.73338565080985
 21
113.6821866403293
 31
0.0
  0
LINE
  5
4FE
330
1F
100
AcDbEntity
  8
0
 62
     0
100
AcDbLine
 10
77.73338565080985
 20
113.6821866403293
 30
0.0
 11
77.73338565080985
 21
127.6814866403292
 31
0.0
  0
LINE
  5
4FF
330
1F
100
AcDbEntity
  8
0
 62
     0
100
AcDbLine
 10
96.78338565080958
 20
127.6814866403292
 30
0.0
 11
110.7826856508095
 21
127.6814866403292
 31
0.0
  0
LINE
  5
500
330
1F
100
AcDbEntity
  8
0
 62
     0
100
AcDbLine
 10
110.7826856508095
 20
127.6814866403292
 30
0.0
 11
110.7826856508095
 21
113.6821866403293
 31
0.0
  0
LINE
  5
501
330
1F
100
AcDbEntity
  8
0
 62
     0
100
AcDbLine
 10
110.7826856508095
 20
113.6821866403293
 30
0.0
 11
96.78338565080958
 21
113.6821866403293
 31
0.0
  0
LINE
  5
502
330
1F
100
AcDbEntity
  8
0
 62
     0
100
AcDbLine
 10
96.78338565080958
 20
113.6821866403293
 30
0.0
 11
96.78338565080958
 21
127.6814866403292
 31
0.0
  0
LINE
  5
503
330
1F
100
AcDbEntity
  8
0
 62
     0
100
AcDbLine
 10
115.8333856508093
 20
127.6814866403292
 30
0.0
 11
129.8326856508097
 21
127.6814866403292
 31
0.0
  0
LINE
  5
504
330
1F
100
AcDbEntity
  8
0
 62
     0
100
AcDbLine
 10
129.8326856508097
 20
127.6814866403292
 30
0.0
 11
129.8326856508097
 21
113.6821866403293
 31
0.0
  0
LINE
  5
505
330
1F
100
AcDbEntity
  8
0
 62
     0
100
AcDbLine
 10
129.8326856508097
 20
113.6821866403293
 30
0.0
 11
115.8333856508093
 21
113.6821866403293
 31
0.0
  0
LINE
  5
506
330
1F
100
AcDbEntity
  8
0
 62
     0
100
AcDbLine
 10
115.8333856508093
 20
113.6821866403293
 30
0.0
 11
115.8333856508093
 21
127.6814866403292
 31
0.0
  0
LINE
  5
507
330
1F
100
AcDbEntity
  8
0
 62
     0
100
AcDbLine
 10
134.8833856508095
 20
127.6814866403292
 30
0.0
 11
148.8826856508099
 21
127.6814866403292
 31
0.0
  0
LINE
  5
508
330
1F
100
AcDbEntity
  8
0
 62
     0
100
AcDbLine
 10
148.8826856508099
 20
127.6814866403292
 30
0.0
 11
148.8826856508099
 21
113.6821866403293
 31
0.0
  0
LINE
  5
509
330
1F
100
AcDbEntity
  8
0
 62
     0
100
AcDbLine
 10
148.8826856508099
 20
113.6821866403293
 30
0.0
 11
134.8833856508095
 21
113.6821866403293
 31
0.0
  0
LINE
  5
50A
330
1F
100
AcDbEntity
  8
0
 62
     0
100
AcDbLine
 10
134.8833856508095
 20
113.6821866403293
 30
0.0
 11
134.8833856508095
 21
127.6814866403292
 31
0.0
  0
LINE
  5
50B
330
1F
100
AcDbEntity
  8
0
 62
     0
100
AcDbLine
 10
153.9331856508097
 20
127.6814866403292
 30
0.0
 11
167.9331856508097
 21
127.6814866403292
 31
0.0
  0
LINE
  5
50C
330
1F
100
AcDbEntity
  8
0
 62
     0
100
AcDbLine
 10
167.9331856508097
 20
127.6814866403292
 30
0.0
 11
167.9331856508097
 21
113.6821866403293
 31
0.0
  0
LINE
  5
50D
330
1F
100
AcDbEntity
  8
0
 62
     0
100
AcDbLine
 10
167.9331856508097
 20
113.6821866403293
 30
0.0
 11
153.9331856508097
 21
113.6821866403293
 31
0.0
  0
LINE
  5
50E
330
1F
100
AcDbEntity
  8
0
 62
     0
100
AcDbLine
 10
153.9331856508097
 20
113.6821866403293
 30
0.0
 11
153.9331856508097
 21
127.6814866403292
 31
0.0
  0
LINE
  5
50F
330
1F
100
AcDbEntity
  8
0
 62
     0
100
AcDbLine
 10
172.9831856508094
 20
127.6814866403292
 30
0.0
 11
186.9831856508094
 21
127.6814866403292
 31
0.0
  0
LINE
  5
510
330
1F
100
AcDbEntity
  8
0
 62
     0
100
AcDbLine
 10
186.9831856508094
 20
127.6814866403292
 30
0.0
 11
186.9831856508094
 21
113.6821866403293
 31
0.0
  0
LINE
  5
511
330
1F
100
AcDbEntity
  8
0
 62
     0
100
AcDbLine
 10
186.9831856508094
 20
113.6821866403293
 30
0.0
 11
172.9831856508094
 21
113.6821866403293
 31
0.0
  0
LINE
  5
512
330
1F
100
AcDbEntity
  8
0
 62
     0
100
AcDbLine
 10
172.9831856508094
 20
113.6821866403293
 30
0.0
 11
172.9831856508094
 21
127.6814866403292
 31
0.0
  0
LINE
  5
513
330
1F
100
AcDbEntity
  8
0
 62
     0
100
AcDbLine
 10
192.0331856508096
 20
127.6814866403292
 30
0.0
 11
206.0331856508096
 21
127.6814866403292
 31
0.0
  0
LINE
  5
514
330
1F
100
AcDbEntity
  8
0
 62
     0
100
AcDbLine
 10
206.0331856508096
 20
127.6814866403292
 30
0.0
 11
206.0331856508096
 21
113.6821866403293
 31
0.0
  0
LINE
  5
515
330
1F
100
AcDbEntity
  8
0
 62
     0
100
AcDbLine
 10
206.0331856508096
 20
113.6821866403293
 30
0.0
 11
192.0331856508096
 21
113.6821866403293
 31
0.0
  0
LINE
  5
516
330
1F
100
AcDbEntity
  8
0
 62
     0
100
AcDbLine
 10
192.0331856508096
 20
113.6821866403293
 30
0.0
 11
192.0331856508096
 21
127.6814866403292
 31
0.0
  0
LINE
  5
517
330
1F
100
AcDbEntity
  8
0
 62
     0
100
AcDbLine
 10
211.0831856508098
 20
127.6814866403292
 30
0.0
 11
225.0831856508098
 21
127.6814866403292
 31
0.0
  0
LINE
  5
518
330
1F
100
AcDbEntity
  8
0
 62
     0
100
AcDbLine
 10
225.0831856508098
 20
127.6814866403292
 30
0.0
 11
225.0831856508098
 21
113.6821866403293
 31
0.0
  0
LINE
  5
519
330
1F
100
AcDbEntity
  8
0
 62
     0
100
AcDbLine
 10
225.0831856508098
 20
113.6821866403293
 30
0.0
 11
211.0831856508098
 21
113.6821866403293
 31
0.0
  0
LINE
  5
51A
330
1F
100
AcDbEntity
  8
0
 62
     0
100
AcDbLine
 10
211.0831856508098
 20
113.6821866403293
 30
0.0
 11
211.0831856508098
 21
127.6814866403292
 31
0.0
  0
LINE
  5
51B
330
1F
100
AcDbEntity
  8
0
 62
     0
100
AcDbLine
 10
230.1331856508095
 20
127.6814866403292
 30
0.0
 11
244.1331856508095
 21
127.6814866403292
 31
0.0
  0
LINE
  5
51C
330
1F
100
AcDbEntity
  8
0
 62
     0
100
AcDbLine
 10
244.1331856508095
 20
127.6814866403292
 30
0.0
 11
244.1331856508095
 21
113.6821866403293
 31
0.0
  0
LINE
  5
51D
330
1F
100
AcDbEntity
  8
0
 62
     0
100
AcDbLine
 10
244.1331856508095
 20
113.6821866403293
 30
0.0
 11
230.1331856508095
 21
113.6821866403293
 31
0.0
  0
LINE
  5
51E
330
1F
100
AcDbEntity
  8
0
 62
     0
100
AcDbLine
 10
230.1331856508095
 20
113.6821866403293
 30
0.0
 11
230.1331856508095
 21
127.6814866403292
 31
0.0
  0
LINE
  5
51F
330
1F
100
AcDbEntity
  8
0
 62
     0
100
AcDbLine
 10
256.3271856508095
 20
127.6814866403292
 30
0.0
 11
270.3261856508093
 21
127.6814866403292
 31
0.0
  0
LINE
  5
520
330
1F
100
AcDbEntity
  8
0
 62
     0
100
AcDbLine
 10
270.3261856508093
 20
127.6814866403292
 30
0.0
 11
270.3261856508093
 21
113.6821866403293
 31
0.0
  0
LINE
  5
521
330
1F
100
AcDbEntity
  8
0
 62
     0
100
AcDbLine
 10
270.3261856508093
 20
113.6821866403293
 30
0.0
 11
256.3271856508095
 21
113.6821866403293
 31
0.0
  0
LINE
  5
522
330
1F
100
AcDbEntity
  8
0
 62
     0
100
AcDbLine
 10
256.3271856508095
 20
113.6821866403293
 30
0.0
 11
256.3271856508095
 21
127.6814866403292
 31
0.0
  0
LINE
  5
523
330
1F
100
AcDbEntity
  8
0
 62
     0
100
AcDbLine
 10
53.92083565080975
 20
146.7314866403294
 30
0.0
 11
67.92038565080975
 21
146.7314866403294
 31
0.0
  0
LINE
  5
524
330
1F
100
AcDbEntity
  8
0
 62
     0
100
AcDbLine
 10
67.92038565080975
 20
146.7314866403294
 30
0.0
 11
67.92038565080975
 21
132.7321866403292
 31
0.0
  0
LINE
  5
525
330
1F
100
AcDbEntity
  8
0
 62
     0
100
AcDbLine
 10
67.92038565080975
 20
132.7321866403292
 30
0.0
 11
53.92083565080975
 21
132.7321866403292
 31
0.0
  0
LINE
  5
526
330
1F
100
AcDbEntity
  8
0
 62
     0
100
AcDbLine
 10
72.97088565080958
 20
146.7314866403294
 30
0.0
 11
86.97018565080952
 21
146.7314866403294
 31
0.0
  0
LINE
  5
527
330
1F
100
AcDbEntity
  8
0
 62
     0
100
AcDbLine
 10
86.97018565080952
 20
146.7314866403294
 30
0.0
 11
86.97018565080952
 21
132.7321866403292
 31
0.0
  0
LINE
  5
528
330
1F
100
AcDbEntity
  8
0
 62
     0
100
AcDbLine
 10
86.97018565080952
 20
132.7321866403292
 30
0.0
 11
72.97088565080958
 21
132.7321866403292
 31
0.0
  0
LINE
  5
529
330
1F
100
AcDbEntity
  8
0
 62
     0
100
AcDbLine
 10
72.97088565080958
 20
132.7321866403292
 30
0.0
 11
72.97088565080958
 21
146.7314866403294
 31
0.0
  0
LINE
  5
52A
330
1F
100
AcDbEntity
  8
0
 62
     0
100
AcDbLine
 10
92.02088565080931
 20
146.7314866403294
 30
0.0
 11
106.0201856508097
 21
146.7314866403294
 31
0.0
  0
LINE
  5
52B
330
1F
100
AcDbEntity
  8
0
 62
     0
100
AcDbLine
 10
106.0201856508097
 20
146.7314866403294
 30
0.0
 11
106.0201856508097
 21
132.7321866403292
 31
0.0
  0
LINE
  5
52C
330
1F
100
AcDbEntity
  8
0
 62
     0
100
AcDbLine
 10
106.0201856508097
 20
132.7321866403292
 30
0.0
 11
92.02088565080931
 21
132.7321866403292
 31
0.0
  0
LINE
  5
52D
330
1F
100
AcDbEntity
  8
0
 62
     0
100
AcDbLine
 10
92.02088565080931
 20
132.7321866403292
 30
0.0
 11
92.02088565080931
 21
146.7314866403294
 31
0.0
  0
LINE
  5
52E
330
1F
100
AcDbEntity
  8
0
 62
     0
100
AcDbLine
 10
111.0708856508095
 20
146.7314866403294
 30
0.0
 11
125.0701856508099
 21
146.7314866403294
 31
0.0
  0
LINE
  5
52F
330
1F
100
AcDbEntity
  8
0
 62
     0
100
AcDbLine
 10
125.0701856508099
 20
146.7314866403294
 30
0.0
 11
125.0701856508099
 21
132.7321866403292
 31
0.0
  0
LINE
  5
530
330
1F
100
AcDbEntity
  8
0
 62
     0
100
AcDbLine
 10
125.0701856508099
 20
132.7321866403292
 30
0.0
 11
111.0708856508095
 21
132.7321866403292
 31
0.0
  0
LINE
  5
531
330
1F
100
AcDbEntity
  8
0
 62
     0
100
AcDbLine
 10
111.0708856508095
 20
132.7321866403292
 30
0.0
 11
111.0708856508095
 21
146.7314866403294
 31
0.0
  0
LINE
  5
532
330
1F
100
AcDbEntity
  8
0
 62
     0
100
AcDbLine
 10
130.1208856508097
 20
146.7314866403294
 30
0.0
 11
144.1201856508096
 21
146.7314866403294
 31
0.0
  0
LINE
  5
533
330
1F
100
AcDbEntity
  8
0
 62
     0
100
AcDbLine
 10
144.1201856508096
 20
146.7314866403294
 30
0.0
 11
144.1201856508096
 21
132.7321866403292
 31
0.0
  0
LINE
  5
534
330
1F
100
AcDbEntity
  8
0
 62
     0
100
AcDbLine
 10
144.1201856508096
 20
132.7321866403292
 30
0.0
 11
130.1208856508097
 21
132.7321866403292
 31
0.0
  0
LINE
  5
535
330
1F
100
AcDbEntity
  8
0
 62
     0
100
AcDbLine
 10
130.1208856508097
 20
132.7321866403292
 30
0.0
 11
130.1208856508097
 21
146.7314866403294
 31
0.0
  0
LINE
  5
536
330
1F
100
AcDbEntity
  8
0
 62
     0
100
AcDbLine
 10
149.1694856508097
 20
146.7314866403294
 30
0.0
 11
163.1701856508093
 21
146.7314866403294
 31
0.0
  0
LINE
  5
537
330
1F
100
AcDbEntity
  8
0
 62
     0
100
AcDbLine
 10
163.1701856508093
 20
146.7314866403294
 30
0.0
 11
163.1701856508093
 21
132.7321866403292
 31
0.0
  0
LINE
  5
538
330
1F
100
AcDbEntity
  8
0
 62
     0
100
AcDbLine
 10
163.1701856508093
 20
132.7321866403292
 30
0.0
 11
149.1694856508097
 21
132.7321866403292
 31
0.0
  0
LINE
  5
539
330
1F
100
AcDbEntity
  8
0
 62
     0
100
AcDbLine
 10
149.1694856508097
 20
132.7321866403292
 30
0.0
 11
149.1694856508097
 21
146.7314866403294
 31
0.0
  0
LINE
  5
53A
330
1F
100
AcDbEntity
  8
0
 62
     0
100
AcDbLine
 10
168.2191856508093
 20
146.7314866403294
 30
0.0
 11
182.2201856508095
 21
146.7314866403294
 31
0.0
  0
LINE
  5
53B
330
1F
100
AcDbEntity
  8
0
 62
     0
100
AcDbLine
 10
182.2201856508095
 20
146.7314866403294
 30
0.0
 11
182.2201856508095
 21
132.7321866403292
 31
0.0
  0
LINE
  5
53C
330
1F
100
AcDbEntity
  8
0
 62
     0
100
AcDbLine
 10
182.2201856508095
 20
132.7321866403292
 30
0.0
 11
168.2191856508093
 21
132.7321866403292
 31
0.0
  0
LINE
  5
53D
330
1F
100
AcDbEntity
  8
0
 62
     0
100
AcDbLine
 10
168.2191856508093
 20
132.7321866403292
 30
0.0
 11
168.2191856508093
 21
146.7314866403294
 31
0.0
  0
LINE
  5
53E
330
1F
100
AcDbEntity
  8
0
 62
     0
100
AcDbLine
 10
187.2711856508099
 20
146.7314866403294
 30
0.0
 11
201.2701856508097
 21
146.7314866403294
 31
0.0
  0
LINE
  5
53F
330
1F
100
AcDbEntity
  8
0
 62
     0
100
AcDbLine
 10
201.2701856508097
 20
146.7314866403294
 30
0.0
 11
201.2701856508097
 21
132.7321866403292
 31
0.0
  0
LINE
  5
540
330
1F
100
AcDbEntity
  8
0
 62
     0
100
AcDbLine
 10
201.2701856508097
 20
132.7321866403292
 30
0.0
 11
187.2711856508099
 21
132.7321866403292
 31
0.0
  0
LINE
  5
541
330
1F
100
AcDbEntity
  8
0
 62
     0
100
AcDbLine
 10
187.2711856508099
 20
132.7321866403292
 30
0.0
 11
187.2711856508099
 21
146.7314866403294
 31
0.0
  0
LINE
  5
542
330
1F
100
AcDbEntity
  8
0
 62
     0
100
AcDbLine
 10
206.3211856508096
 20
146.7314866403294
 30
0.0
 11
220.3201856508099
 21
146.7314866403294
 31
0.0
  0
LINE
  5
543
330
1F
100
AcDbEntity
  8
0
 62
     0
100
AcDbLine
 10
220.3201856508099
 20
146.7314866403294
 30
0.0
 11
220.3201856508099
 21
132.7321866403292
 31
0.0
  0
LINE
  5
544
330
1F
100
AcDbEntity
  8
0
 62
     0
100
AcDbLine
 10
220.3201856508099
 20
132.7321866403292
 30
0.0
 11
206.3211856508096
 21
132.7321866403292
 31
0.0
  0
LINE
  5
545
330
1F
100
AcDbEntity
  8
0
 62
     0
100
AcDbLine
 10
206.3211856508096
 20
132.7321866403292
 30
0.0
 11
206.3211856508096
 21
146.7314866403294
 31
0.0
  0
LINE
  5
546
330
1F
100
AcDbEntity
  8
0
 62
     0
100
AcDbLine
 10
225.3711856508094
 20
146.7314866403294
 30
0.0
 11
239.3701856508096
 21
146.7314866403294
 31
0.0
  0
LINE
  5
547
330
1F
100
AcDbEntity
  8
0
 62
     0
100
AcDbLine
 10
239.3701856508096
 20
146.7314866403294
 30
0.0
 11
239.3701856508096
 21
132.7321866403292
 31
0.0
  0
LINE
  5
548
330
1F
100
AcDbEntity
  8
0
 62
     0
100
AcDbLine
 10
239.3701856508096
 20
132.7321866403292
 30
0.0
 11
225.3711856508094
 21
132.7321866403292
 31
0.0
  0
LINE
  5
549
330
1F
100
AcDbEntity
  8
0
 62
     0
100
AcDbLine
 10
225.3711856508094
 20
132.7321866403292
 30
0.0
 11
225.3711856508094
 21
146.7314866403294
 31
0.0
  0
LINE
  5
54A
330
1F
100
AcDbEntity
  8
0
 62
     0
100
AcDbLine
 10
244.4211856508096
 20
146.7314866403294
 30
0.0
 11
258.4201856508093
 21
146.7314866403294
 31
0.0
  0
LINE
  5
54B
330
1F
100
AcDbEntity
  8
0
 62
     0
100
AcDbLine
 10
258.4201856508093
 20
146.7314866403294
 30
0.0
 11
258.4201856508093
 21
132.7321866403292
 31
0.0
  0
LINE
  5
54C
330
1F
100
AcDbEntity
  8
0
 62
     0
100
AcDbLine
 10
258.4201856508093
 20
132.7321866403292
 30
0.0
 11
244.4211856508096
 21
132.7321866403292
 31
0.0
  0
LINE
  5
54D
330
1F
100
AcDbEntity
  8
0
 62
     0
100
AcDbLine
 10
244.4211856508096
 20
132.7321866403292
 30
0.0
 11
244.4211856508096
 21
146.7314866403294
 31
0.0
  0
LINE
  5
54E
330
1F
100
AcDbEntity
  8
0
100
AcDbLine
 10
131.3017606508088
 20
91.27213663675638
 30
0.0
 11
131.3017606508088
 21
76.77213663675821
 31
0.0
  0
ARC
  5
54F
330
1F
100
AcDbEntity
  8
0
100
AcDbCircle
 10
130.8017606508124
 20
91.27213663675638
 30
0.0
 40
0.5
100
AcDbArc
 50
0.0
 51
90.0
  0
LINE
  5
550
330
1F
100
AcDbEntity
  8
0
100
AcDbLine
 10
130.8017606508124
 20
76.27213663675821
 30
0.0
 11
119.6382606508114
 21
76.27213663675821
 31
0.0
  0
ARC
  5
551
330
1F
100
AcDbEntity
  8
0
100
AcDbCircle
 10
130.8017606508124
 20
76.77213663675821
 30
0.0
 40
0.5
100
AcDbArc
 50
270.0
 51
0.0
  0
LINE
  5
552
330
1F
100
AcDbEntity
  8
0
100
AcDbLine
 10
130.8017606508124
 20
91.77213663675638
 30
0.0
 11
119.6382606508114
 21
91.77213663675638
 31
0.0
  0
LINE
  5
553
330
1F
100
AcDbEntity
  8
0
100
AcDbLine
 10
155.101760650808
 20
91.27213663675638
 30
0.0
 11
155.101760650808
 21
90.75942921604882
 31
0.0
  0
ARC
  5
554
330
1F
100
AcDbEntity
  8
0
100
AcDbCircle
 10
154.601760650808
 20
91.27213663675638
 30
0.0
 40
0.5
100
AcDbArc
 50
0.0
 51
90.0
  0
LINE
  5
555
330
1F
100
AcDbEntity
  8
0
100
AcDbLine
 10
154.601760650808
 20
76.27213663675821
 30
0.0
 11
148.2017606508102
 21
76.27213663675821
 31
0.0
  0
ARC
  5
556
330
1F
100
AcDbEntity
  8
0
100
AcDbCircle
 10
148.2017606508102
 20
76.77213663675821
 30
0.0
 40
0.5
100
AcDbArc
 50
180.0
 51
270.0
  0
LINE
  5
557
330
1F
100
AcDbEntity
  8
0
100
AcDbLine
 10
147.7017606508102
 20
76.77213663675821
 30
0.0
 11
147.7017606508102
 21
91.27213663675638
 31
0.0
  0
ARC
  5
558
330
1F
100
AcDbEntity
  8
0
100
AcDbCircle
 10
148.2017606508102
 20
91.27213663675638
 30
0.0
 40
0.5
100
AcDbArc
 50
90.0
 51
180.0
  0
LINE
  5
559
330
1F
100
AcDbEntity
  8
0
100
AcDbLine
 10
154.601760650808
 20
91.77213663675638
 30
0.0
 11
148.2017606508102
 21
91.77213663675638
 31
0.0
  0
LINE
  5
55A
330
1F
100
AcDbEntity
  8
0
 62
     0
100
AcDbLine
 10
263.4711856508097
 20
146.7314866403294
 30
0.0
 11
277.4701856508095
 21
146.7314866403294
 31
0.0
  0
LINE
  5
55B
330
1F
100
AcDbEntity
  8
0
 62
     0
100
AcDbLine
 10
277.4701856508095
 20
146.7314866403294
 30
0.0
 11
277.4701856508095
 21
132.7321866403292
 31
0.0
  0
LINE
  5
55C
330
1F
100
AcDbEntity
  8
0
 62
     0
100
AcDbLine
 10
277.4701856508095
 20
132.7321866403292
 30
0.0
 11
263.4711856508097
 21
132.7321866403292
 31
0.0
  0
LINE
  5
55D
330
1F
100
AcDbEntity
  8
0
 62
     0
100
AcDbLine
 10
263.4711856508097
 20
132.7321866403292
 30
0.0
 11
263.4711856508097
 21
146.7314866403294
 31
0.0
  0
LINE
  5
55E
330
1F
100
AcDbEntity
  8
0
 62
     0
100
AcDbLine
 10
132.5016856508095
 20
89.5815866403293
 30
0.0
 11
146.5014856508096
 21
89.5815866403293
 31
0.0
  0
LINE
  5
55F
330
1F
100
AcDbEntity
  8
0
 62
     0
100
AcDbLine
 10
146.5014856508096
 20
89.5815866403293
 30
0.0
 11
146.5014856508096
 21
75.58218664032938
 31
0.0
  0
LINE
  5
560
330
1F
100
AcDbEntity
  8
0
 62
     0
100
AcDbLine
 10
146.5014856508096
 20
75.58218664032938
 30
0.0
 11
132.5016856508095
 21
75.58218664032938
 31
0.0
  0
LINE
  5
561
330
1F
100
AcDbEntity
  8
0
 62
     0
100
AcDbLine
 10
132.5016856508095
 20
75.58218664032938
 30
0.0
 11
132.5016856508095
 21
89.5815866403293
 31
0.0
  0
LINE
  5
562
330
1F
100
AcDbEntity
  8
0
 62
     0
100
AcDbLine
 10
194.1271856508097
 20
89.5815866403293
 30
0.0
 11
194.1271856508097
 21
75.58218664032938
 31
0.0
  0
LINE
  5
563
330
1F
100
AcDbEntity
  8
0
100
AcDbLine
 10
53.92083565080975
 20
146.7314866403294
 30
0.0
 11
53.92083565080975
 21
132.7321866403292
 31
0.0
  0
LINE
  5
564
330
1F
100
AcDbEntity
  8
0
100
AcDbLine
 10
155.101760650808
 20
90.75942921604882
 30
0.0
 11
155.101760650808
 21
88.41914588659347
 31
0.0
  0
LINE
  5
565
330
1F
100
AcDbEntity
  8
0
100
AcDbLine
 10
155.101760650808
 20
79.22225295529256
 30
0.0
 11
155.1017606508085
 21
76.77213663675821
 31
0.0
  0
ARC
  5
566
330
1F
100
AcDbEntity
  8
0
100
AcDbCircle
 10
154.601760650808
 20
76.77213663675821
 30
0.0
 40
0.5
100
AcDbArc
 50
270.0
 51
0.0
  0
LINE
  5
567
330
1F
100
AcDbEntity
  8
0
100
AcDbLine
 10
178.9272606508089
 20
91.27213663675638
 30
0.0
 11
178.9272606508089
 21
89.5815866403293
 31
0.0
  0
ARC
  5
568
330
1F
100
AcDbEntity
  8
0
100
AcDbCircle
 10
178.4272606508125
 20
91.27213663675638
 30
0.0
 40
0.5
100
AcDbArc
 50
0.0
 51
90.0
  0
LINE
  5
569
330
1F
100
AcDbEntity
  8
0
100
AcDbLine
 10
171.527260650811
 20
89.5815866403293
 30
0.0
 11
171.527260650811
 21
91.27213663675638
 31
0.0
  0
ARC
  5
56A
330
1F
100
AcDbEntity
  8
0
100
AcDbCircle
 10
172.027260650811
 20
91.27213663675638
 30
0.0
 40
0.5
100
AcDbArc
 50
90.0
 51
180.0
  0
LINE
  5
56B
330
1F
100
AcDbEntity
  8
0
100
AcDbLine
 10
178.4272606508125
 20
91.77213663675638
 30
0.0
 11
172.027260650811
 21
91.77213663675638
 31
0.0
  0
LINE
  5
56C
330
1F
100
AcDbEntity
  8
0
100
AcDbLine
 10
202.7272606508081
 20
91.27213663675638
 30
0.0
 11
202.7272606508081
 21
90.75942921604882
 31
0.0
  0
ARC
  5
56D
330
1F
100
AcDbEntity
  8
0
100
AcDbCircle
 10
202.2272606508082
 20
91.27213663675638
 30
0.0
 40
0.5
100
AcDbArc
 50
0.0
 51
90.0
  0
LINE
  5
56E
330
1F
100
AcDbEntity
  8
0
100
AcDbLine
 10
202.2272606508082
 20
76.27213663675821
 30
0.0
 11
195.8272606508103
 21
76.27213663675821
 31
0.0
  0
ARC
  5
56F
330
1F
100
AcDbEntity
  8
0
100
AcDbCircle
 10
195.8272606508103
 20
76.77213663675821
 30
0.0
 40
0.5
100
AcDbArc
 50
180.0
 51
270.0
  0
LINE
  5
570
330
1F
100
AcDbEntity
  8
0
100
AcDbLine
 10
195.3272606508103
 20
76.77213663675821
 30
0.0
 11
195.3272606508103
 21
91.27213663675638
 31
0.0
  0
ARC
  5
571
330
1F
100
AcDbEntity
  8
0
100
AcDbCircle
 10
195.8272606508103
 20
91.27213663675638
 30
0.0
 40
0.5
100
AcDbArc
 50
90.0
 51
180.0
  0
LINE
  5
572
330
1F
100
AcDbEntity
  8
0
100
AcDbLine
 10
202.2272606508082
 20
91.77213663675638
 30
0.0
 11
195.8272606508103
 21
91.77213663675638
 31
0.0
  0
LINE
  5
573
330
1F
100
AcDbEntity
  8
0
100
AcDbLine
 10
202.7272606508081
 20
90.75942921604882
 30
0.0
 11
202.7272606508081
 21
76.77213663675821
 31
0.0
  0
ARC
  5
574
330
1F
100
AcDbEntity
  8
0
100
AcDbCircle
 10
202.2272606508082
 20
76.77213663675821
 30
0.0
 40
0.5
100
AcDbArc
 50
270.0
 51
0.0
  0
LINE
  5
575
330
1F
100
AcDbEntity
  8
0
 62
     0
100
AcDbLine
 10
277.4701856508095
 20
108.6314866403293
 30
0.0
 11
277.4701856508095
 21
94.63218664032911
 31
0.0
  0
LINE
  5
576
330
1F
100
AcDbEntity
  8
0
 62
     0
100
AcDbLine
 10
256.0391856508095
 20
108.6314866403295
 30
0.0
 11
256.0391856508095
 21
94.6320866403296
 31
0.0
  0
LINE
  5
577
330
1F
100
AcDbEntity
  8
0
 62
     0
100
AcDbLine
 10
261.0891856508096
 20
108.6314866403295
 30
0.0
 11
277.4701856508095
 21
108.6314866403293
 31
0.0
  0
LINE
  5
578
330
1F
100
AcDbEntity
  8
0
 62
     0
100
AcDbLine
 10
277.4701856508095
 20
94.63208664032936
 30
0.0
 11
261.0891856508096
 21
94.6320866403296
 31
0.0
  0
CIRCLE
  5
579
330
1F
100
AcDbEntity
  8
0
100
AcDbCircle
 10
70.57231065080987
 20
130.3338366403293
 30
0.0
 40
2.0
  0
CIRCLE
  5
57A
330
1F
100
AcDbEntity
  8
0
100
AcDbCircle
 10
70.57231065080987
 20
92.2338366403294
 30
0.0
 40
2.0
  0
CIRCLE
  5
57B
330
1F
100
AcDbEntity
  8
0
100
AcDbCircle
 10
165.8226106508095
 20
92.2338366403294
 30
0.0
 40
2.0
  0
CIRCLE
  5
57C
330
1F
100
AcDbEntity
  8
0
100
AcDbCircle
 10
261.0726106508096
 20
92.2338366403294
 30
0.0
 40
2.0
  0
CIRCLE
  5
57D
330
1F
100
AcDbEntity
  8
0
100
AcDbCircle
 10
261.0726106508096
 20
130.3338366403293
 30
0.0
 40
2.0
  0
CIRCLE
  5
57E
330
1F
100
AcDbEntity
  8
0
100
AcDbCircle
 10
70.57421065080962
 20
138.5888366403294
 30
0.0
 40
1.6
  0
LWPOLYLINE
  5
57F
330
1F
100
AcDbEntity
  8
0
100
AcDbPolyline
 90
        4
 70
     1
 43
0.0
 10
58.54761065080947
 20
131.1338366403292
 10
63.54761065080947
 20
131.1338366403292
 10
63.54761065080947
 20
129.5338366403293
 10
58.54761065080947
 20
129.5338366403293
  0
CIRCLE
  5
580
330
1F
100
AcDbEntity
  8
0
100
AcDbCircle
 10
165.8226106508095
 20
130.3338366403293
 30
0.0
 40
2.0
  0
LINE
  5
581
330
1F
100
AcDbEntity
  8
0
 62
     0
100
AcDbLine
 10
165.8391856508096
 20
75.58208664032941
 30
0.0
 11
194.1271856508097
 21
75.58208664032941
 31
0.0
  0
LINE
  5
582
330
1F
100
AcDbEntity
  8
0
 62
     0
100
AcDbLine
 10
194.1271856508097
 20
89.5815866403293
 30
0.0
 11
178.9272606508089
 21
89.5815866403293
 31
0.0
  0
LINE
  5
583
330
1F
100
AcDbEntity
  8
0
 62
     0
100
AcDbLine
 10
171.527260650811
 20
89.5815866403293
 30
0.0
 11
165.8391856508096
 21
89.5815866403293
 31
0.0
  0
LINE
  5
584
330
1F
100
AcDbEntity
  8
0
 62
     0
100
AcDbLine
 10
96.78338565081004
 20
89.5815866403293
 30
0.0
 11
113.1639856508095
 21
89.5815866403293
 31
0.0
  0
LINE
  5
585
330
1F
100
AcDbEntity
  8
0
 62
     0
100
AcDbLine
 10
113.1639856508095
 20
75.58068664032953
 30
0.0
 11
96.78338565081004
 21
75.58068664032953
 31
0.0
  0
LINE
  5
586
330
1F
100
AcDbEntity
  8
0
 62
     0
100
AcDbLine
 10
96.78338565081004
 20
75.58068664032953
 30
0.0
 11
96.78338565081004
 21
89.5815866403293
 31
0.0
  0
LINE
  5
587
330
1F
100
AcDbEntity
  8
0
 62
     0
100
AcDbLine
 10
237.2771856508098
 20
75.58068664032953
 30
0.0
 11
237.2771856508098
 21
89.5815866403293
 31
0.0
  0
LINE
  5
588
330
1F
100
AcDbEntity
  8
0
100
AcDbLine
 10
226.5402606508082
 20
91.27213663675638
 30
0.0
 11
226.5402606508082
 21
90.75942921604882
 31
0.0
  0
ARC
  5
589
330
1F
100
AcDbEntity
  8
0
100
AcDbCircle
 10
226.0402606508082
 20
91.27213663675638
 30
0.0
 40
0.5
100
AcDbArc
 50
0.0
 51
90.0
  0
LINE
  5
58A
330
1F
100
AcDbEntity
  8
0
100
AcDbLine
 10
219.1402606508104
 20
89.5815866403293
 30
0.0
 11
219.1402606508104
 21
91.27213663675638
 31
0.0
  0
ARC
  5
58B
330
1F
100
AcDbEntity
  8
0
100
AcDbCircle
 10
219.6402606508105
 20
91.27213663675638
 30
0.0
 40
0.5
100
AcDbArc
 50
90.0
 51
180.0
  0
LINE
  5
58C
330
1F
100
AcDbEntity
  8
0
100
AcDbLine
 10
226.0402606508082
 20
91.77213663675638
 30
0.0
 11
219.6402606508105
 21
91.77213663675638
 31
0.0
  0
LINE
  5
58D
330
1F
100
AcDbEntity
  8
0
100
AcDbLine
 10
226.5402606508082
 20
90.75942921604882
 30
0.0
 11
226.5402606508082
 21
89.5815866403293
 31
0.0
  0
ARC
  5
58E
330
1F
100
AcDbEntity
  8
0
100
AcDbCircle
 10
119.6382606508114
 20
76.77213663675821
 30
0.0
 40
0.5
100
AcDbArc
 50
180.0
 51
270.0
  0
LINE
  5
58F
330
1F
100
AcDbEntity
  8
0
100
AcDbLine
 10
119.1382606508114
 20
76.77213663675821
 30
0.0
 11
119.1382606508114
 21
91.27213663675638
 31
0.0
  0
ARC
  5
590
330
1F
100
AcDbEntity
  8
0
100
AcDbCircle
 10
119.6382606508114
 20
91.27213663675638
 30
0.0
 40
0.5
100
AcDbArc
 50
90.0
 51
180.0
  0
LINE
  5
591
330
1F
100
AcDbEntity
  8
0
 62
     0
100
AcDbLine
 10
165.8391856508096
 20
75.58218664032938
 30
0.0
 11
165.8391856508096
 21
89.5815866403293
 31
0.0
  0
LINE
  5
592
330
1F
100
AcDbEntity
  8
BLACK
100
AcDbLine
 10
161.9115817600241
 20
88.41914588659347
 30
0.0
 11
161.9096104976697
 21
79.22395295529236
 31
0.0
  0
LINE
  5
593
330
1F
100
AcDbEntity
  8
BLACK
100
AcDbLine
 10
161.9096104976697
 20
79.22395295529236
 30
0.0
 11
155.1017606508085
 21
79.22225295529256
 31
0.0
  0
LINE
  5
594
330
1F
100
AcDbEntity
  8
0
100
AcDbLine
 10
161.9115817600241
 20
88.41914588659347
 30
0.0
 11
155.101760650808
 21
88.41914588659347
 31
0.0
  0
POLYLINE
  5
595
330
1F
100
AcDbEntity
  8
0
 62
     7
370
     0
100
AcDb2dPolyline
 66
     1
 10
0.0
 20
0.0
 30
0.0
  0
VERTEX
  5
596
330
595
100
AcDbEntity
  8
0
 62
     7
370
     0
100
AcDbVertex
100
AcDb2dVertex
 10
215.8038777020279
 20
84.82098320286036
 30
0.0
  0
VERTEX
  5
597
330
595
100
AcDbEntity
  8
0
 62
     7
370
     0
100
AcDbVertex
100
AcDb2dVertex
 10
213.6700428929767
 20
84.82098320286036
 30
0.0
  0
SEQEND
  5
598
330
595
100
AcDbEntity
  8
0
 62
     7
370
     0
  0
POLYLINE
  5
599
330
1F
100
AcDbEntity
  8
0
 62
     7
370
     0
100
AcDb2dPolyline
 66
     1
 10
0.0
 20
0.0
 30
0.0
  0
VERTEX
  5
59A
330
599
100
AcDbEntity
  8
0
 62
     7
370
     0
100
AcDbVertex
100
AcDb2dVertex
 10
215.8038777020279
 20
80.15669001430252
 30
0.0
  0
VERTEX
  5
59B
330
599
100
AcDbEntity
  8
0
 62
     7
370
     0
100
AcDbVertex
100
AcDb2dVertex
 10
215.8038777020279
 20
84.15465560449479
 30
0.0
  0
VERTEX
  5
59C
330
599
100
AcDbEntity
  8
0
 62
     7
370
     0
100
AcDbVertex
100
AcDb2dVertex
 10
215.8038777020279
 20
84.82098320286036
 30
0.0
  0
SEQEND
  5
59D
330
599
100
AcDbEntity
  8
0
 62
     7
370
     0
  0
POLYLINE
  5
59E
330
1F
100
AcDbEntity
  8
0
 62
     7
370
     0
100
AcDb2dPolyline
 66
     1
 10
0.0
 20
0.0
 30
0.0
  0
VERTEX
  5
59F
330
59E
100
AcDbEntity
  8
0
 62
     7
370
     0
100
AcDbVertex
100
AcDb2dVertex
 10
213.6700428929767
 20
84.82098320286036
 30
0.0
  0
VERTEX
  5
5A0
330
59E
100
AcDbEntity
  8
0
 62
     7
370
     0
100
AcDbVertex
100
AcDb2dVertex
 10
213.6700428929767
 20
80.82301761266785
 30
0.0
  0
VERTEX
  5
5A1
330
59E
100
AcDbEntity
  8
0
 62
     7
370
     0
100
AcDbVertex
100
AcDb2dVertex
 10
213.6700428929767
 20
80.15669001430252
 30
0.0
  0
SEQEND
  5
5A2
330
59E
100
AcDbEntity
  8
0
 62
     7
370
     0
  0
POLYLINE
  5
5A3
330
1F
100
AcDbEntity
  8
0
 62
     7
370
     0
100
AcDb2dPolyline
 66
     1
 10
0.0
 20
0.0
 30
0.0
  0
VERTEX
  5
5A4
330
5A3
100
AcDbEntity
  8
0
 62
     7
370
     0
100
AcDbVertex
100
AcDb2dVertex
 10
205.1505685995903
 20
77.93163178404665
 30
0.0
  0
VERTEX
  5
5A5
330
5A3
100
AcDbEntity
  8
0
 62
     7
370
     0
100
AcDbVertex
100
AcDb2dVertex
 10
212.3413539319504
 20
77.93163178404665
 30
0.0
  0
VERTEX
  5
5A6
330
5A3
100
AcDbEntity
  8
0
 62
     7
370
     0
100
AcDbVertex
100
AcDb2dVertex
 10
213.138567308566
 20
77.93163178404665
 30
0.0
  0
SEQEND
  5
5A7
330
5A3
100
AcDbEntity
  8
0
 62
     7
370
     0
  0
POLYLINE
  5
5A8
330
1F
100
AcDbEntity
  8
0
 62
     7
370
     0
100
AcDb2dPolyline
 66
     1
 10
0.0
 20
0.0
 30
0.0
  0
VERTEX
  5
5A9
330
5A8
100
AcDbEntity
  8
0
 62
     7
370
     0
100
AcDbVertex
100
AcDb2dVertex
 10
205.1505685995903
 20
84.82098320286036
 30
0.0
  0
VERTEX
  5
5AA
330
5A8
100
AcDbEntity
  8
0
 62
     7
370
     0
100
AcDbVertex
100
AcDb2dVertex
 10
205.1505685995903
 20
78.82006858186719
 30
0.0
  0
VERTEX
  5
5AB
330
5A8
100
AcDbEntity
  8
0
 62
     7
370
     0
100
AcDbVertex
100
AcDb2dVertex
 10
205.1505685995903
 20
77.93163178404665
 30
0.0
  0
SEQEND
  5
5AC
330
5A8
100
AcDbEntity
  8
0
 62
     7
370
     0
  0
POLYLINE
  5
5AD
330
1F
100
AcDbEntity
  8
0
 62
     7
370
     0
100
AcDb2dPolyline
 66
     1
 10
0.0
 20
0.0
 30
0.0
  0
VERTEX
  5
5AE
330
5AD
100
AcDbEntity
  8
0
 62
     7
370
     0
100
AcDbVertex
100
AcDb2dVertex
 10
205.1505685995903
 20
87.93051199523233
 30
0.0
  0
VERTEX
  5
5AF
330
5AD
100
AcDbEntity
  8
0
 62
     7
370
     0
100
AcDbVertex
100
AcDb2dVertex
 10
212.3413539319504
 20
87.93051199523233
 30
0.0
  0
VERTEX
  5
5B0
330
5AD
100
AcDbEntity
  8
0
 62
     7
370
     0
100
AcDbVertex
100
AcDb2dVertex
 10
213.138567308566
 20
87.93051199523233
 30
0.0
  0
SEQEND
  5
5B1
330
5AD
100
AcDbEntity
  8
0
 62
     7
370
     0
  0
POLYLINE
  5
5B2
330
1F
100
AcDbEntity
  8
0
 62
     7
370
     0
100
AcDb2dPolyline
 66
     1
 10
0.0
 20
0.0
 30
0.0
  0
VERTEX
  5
5B3
330
5B2
100
AcDbEntity
  8
0
 62
     7
370
     0
100
AcDbVertex
100
AcDb2dVertex
 10
205.1505685995903
 20
85.48731080122569
 30
0.0
  0
VERTEX
  5
5B4
330
5B2
100
AcDbEntity
  8
0
 62
     7
370
     0
100
AcDbVertex
100
AcDb2dVertex
 10
205.1505685995903
 20
87.48629359632195
 30
0.0
  0
VERTEX
  5
5B5
330
5B2
100
AcDbEntity
  8
0
 62
     7
370
     0
100
AcDbVertex
100
AcDb2dVertex
 10
205.1505685995903
 20
87.93051199523233
 30
0.0
  0
SEQEND
  5
5B6
330
5B2
100
AcDbEntity
  8
0
 62
     7
370
     0
  0
POLYLINE
  5
5B7
330
1F
100
AcDbEntity
  8
0
 62
     7
370
     0
100
AcDb2dPolyline
 66
     1
 10
0.0
 20
0.0
 30
0.0
  0
VERTEX
  5
5B8
330
5B7
100
AcDbEntity
  8
0
 62
     7
370
     0
100
AcDbVertex
100
AcDb2dVertex
 10
207.2804371729371
 20
85.48731080122569
 30
0.0
  0
VERTEX
  5
5B9
330
5B7
100
AcDbEntity
  8
0
 62
     7
370
     0
100
AcDbVertex
100
AcDb2dVertex
 10
205.1505685995903
 20
85.48731080122569
 30
0.0
  0
SEQEND
  5
5BA
330
5B7
100
AcDbEntity
  8
0
 62
     7
370
     0
  0
POLYLINE
  5
5BB
330
1F
100
AcDbEntity
  8
0
 62
     7
370
     0
100
AcDb2dPolyline
 66
     1
 10
0.0
 20
0.0
 30
0.0
  0
VERTEX
  5
5BC
330
5BB
100
AcDbEntity
  8
0
 62
     7
370
     0
100
AcDbVertex
100
AcDb2dVertex
 10
207.2804371729371
 20
85.93152920013608
 30
0.0
  0
VERTEX
  5
5BD
330
5BB
100
AcDbEntity
  8
0
 62
     7
370
     0
100
AcDbVertex
100
AcDb2dVertex
 10
207.2804371729371
 20
85.48731080122569
 30
0.0
  0
SEQEND
  5
5BE
330
5BB
100
AcDbEntity
  8
0
 62
     7
370
     0
  0
POLYLINE
  5
5BF
330
1F
100
AcDbEntity
  8
0
 62
     7
370
     0
100
AcDb2dPolyline
 66
     1
 10
0.0
 20
0.0
 30
0.0
  0
VERTEX
  5
5C0
330
5BF
100
AcDbEntity
  8
0
 62
     7
370
     0
100
AcDbVertex
100
AcDb2dVertex
 10
213.138567308566
 20
86.37574759904623
 30
0.0
  0
VERTEX
  5
5C1
330
5BF
100
AcDbEntity
  8
0
 62
     7
370
     0
100
AcDbVertex
100
AcDb2dVertex
 10
208.3433883417579
 20
86.37574759904623
 30
0.0
  0
VERTEX
  5
5C2
330
5BF
100
AcDbEntity
  8
0
 62
     7
370
     0
100
AcDbVertex
100
AcDb2dVertex
 10
207.8119127573473
 20
86.37574759904623
 30
0.0
  0
SEQEND
  5
5C3
330
5BF
100
AcDbEntity
  8
0
 62
     7
370
     0
  0
POLYLINE
  5
5C4
330
1F
100
AcDbEntity
  8
0
 62
     7
370
     0
100
AcDb2dPolyline
 66
     1
 10
0.0
 20
0.0
 30
0.0
  0
VERTEX
  5
5C5
330
5C4
100
AcDbEntity
  8
0
 62
     7
370
     0
100
AcDbVertex
100
AcDb2dVertex
 10
213.6700428929767
 20
85.48731080122569
 30
0.0
  0
VERTEX
  5
5C6
330
5C4
100
AcDbEntity
  8
0
 62
     7
370
     0
100
AcDbVertex
100
AcDb2dVertex
 10
213.6700428929767
 20
85.93152920013608
 30
0.0
  0
SEQEND
  5
5C7
330
5C4
100
AcDbEntity
  8
0
 62
     7
370
     0
  0
POLYLINE
  5
5C8
330
1F
100
AcDbEntity
  8
0
 62
     7
370
     0
100
AcDb2dPolyline
 66
     1
 10
0.0
 20
0.0
 30
0.0
  0
VERTEX
  5
5C9
330
5C8
100
AcDbEntity
  8
0
 62
     7
370
     0
100
AcDbVertex
100
AcDb2dVertex
 10
215.8038777020279
 20
85.48731080122569
 30
0.0
  0
VERTEX
  5
5CA
330
5C8
100
AcDbEntity
  8
0
 62
     7
370
     0
100
AcDbVertex
100
AcDb2dVertex
 10
213.6700428929767
 20
85.48731080122569
 30
0.0
  0
SEQEND
  5
5CB
330
5C8
100
AcDbEntity
  8
0
 62
     7
370
     0
  0
POLYLINE
  5
5CC
330
1F
100
AcDbEntity
  8
0
 62
     7
370
     0
100
AcDb2dPolyline
 66
     1
 10
0.0
 20
0.0
 30
0.0
  0
VERTEX
  5
5CD
330
5CC
100
AcDbEntity
  8
0
 62
     7
370
     0
100
AcDbVertex
100
AcDb2dVertex
 10
215.8038777020279
 20
85.7094200006809
 30
0.0
  0
VERTEX
  5
5CE
330
5CC
100
AcDbEntity
  8
0
 62
     7
370
     0
100
AcDbVertex
100
AcDb2dVertex
 10
215.8038777020279
 20
85.48731080122569
 30
0.0
  0
SEQEND
  5
5CF
330
5CC
100
AcDbEntity
  8
0
 62
     7
370
     0
  0
POLYLINE
  5
5D0
330
1F
100
AcDbEntity
  8
0
 62
     7
370
     0
100
AcDb2dPolyline
 66
     1
 10
0.0
 20
0.0
 30
0.0
  0
VERTEX
  5
5D1
330
5D0
100
AcDbEntity
  8
0
 62
     7
370
     0
100
AcDbVertex
100
AcDb2dVertex
 10
207.2804371729371
 20
84.82098320286036
 30
0.0
  0
VERTEX
  5
5D2
330
5D0
100
AcDbEntity
  8
0
 62
     7
370
     0
100
AcDbVertex
100
AcDb2dVertex
 10
205.1505685995903
 20
84.82098320286036
 30
0.0
  0
SEQEND
  5
5D3
330
5D0
100
AcDbEntity
  8
0
 62
     7
370
     0
  0
POLYLINE
  5
5D4
330
1F
100
AcDbEntity
  8
0
 62
     7
370
     0
100
AcDb2dPolyline
 66
     1
 10
0.0
 20
0.0
 30
0.0
  0
VERTEX
  5
5D5
330
5D4
100
AcDbEntity
  8
0
 62
     7
370
     0
100
AcDbVertex
100
AcDb2dVertex
 10
207.2804371729371
 20
80.15669001430252
 30
0.0
  0
VERTEX
  5
5D6
330
5D4
100
AcDbEntity
  8
0
 62
     7
370
     0
100
AcDbVertex
100
AcDb2dVertex
 10
207.2804371729371
 20
84.15465560449479
 30
0.0
  0
VERTEX
  5
5D7
330
5D4
100
AcDbEntity
  8
0
 62
     7
370
     0
100
AcDbVertex
100
AcDb2dVertex
 10
207.2804371729371
 20
84.82098320286036
 30
0.0
  0
SEQEND
  5
5D8
330
5D4
100
AcDbEntity
  8
0
 62
     7
370
     0
  0
POLYLINE
  5
5D9
330
1F
100
AcDbEntity
  8
0
 62
     7
370
     0
100
AcDb2dPolyline
 66
     1
 10
0.0
 20
0.0
 30
0.0
  0
VERTEX
  5
5DA
330
5D9
100
AcDbEntity
  8
0
 62
     7
370
     0
100
AcDbVertex
100
AcDb2dVertex
 10
213.138567308566
 20
79.71247161539236
 30
0.0
  0
VERTEX
  5
5DB
330
5D9
100
AcDbEntity
  8
0
 62
     7
370
     0
100
AcDbVertex
100
AcDb2dVertex
 10
208.3433883417579
 20
79.71247161539236
 30
0.0
  0
VERTEX
  5
5DC
330
5D9
100
AcDbEntity
  8
0
 62
     7
370
     0
100
AcDbVertex
100
AcDb2dVertex
 10
207.8119127573473
 20
79.71247161539236
 30
0.0
  0
SEQEND
  5
5DD
330
5D9
100
AcDbEntity
  8
0
 62
     7
370
     0
  0
POLYLINE
  5
5DE
330
1F
100
AcDbEntity
  8
0
 62
     7
370
     0
100
AcDb2dPolyline
 66
     1
 10
0.0
 20
0.0
 30
0.0
  0
VERTEX
  5
5DF
330
5DE
100
AcDbEntity
  8
0
 62
     7
370
     0
100
AcDbVertex
100
AcDb2dVertex
 10
213.138567308566
 20
79.71247161539236
 30
0.0
  0
VERTEX
  5
5E0
330
5DE
100
AcDbEntity
  8
0
 62
     7
370
     0
100
AcDbVertex
100
AcDb2dVertex
 10
213.2773855582254
 20
79.72437032250581
 30
0.0
  0
VERTEX
  5
5E1
330
5DE
100
AcDbEntity
  8
0
 62
     7
370
     0
100
AcDbVertex
100
AcDb2dVertex
 10
213.4043051007716
 20
79.77196515096057
 30
0.0
  0
VERTEX
  5
5E2
330
5DE
100
AcDbEntity
  8
0
 62
     7
370
     0
100
AcDbVertex
100
AcDb2dVertex
 10
213.5153597004987
 20
79.83939115793805
 30
0.0
  0
VERTEX
  5
5E3
330
5DE
100
AcDbEntity
  8
0
 62
     7
370
     0
100
AcDbVertex
100
AcDb2dVertex
 10
213.5986506502945
 20
79.93458081484732
 30
0.0
  0
VERTEX
  5
5E4
330
5DE
100
AcDbEntity
  8
0
 62
     7
370
     0
100
AcDbVertex
100
AcDb2dVertex
 10
213.6541779501586
 20
80.04166917887051
 30
0.0
  0
VERTEX
  5
5E5
330
5DE
100
AcDbEntity
  8
0
 62
     7
370
     0
100
AcDbVertex
100
AcDb2dVertex
 10
213.6700428929767
 20
80.15669001430252
 30
0.0
  0
SEQEND
  5
5E6
330
5DE
100
AcDbEntity
  8
0
 62
     7
370
     0
  0
POLYLINE
  5
5E7
330
1F
100
AcDbEntity
  8
0
 62
     7
370
     0
100
AcDb2dPolyline
 66
     1
 10
0.0
 20
0.0
 30
0.0
  0
VERTEX
  5
5E8
330
5E7
100
AcDbEntity
  8
0
 62
     7
370
     0
100
AcDbVertex
100
AcDb2dVertex
 10
207.2804371729371
 20
80.15669001430252
 30
0.0
  0
VERTEX
  5
5E9
330
5E7
100
AcDbEntity
  8
0
 62
     7
370
     0
100
AcDbVertex
100
AcDb2dVertex
 10
207.2963021157552
 20
80.04166917887051
 30
0.0
  0
VERTEX
  5
5EA
330
5E7
100
AcDbEntity
  8
0
 62
     7
370
     0
100
AcDbVertex
100
AcDb2dVertex
 10
207.3518294156188
 20
79.93458081484732
 30
0.0
  0
VERTEX
  5
5EB
330
5E7
100
AcDbEntity
  8
0
 62
     7
370
     0
100
AcDbVertex
100
AcDb2dVertex
 10
207.4351203654146
 20
79.83939115793805
 30
0.0
  0
VERTEX
  5
5EC
330
5E7
100
AcDbEntity
  8
0
 62
     7
370
     0
100
AcDbVertex
100
AcDb2dVertex
 10
207.5461749651422
 20
79.77196515096057
 30
0.0
  0
VERTEX
  5
5ED
330
5E7
100
AcDbEntity
  8
0
 62
     7
370
     0
100
AcDbVertex
100
AcDb2dVertex
 10
207.6730945076879
 20
79.72437032250581
 30
0.0
  0
VERTEX
  5
5EE
330
5E7
100
AcDbEntity
  8
0
 62
     7
370
     0
100
AcDbVertex
100
AcDb2dVertex
 10
207.8119127573473
 20
79.71247161539236
 30
0.0
  0
SEQEND
  5
5EF
330
5E7
100
AcDbEntity
  8
0
 62
     7
370
     0
  0
POLYLINE
  5
5F0
330
1F
100
AcDbEntity
  8
0
 62
     7
370
     0
100
AcDb2dPolyline
 66
     1
 10
0.0
 20
0.0
 30
0.0
  0
VERTEX
  5
5F1
330
5F0
100
AcDbEntity
  8
0
 62
     7
370
     0
100
AcDbVertex
100
AcDb2dVertex
 10
207.8119127573473
 20
86.37574759904623
 30
0.0
  0
VERTEX
  5
5F2
330
5F0
100
AcDbEntity
  8
0
 62
     7
370
     0
100
AcDbVertex
100
AcDb2dVertex
 10
207.6730945076879
 20
86.35988265622813
 30
0.0
  0
VERTEX
  5
5F3
330
5F0
100
AcDbEntity
  8
0
 62
     7
370
     0
100
AcDbVertex
100
AcDb2dVertex
 10
207.5461749651422
 20
86.31625406347779
 30
0.0
  0
VERTEX
  5
5F4
330
5F0
100
AcDbEntity
  8
0
 62
     7
370
     0
100
AcDbVertex
100
AcDb2dVertex
 10
207.4351203654146
 20
86.24486182079591
 30
0.0
  0
VERTEX
  5
5F5
330
5F0
100
AcDbEntity
  8
0
 62
     7
370
     0
100
AcDbVertex
100
AcDb2dVertex
 10
207.3518294156188
 20
86.15363839959128
 30
0.0
  0
VERTEX
  5
5F6
330
5F0
100
AcDbEntity
  8
0
 62
     7
370
     0
100
AcDbVertex
100
AcDb2dVertex
 10
207.2963021157552
 20
86.04655003556832
 30
0.0
  0
VERTEX
  5
5F7
330
5F0
100
AcDbEntity
  8
0
 62
     7
370
     0
100
AcDbVertex
100
AcDb2dVertex
 10
207.2804371729371
 20
85.93152920013608
 30
0.0
  0
SEQEND
  5
5F8
330
5F0
100
AcDbEntity
  8
0
 62
     7
370
     0
  0
POLYLINE
  5
5F9
330
1F
100
AcDbEntity
  8
0
 62
     7
370
     0
100
AcDb2dPolyline
 66
     1
 10
0.0
 20
0.0
 30
0.0
  0
VERTEX
  5
5FA
330
5F9
100
AcDbEntity
  8
0
 62
     7
370
     0
100
AcDbVertex
100
AcDb2dVertex
 10
213.6700428929767
 20
85.93152920013608
 30
0.0
  0
VERTEX
  5
5FB
330
5F9
100
AcDbEntity
  8
0
 62
     7
370
     0
100
AcDbVertex
100
AcDb2dVertex
 10
213.6541779501586
 20
86.04655003556832
 30
0.0
  0
VERTEX
  5
5FC
330
5F9
100
AcDbEntity
  8
0
 62
     7
370
     0
100
AcDbVertex
100
AcDb2dVertex
 10
213.5986506502945
 20
86.15363839959128
 30
0.0
  0
VERTEX
  5
5FD
330
5F9
100
AcDbEntity
  8
0
 62
     7
370
     0
100
AcDbVertex
100
AcDb2dVertex
 10
213.5153597004987
 20
86.24486182079591
 30
0.0
  0
VERTEX
  5
5FE
330
5F9
100
AcDbEntity
  8
0
 62
     7
370
     0
100
AcDbVertex
100
AcDb2dVertex
 10
213.4043051007716
 20
86.31625406347779
 30
0.0
  0
VERTEX
  5
5FF
330
5F9
100
AcDbEntity
  8
0
 62
     7
370
     0
100
AcDbVertex
100
AcDb2dVertex
 10
213.2773855582254
 20
86.35988265622813
 30
0.0
  0
VERTEX
  5
600
330
5F9
100
AcDbEntity
  8
0
 62
     7
370
     0
100
AcDbVertex
100
AcDb2dVertex
 10
213.138567308566
 20
86.37574759904623
 30
0.0
  0
SEQEND
  5
601
330
5F9
100
AcDbEntity
  8
0
 62
     7
370
     0
  0
POLYLINE
  5
602
330
1F
100
AcDbEntity
  8
0
 62
     7
370
     0
100
AcDb2dPolyline
 66
     1
 10
0.0
 20
0.0
 30
0.0
  0
VERTEX
  5
603
330
602
100
AcDbEntity
  8
0
 62
     7
370
     0
100
AcDbVertex
100
AcDb2dVertex
 10
215.8038777020279
 20
85.7094200006809
 30
0.0
  0
VERTEX
  5
604
330
602
100
AcDbEntity
  8
0
 62
     7
370
     0
100
AcDbVertex
100
AcDb2dVertex
 10
215.7840465235049
 20
85.95929285006809
 30
0.0
  0
VERTEX
  5
605
330
602
100
AcDbEntity
  8
0
 62
     7
370
     0
100
AcDbVertex
100
AcDb2dVertex
 10
215.7364516950502
 20
86.20519946375043
 30
0.0
  0
VERTEX
  5
606
330
602
100
AcDbEntity
  8
0
 62
     7
370
     0
100
AcDbVertex
100
AcDb2dVertex
 10
215.6531607452548
 20
86.44317360602371
 30
0.0
  0
VERTEX
  5
607
330
602
100
AcDbEntity
  8
0
 62
     7
370
     0
100
AcDbVertex
100
AcDb2dVertex
 10
215.5381399098224
 20
86.67321527688796
 30
0.0
  0
VERTEX
  5
608
330
602
100
AcDbEntity
  8
0
 62
     7
370
     0
100
AcDbVertex
100
AcDb2dVertex
 10
215.3953554244586
 20
86.89135824063852
 30
0.0
  0
VERTEX
  5
609
330
602
100
AcDbEntity
  8
0
 62
     7
370
     0
100
AcDbVertex
100
AcDb2dVertex
 10
215.2208410534581
 20
87.0976024972756
 30
0.0
  0
VERTEX
  5
60A
330
602
100
AcDbEntity
  8
0
 62
     7
370
     0
100
AcDbVertex
100
AcDb2dVertex
 10
215.0225292682303
 20
87.28004933968509
 30
0.0
  0
VERTEX
  5
60B
330
602
100
AcDbEntity
  8
0
 62
     7
370
     0
100
AcDbVertex
100
AcDb2dVertex
 10
214.8004200687751
 20
87.44663123927649
 30
0.0
  0
VERTEX
  5
60C
330
602
100
AcDbEntity
  8
0
 62
     7
370
     0
100
AcDbVertex
100
AcDb2dVertex
 10
214.5545134550925
 20
87.59338196034491
 30
0.0
  0
VERTEX
  5
60D
330
602
100
AcDbEntity
  8
0
 62
     7
370
     0
100
AcDbVertex
100
AcDb2dVertex
 10
214.2927418985919
 20
87.71236903148155
 30
0.0
  0
VERTEX
  5
60E
330
602
100
AcDbEntity
  8
0
 62
     7
370
     0
100
AcDbVertex
100
AcDb2dVertex
 10
214.0190716349775
 20
87.80755868839106
 30
0.0
  0
VERTEX
  5
60F
330
602
100
AcDbEntity
  8
0
 62
     7
370
     0
100
AcDbVertex
100
AcDb2dVertex
 10
213.7295364285451
 20
87.87498469536854
 30
0.0
  0
VERTEX
  5
610
330
602
100
AcDbEntity
  8
0
 62
     7
370
     0
100
AcDbVertex
100
AcDb2dVertex
 10
213.4360349864078
 20
87.91861328811865
 30
0.0
  0
VERTEX
  5
611
330
602
100
AcDbEntity
  8
0
 62
     7
370
     0
100
AcDbVertex
100
AcDb2dVertex
 10
213.138567308566
 20
87.93051199523233
 30
0.0
  0
SEQEND
  5
612
330
602
100
AcDbEntity
  8
0
 62
     7
370
     0
  0
POLYLINE
  5
613
330
1F
100
AcDbEntity
  8
0
 62
     7
370
     0
100
AcDb2dPolyline
 66
     1
 10
0.0
 20
0.0
 30
0.0
  0
VERTEX
  5
614
330
613
100
AcDbEntity
  8
0
 62
     7
370
     0
100
AcDbVertex
100
AcDb2dVertex
 10
213.138567308566
 20
77.93163178404665
 30
0.0
  0
VERTEX
  5
615
330
613
100
AcDbEntity
  8
0
 62
     7
370
     0
100
AcDbVertex
100
AcDb2dVertex
 10
213.4360349864078
 20
77.94749672686475
 30
0.0
  0
VERTEX
  5
616
330
613
100
AcDbEntity
  8
0
 62
     7
370
     0
100
AcDbVertex
100
AcDb2dVertex
 10
213.7295364285451
 20
77.98715908391045
 30
0.0
  0
VERTEX
  5
617
330
613
100
AcDbEntity
  8
0
 62
     7
370
     0
100
AcDbVertex
100
AcDb2dVertex
 10
214.0190716349775
 20
78.05855132659235
 30
0.0
  0
VERTEX
  5
618
330
613
100
AcDbEntity
  8
0
 62
     7
370
     0
100
AcDbVertex
100
AcDb2dVertex
 10
214.2927418985919
 20
78.15374098350185
 30
0.0
  0
VERTEX
  5
619
330
613
100
AcDbEntity
  8
0
 62
     7
370
     0
100
AcDbVertex
100
AcDb2dVertex
 10
214.5545134550925
 20
78.27272805463849
 30
0.0
  0
VERTEX
  5
61A
330
613
100
AcDbEntity
  8
0
 62
     7
370
     0
100
AcDbVertex
100
AcDb2dVertex
 10
214.8004200687751
 20
78.41947877570692
 30
0.0
  0
VERTEX
  5
61B
330
613
100
AcDbEntity
  8
0
 62
     7
370
     0
100
AcDbVertex
100
AcDb2dVertex
 10
215.0225292682303
 20
78.5820944395939
 30
0.0
  0
VERTEX
  5
61C
330
613
100
AcDbEntity
  8
0
 62
     7
370
     0
100
AcDbVertex
100
AcDb2dVertex
 10
215.2208410534581
 20
78.76850751770803
 30
0.0
  0
VERTEX
  5
61D
330
613
100
AcDbEntity
  8
0
 62
     7
370
     0
100
AcDbVertex
100
AcDb2dVertex
 10
215.3953554244586
 20
78.9747517743449
 30
0.0
  0
VERTEX
  5
61E
330
613
100
AcDbEntity
  8
0
 62
     7
370
     0
100
AcDbVertex
100
AcDb2dVertex
 10
215.5381399098224
 20
79.19289473809545
 30
0.0
  0
VERTEX
  5
61F
330
613
100
AcDbEntity
  8
0
 62
     7
370
     0
100
AcDbVertex
100
AcDb2dVertex
 10
215.6531607452548
 20
79.42293640895968
 30
0.0
  0
VERTEX
  5
620
330
613
100
AcDbEntity
  8
0
 62
     7
370
     0
100
AcDbVertex
100
AcDb2dVertex
 10
215.7364516950502
 20
79.66091055123297
 30
0.0
  0
VERTEX
  5
621
330
613
100
AcDbEntity
  8
0
 62
     7
370
     0
100
AcDbVertex
100
AcDb2dVertex
 10
215.7840465235049
 20
79.90681716491554
 30
0.0
  0
VERTEX
  5
622
330
613
100
AcDbEntity
  8
0
 62
     7
370
     0
100
AcDbVertex
100
AcDb2dVertex
 10
215.8038777020279
 20
80.15669001430252
 30
0.0
  0
SEQEND
  5
623
330
613
100
AcDbEntity
  8
0
 62
     7
370
     0
  0
LINE
  5
624
330
1F
100
AcDbEntity
  8
0
100
AcDbLine
 10
90.29553565080869
 20
133.1321866403295
 30
0.0
 11
90.29553565080869
 21
146.331486640328
 31
0.0
  0
ARC
  5
625
330
1F
100
AcDbEntity
  8
0
100
AcDbCircle
 10
89.89553565080905
 20
133.1321866403295
 30
0.0
 40
0.4
100
AcDbArc
 50
270.0
 51
0.0
  0
LINE
  5
626
330
1F
100
AcDbEntity
  8
0
100
AcDbLine
 10
88.69553565081014
 20
133.1321866403277
 30
0.0
 11
88.69553565081014
 21
146.3314866403297
 31
0.0
  0
ARC
  5
627
330
1F
100
AcDbEntity
  8
0
100
AcDbCircle
 10
89.09553565080978
 20
133.1321866403277
 30
0.0
 40
0.4
100
AcDbArc
 50
180.0
 51
270.0
  0
LINE
  5
628
330
1F
100
AcDbEntity
  8
0
100
AcDbLine
 10
89.49553565080941
 20
146.7314866403294
 30
0.0
 11
89.49553565080941
 21
146.7314866403294
 31
0.0
  0
LINE
  5
629
330
1F
100
AcDbEntity
  8
0
100
AcDbLine
 10
89.89553565080905
 20
132.7321866403299
 30
0.0
 11
89.09553565080978
 21
132.7321866403299
 31
0.0
  0
LINE
  5
62A
330
1F
100
AcDbEntity
  8
0
100
AcDbLine
 10
89.89553565080905
 20
146.7314866403294
 30
0.0
 11
89.09553565080978
 21
146.7314866403294
 31
0.0
  0
ARC
  5
62B
330
1F
100
AcDbEntity
  8
0
100
AcDbCircle
 10
89.89553565080905
 20
146.331486640328
 30
0.0
 40
0.4
100
AcDbArc
 50
0.0
 51
90.0
  0
ARC
  5
62C
330
1F
100
AcDbEntity
  8
0
100
AcDbCircle
 10
89.09553565080978
 20
146.3314866403297
 30
0.0
 40
0.4
100
AcDbArc
 50
90.0
 51
180.0
  0
LINE
  5
62D
330
1F
100
AcDbEntity
  8
0
100
AcDbLine
 10
109.3455356508079
 20
133.1321866403295
 30
0.0
 11
109.3455356508079
 21
146.331486640328
 31
0.0
  0
ARC
  5
62E
330
1F
100
AcDbEntity
  8
0
100
AcDbCircle
 10
108.9455356508083
 20
133.1321866403295
 30
0.0
 40
0.4
100
AcDbArc
 50
270.0
 51
0.0
  0
LINE
  5
62F
330
1F
100
AcDbEntity
  8
0
100
AcDbLine
 10
107.7455356508094
 20
133.1321866403277
 30
0.0
 11
107.7455356508094
 21
146.3314866403297
 31
0.0
  0
ARC
  5
630
330
1F
100
AcDbEntity
  8
0
100
AcDbCircle
 10
108.145535650809
 20
133.1321866403277
 30
0.0
 40
0.4
100
AcDbArc
 50
180.0
 51
270.0
  0
LINE
  5
631
330
1F
100
AcDbEntity
  8
0
100
AcDbLine
 10
108.5455356508087
 20
146.7314866403294
 30
0.0
 11
108.5455356508087
 21
146.7314866403294
 31
0.0
  0
LINE
  5
632
330
1F
100
AcDbEntity
  8
0
100
AcDbLine
 10
108.9455356508083
 20
132.7321866403299
 30
0.0
 11
108.145535650809
 21
132.7321866403299
 31
0.0
  0
LINE
  5
633
330
1F
100
AcDbEntity
  8
0
100
AcDbLine
 10
108.9455356508083
 20
146.7314866403294
 30
0.0
 11
108.145535650809
 21
146.7314866403294
 31
0.0
  0
ARC
  5
634
330
1F
100
AcDbEntity
  8
0
100
AcDbCircle
 10
108.9455356508083
 20
146.331486640328
 30
0.0
 40
0.4
100
AcDbArc
 50
0.0
 51
90.0
  0
ARC
  5
635
330
1F
100
AcDbEntity
  8
0
100
AcDbCircle
 10
108.145535650809
 20
146.3314866403297
 30
0.0
 40
0.4
100
AcDbArc
 50
90.0
 51
180.0
  0
LINE
  5
636
330
1F
100
AcDbEntity
  8
0
100
AcDbLine
 10
128.395535650809
 20
133.1321866403295
 30
0.0
 11
128.395535650809
 21
146.331486640328
 31
0.0
  0
ARC
  5
637
330
1F
100
AcDbEntity
  8
0
100
AcDbCircle
 10
127.9955356508094
 20
133.1321866403295
 30
0.0
 40
0.4
100
AcDbArc
 50
270.0
 51
0.0
  0
LINE
  5
638
330
1F
100
AcDbEntity
  8
0
100
AcDbLine
 10
126.7955356508105
 20
133.1321866403277
 30
0.0
 11
126.7955356508105
 21
146.3314866403297
 31
0.0
  0
ARC
  5
639
330
1F
100
AcDbEntity
  8
0
100
AcDbCircle
 10
127.1955356508101
 20
133.1321866403277
 30
0.0
 40
0.4
100
AcDbArc
 50
180.0
 51
270.0
  0
LINE
  5
63A
330
1F
100
AcDbEntity
  8
0
100
AcDbLine
 10
127.5955356508098
 20
146.7314866403294
 30
0.0
 11
127.5955356508098
 21
146.7314866403294
 31
0.0
  0
LINE
  5
63B
330
1F
100
AcDbEntity
  8
0
100
AcDbLine
 10
127.9955356508094
 20
132.7321866403299
 30
0.0
 11
127.1955356508101
 21
132.7321866403299
 31
0.0
  0
LINE
  5
63C
330
1F
100
AcDbEntity
  8
0
100
AcDbLine
 10
127.9955356508094
 20
146.7314866403294
 30
0.0
 11
127.1955356508101
 21
146.7314866403294
 31
0.0
  0
ARC
  5
63D
330
1F
100
AcDbEntity
  8
0
100
AcDbCircle
 10
127.9955356508094
 20
146.331486640328
 30
0.0
 40
0.4
100
AcDbArc
 50
0.0
 51
90.0
  0
ARC
  5
63E
330
1F
100
AcDbEntity
  8
0
100
AcDbCircle
 10
127.1955356508101
 20
146.3314866403297
 30
0.0
 40
0.4
100
AcDbArc
 50
90.0
 51
180.0
  0
LINE
  5
63F
330
1F
100
AcDbEntity
  8
0
100
AcDbLine
 10
147.4455356508087
 20
133.1321866403295
 30
0.0
 11
147.4455356508087
 21
146.331486640328
 31
0.0
  0
ARC
  5
640
330
1F
100
AcDbEntity
  8
0
100
AcDbCircle
 10
147.0455356508091
 20
133.1321866403295
 30
0.0
 40
0.4
100
AcDbArc
 50
270.0
 51
0.0
  0
LINE
  5
641
330
1F
100
AcDbEntity
  8
0
100
AcDbLine
 10
145.8455356508102
 20
133.1321866403277
 30
0.0
 11
145.8455356508102
 21
146.3314866403297
 31
0.0
  0
ARC
  5
642
330
1F
100
AcDbEntity
  8
0
100
AcDbCircle
 10
146.2455356508098
 20
133.1321866403277
 30
0.0
 40
0.4
100
AcDbArc
 50
180.0
 51
270.0
  0
LINE
  5
643
330
1F
100
AcDbEntity
  8
0
100
AcDbLine
 10
146.6455356508095
 20
146.7314866403294
 30
0.0
 11
146.6455356508095
 21
146.7314866403294
 31
0.0
  0
LINE
  5
644
330
1F
100
AcDbEntity
  8
0
100
AcDbLine
 10
147.0455356508091
 20
132.7321866403299
 30
0.0
 11
146.2455356508098
 21
132.7321866403299
 31
0.0
  0
LINE
  5
645
330
1F
100
AcDbEntity
  8
0
100
AcDbLine
 10
147.0455356508091
 20
146.7314866403294
 30
0.0
 11
146.2455356508098
 21
146.7314866403294
 31
0.0
  0
ARC
  5
646
330
1F
100
AcDbEntity
  8
0
100
AcDbCircle
 10
147.0455356508091
 20
146.331486640328
 30
0.0
 40
0.4
100
AcDbArc
 50
0.0
 51
90.0
  0
ARC
  5
647
330
1F
100
AcDbEntity
  8
0
100
AcDbCircle
 10
146.2455356508098
 20
146.3314866403297
 30
0.0
 40
0.4
100
AcDbArc
 50
90.0
 51
180.0
  0
LINE
  5
648
330
1F
100
AcDbEntity
  8
0
100
AcDbLine
 10
166.495535650808
 20
133.1321866403295
 30
0.0
 11
166.495535650808
 21
146.331486640328
 31
0.0
  0
ARC
  5
649
330
1F
100
AcDbEntity
  8
0
100
AcDbCircle
 10
166.0955356508084
 20
133.1321866403295
 30
0.0
 40
0.4
100
AcDbArc
 50
270.0
 51
0.0
  0
LINE
  5
64A
330
1F
100
AcDbEntity
  8
0
100
AcDbLine
 10
164.8955356508095
 20
133.1321866403277
 30
0.0
 11
164.8955356508095
 21
146.3314866403297
 31
0.0
  0
ARC
  5
64B
330
1F
100
AcDbEntity
  8
0
100
AcDbCircle
 10
165.2955356508091
 20
133.1321866403277
 30
0.0
 40
0.4
100
AcDbArc
 50
180.0
 51
270.0
  0
LINE
  5
64C
330
1F
100
AcDbEntity
  8
0
100
AcDbLine
 10
165.6955356508088
 20
146.7314866403294
 30
0.0
 11
165.6955356508088
 21
146.7314866403294
 31
0.0
  0
LINE
  5
64D
330
1F
100
AcDbEntity
  8
0
100
AcDbLine
 10
166.0955356508084
 20
132.7321866403299
 30
0.0
 11
165.2955356508091
 21
132.7321866403299
 31
0.0
  0
LINE
  5
64E
330
1F
100
AcDbEntity
  8
0
100
AcDbLine
 10
166.0955356508084
 20
146.7314866403294
 30
0.0
 11
165.2955356508091
 21
146.7314866403294
 31
0.0
  0
ARC
  5
64F
330
1F
100
AcDbEntity
  8
0
100
AcDbCircle
 10
166.0955356508084
 20
146.331486640328
 30
0.0
 40
0.4
100
AcDbArc
 50
0.0
 51
90.0
  0
ARC
  5
650
330
1F
100
AcDbEntity
  8
0
100
AcDbCircle
 10
165.2955356508091
 20
146.3314866403297
 30
0.0
 40
0.4
100
AcDbArc
 50
90.0
 51
180.0
  0
LINE
  5
651
330
1F
100
AcDbEntity
  8
0
100
AcDbLine
 10
185.5455356508091
 20
133.1321866403295
 30
0.0
 11
185.5455356508091
 21
146.331486640328
 31
0.0
  0
ARC
  5
652
330
1F
100
AcDbEntity
  8
0
100
AcDbCircle
 10
185.1455356508095
 20
133.1321866403295
 30
0.0
 40
0.4
100
AcDbArc
 50
270.0
 51
0.0
  0
LINE
  5
653
330
1F
100
AcDbEntity
  8
0
100
AcDbLine
 10
183.9455356508106
 20
133.1321866403277
 30
0.0
 11
183.9455356508106
 21
146.3314866403297
 31
0.0
  0
ARC
  5
654
330
1F
100
AcDbEntity
  8
0
100
AcDbCircle
 10
184.3455356508102
 20
133.1321866403277
 30
0.0
 40
0.4
100
AcDbArc
 50
180.0
 51
270.0
  0
LINE
  5
655
330
1F
100
AcDbEntity
  8
0
100
AcDbLine
 10
184.7455356508098
 20
146.7314866403294
 30
0.0
 11
184.7455356508098
 21
146.7314866403294
 31
0.0
  0
LINE
  5
656
330
1F
100
AcDbEntity
  8
0
100
AcDbLine
 10
185.1455356508095
 20
132.7321866403299
 30
0.0
 11
184.3455356508102
 21
132.7321866403299
 31
0.0
  0
LINE
  5
657
330
1F
100
AcDbEntity
  8
0
100
AcDbLine
 10
185.1455356508095
 20
146.7314866403294
 30
0.0
 11
184.3455356508102
 21
146.7314866403294
 31
0.0
  0
ARC
  5
658
330
1F
100
AcDbEntity
  8
0
100
AcDbCircle
 10
185.1455356508095
 20
146.331486640328
 30
0.0
 40
0.4
100
AcDbArc
 50
0.0
 51
90.0
  0
ARC
  5
659
330
1F
100
AcDbEntity
  8
0
100
AcDbCircle
 10
184.3455356508102
 20
146.3314866403297
 30
0.0
 40
0.4
100
AcDbArc
 50
90.0
 51
180.0
  0
LINE
  5
65A
330
1F
100
AcDbEntity
  8
0
100
AcDbLine
 10
204.5955356508089
 20
133.1321866403295
 30
0.0
 11
204.5955356508089
 21
146.331486640328
 31
0.0
  0
ARC
  5
65B
330
1F
100
AcDbEntity
  8
0
100
AcDbCircle
 10
204.1955356508093
 20
133.1321866403295
 30
0.0
 40
0.4
100
AcDbArc
 50
270.0
 51
0.0
  0
LINE
  5
65C
330
1F
100
AcDbEntity
  8
0
100
AcDbLine
 10
202.9955356508103
 20
133.1321866403277
 30
0.0
 11
202.9955356508103
 21
146.3314866403297
 31
0.0
  0
ARC
  5
65D
330
1F
100
AcDbEntity
  8
0
100
AcDbCircle
 10
203.39553565081
 20
133.1321866403277
 30
0.0
 40
0.4
100
AcDbArc
 50
180.0
 51
270.0
  0
LINE
  5
65E
330
1F
100
AcDbEntity
  8
0
100
AcDbLine
 10
203.7955356508096
 20
146.7314866403294
 30
0.0
 11
203.7955356508096
 21
146.7314866403294
 31
0.0
  0
LINE
  5
65F
330
1F
100
AcDbEntity
  8
0
100
AcDbLine
 10
204.1955356508093
 20
132.7321866403299
 30
0.0
 11
203.39553565081
 21
132.7321866403299
 31
0.0
  0
LINE
  5
660
330
1F
100
AcDbEntity
  8
0
100
AcDbLine
 10
204.1955356508093
 20
146.7314866403294
 30
0.0
 11
203.39553565081
 21
146.7314866403294
 31
0.0
  0
ARC
  5
661
330
1F
100
AcDbEntity
  8
0
100
AcDbCircle
 10
204.1955356508093
 20
146.331486640328
 30
0.0
 40
0.4
100
AcDbArc
 50
0.0
 51
90.0
  0
ARC
  5
662
330
1F
100
AcDbEntity
  8
0
100
AcDbCircle
 10
203.39553565081
 20
146.3314866403297
 30
0.0
 40
0.4
100
AcDbArc
 50
90.0
 51
180.0
  0
LINE
  5
663
330
1F
100
AcDbEntity
  8
0
100
AcDbLine
 10
223.6455356508082
 20
133.1321866403295
 30
0.0
 11
223.6455356508082
 21
146.331486640328
 31
0.0
  0
ARC
  5
664
330
1F
100
AcDbEntity
  8
0
100
AcDbCircle
 10
223.2455356508085
 20
133.1321866403295
 30
0.0
 40
0.4
100
AcDbArc
 50
270.0
 51
0.0
  0
LINE
  5
665
330
1F
100
AcDbEntity
  8
0
100
AcDbLine
 10
222.0455356508096
 20
133.1321866403277
 30
0.0
 11
222.0455356508096
 21
146.3314866403297
 31
0.0
  0
ARC
  5
666
330
1F
100
AcDbEntity
  8
0
100
AcDbCircle
 10
222.4455356508092
 20
133.1321866403277
 30
0.0
 40
0.4
100
AcDbArc
 50
180.0
 51
270.0
  0
LINE
  5
667
330
1F
100
AcDbEntity
  8
0
100
AcDbLine
 10
222.8455356508089
 20
146.7314866403294
 30
0.0
 11
222.8455356508089
 21
146.7314866403294
 31
0.0
  0
LINE
  5
668
330
1F
100
AcDbEntity
  8
0
100
AcDbLine
 10
223.2455356508085
 20
132.7321866403299
 30
0.0
 11
222.4455356508092
 21
132.7321866403299
 31
0.0
  0
LINE
  5
669
330
1F
100
AcDbEntity
  8
0
100
AcDbLine
 10
223.2455356508085
 20
146.7314866403294
 30
0.0
 11
222.4455356508092
 21
146.7314866403294
 31
0.0
  0
ARC
  5
66A
330
1F
100
AcDbEntity
  8
0
100
AcDbCircle
 10
223.2455356508085
 20
146.331486640328
 30
0.0
 40
0.4
100
AcDbArc
 50
0.0
 51
90.0
  0
ARC
  5
66B
330
1F
100
AcDbEntity
  8
0
100
AcDbCircle
 10
222.4455356508092
 20
146.3314866403297
 30
0.0
 40
0.4
100
AcDbArc
 50
90.0
 51
180.0
  0
LINE
  5
66C
330
1F
100
AcDbEntity
  8
0
100
AcDbLine
 10
242.6955356508092
 20
133.1321866403295
 30
0.0
 11
242.6955356508092
 21
146.331486640328
 31
0.0
  0
ARC
  5
66D
330
1F
100
AcDbEntity
  8
0
100
AcDbCircle
 10
242.2955356508096
 20
133.1321866403295
 30
0.0
 40
0.4
100
AcDbArc
 50
270.0
 51
0.0
  0
LINE
  5
66E
330
1F
100
AcDbEntity
  8
0
100
AcDbLine
 10
241.0955356508107
 20
133.1321866403277
 30
0.0
 11
241.0955356508107
 21
146.3314866403297
 31
0.0
  0
ARC
  5
66F
330
1F
100
AcDbEntity
  8
0
100
AcDbCircle
 10
241.4955356508103
 20
133.1321866403277
 30
0.0
 40
0.4
100
AcDbArc
 50
180.0
 51
270.0
  0
LINE
  5
670
330
1F
100
AcDbEntity
  8
0
100
AcDbLine
 10
241.8955356508099
 20
146.7314866403294
 30
0.0
 11
241.8955356508099
 21
146.7314866403294
 31
0.0
  0
LINE
  5
671
330
1F
100
AcDbEntity
  8
0
100
AcDbLine
 10
242.2955356508096
 20
132.7321866403299
 30
0.0
 11
241.4955356508103
 21
132.7321866403299
 31
0.0
  0
LINE
  5
672
330
1F
100
AcDbEntity
  8
0
100
AcDbLine
 10
242.2955356508096
 20
146.7314866403294
 30
0.0
 11
241.4955356508103
 21
146.7314866403294
 31
0.0
  0
ARC
  5
673
330
1F
100
AcDbEntity
  8
0
100
AcDbCircle
 10
242.2955356508096
 20
146.331486640328
 30
0.0
 40
0.4
100
AcDbArc
 50
0.0
 51
90.0
  0
ARC
  5
674
330
1F
100
AcDbEntity
  8
0
100
AcDbCircle
 10
241.4955356508103
 20
146.3314866403297
 30
0.0
 40
0.4
100
AcDbArc
 50
90.0
 51
180.0
  0
LINE
  5
675
330
1F
100
AcDbEntity
  8
0
100
AcDbLine
 10
95.05803565080851
 20
114.0821866403294
 30
0.0
 11
95.05803565080851
 21
127.2814866403278
 31
0.0
  0
ARC
  5
676
330
1F
100
AcDbEntity
  8
0
100
AcDbCircle
 10
94.65803565080888
 20
114.0821866403294
 30
0.0
 40
0.4
100
AcDbArc
 50
270.0
 51
0.0
  0
LINE
  5
677
330
1F
100
AcDbEntity
  8
0
100
AcDbLine
 10
93.45803565080997
 20
114.0821866403275
 30
0.0
 11
93.45803565080997
 21
127.2814866403296
 31
0.0
  0
ARC
  5
678
330
1F
100
AcDbEntity
  8
0
100
AcDbCircle
 10
93.8580356508096
 20
114.0821866403275
 30
0.0
 40
0.4
100
AcDbArc
 50
180.0
 51
270.0
  0
LINE
  5
679
330
1F
100
AcDbEntity
  8
0
100
AcDbLine
 10
94.25803565080924
 20
127.6814866403292
 30
0.0
 11
94.25803565080924
 21
127.6814866403292
 31
0.0
  0
LINE
  5
67A
330
1F
100
AcDbEntity
  8
0
100
AcDbLine
 10
94.65803565080888
 20
113.6821866403297
 30
0.0
 11
93.8580356508096
 21
113.6821866403297
 31
0.0
  0
LINE
  5
67B
330
1F
100
AcDbEntity
  8
0
100
AcDbLine
 10
94.65803565080888
 20
127.6814866403292
 30
0.0
 11
93.8580356508096
 21
127.6814866403292
 31
0.0
  0
ARC
  5
67C
330
1F
100
AcDbEntity
  8
0
100
AcDbCircle
 10
94.65803565080888
 20
127.2814866403278
 30
0.0
 40
0.4
100
AcDbArc
 50
0.0
 51
90.0
  0
ARC
  5
67D
330
1F
100
AcDbEntity
  8
0
100
AcDbCircle
 10
93.8580356508096
 20
127.2814866403296
 30
0.0
 40
0.4
100
AcDbArc
 50
90.0
 51
180.0
  0
LINE
  5
67E
330
1F
100
AcDbEntity
  8
0
100
AcDbLine
 10
114.1080356508078
 20
114.0821866403294
 30
0.0
 11
114.1080356508078
 21
127.2814866403278
 31
0.0
  0
ARC
  5
67F
330
1F
100
AcDbEntity
  8
0
100
AcDbCircle
 10
113.7080356508081
 20
114.0821866403294
 30
0.0
 40
0.4
100
AcDbArc
 50
270.0
 51
0.0
  0
LINE
  5
680
330
1F
100
AcDbEntity
  8
0
100
AcDbLine
 10
112.5080356508092
 20
114.0821866403275
 30
0.0
 11
112.5080356508092
 21
127.2814866403296
 31
0.0
  0
ARC
  5
681
330
1F
100
AcDbEntity
  8
0
100
AcDbCircle
 10
112.9080356508088
 20
114.0821866403275
 30
0.0
 40
0.4
100
AcDbArc
 50
180.0
 51
270.0
  0
LINE
  5
682
330
1F
100
AcDbEntity
  8
0
100
AcDbLine
 10
113.3080356508085
 20
127.6814866403292
 30
0.0
 11
113.3080356508085
 21
127.6814866403292
 31
0.0
  0
LINE
  5
683
330
1F
100
AcDbEntity
  8
0
100
AcDbLine
 10
113.7080356508081
 20
113.6821866403297
 30
0.0
 11
112.9080356508088
 21
113.6821866403297
 31
0.0
  0
LINE
  5
684
330
1F
100
AcDbEntity
  8
0
100
AcDbLine
 10
113.7080356508081
 20
127.6814866403292
 30
0.0
 11
112.9080356508088
 21
127.6814866403292
 31
0.0
  0
ARC
  5
685
330
1F
100
AcDbEntity
  8
0
100
AcDbCircle
 10
113.7080356508081
 20
127.2814866403278
 30
0.0
 40
0.4
100
AcDbArc
 50
0.0
 51
90.0
  0
ARC
  5
686
330
1F
100
AcDbEntity
  8
0
100
AcDbCircle
 10
112.9080356508088
 20
127.2814866403296
 30
0.0
 40
0.4
100
AcDbArc
 50
90.0
 51
180.0
  0
LINE
  5
687
330
1F
100
AcDbEntity
  8
0
100
AcDbLine
 10
133.1580356508089
 20
114.0821866403294
 30
0.0
 11
133.1580356508089
 21
127.2814866403278
 31
0.0
  0
ARC
  5
688
330
1F
100
AcDbEntity
  8
0
100
AcDbCircle
 10
132.7580356508092
 20
114.0821866403294
 30
0.0
 40
0.4
100
AcDbArc
 50
270.0
 51
0.0
  0
LINE
  5
689
330
1F
100
AcDbEntity
  8
0
100
AcDbLine
 10
131.5580356508103
 20
114.0821866403275
 30
0.0
 11
131.5580356508103
 21
127.2814866403296
 31
0.0
  0
ARC
  5
68A
330
1F
100
AcDbEntity
  8
0
100
AcDbCircle
 10
131.9580356508099
 20
114.0821866403275
 30
0.0
 40
0.4
100
AcDbArc
 50
180.0
 51
270.0
  0
LINE
  5
68B
330
1F
100
AcDbEntity
  8
0
100
AcDbLine
 10
132.3580356508096
 20
127.6814866403292
 30
0.0
 11
132.3580356508096
 21
127.6814866403292
 31
0.0
  0
LINE
  5
68C
330
1F
100
AcDbEntity
  8
0
100
AcDbLine
 10
132.7580356508092
 20
113.6821866403297
 30
0.0
 11
131.9580356508099
 21
113.6821866403297
 31
0.0
  0
LINE
  5
68D
330
1F
100
AcDbEntity
  8
0
100
AcDbLine
 10
132.7580356508092
 20
127.6814866403292
 30
0.0
 11
131.9580356508099
 21
127.6814866403292
 31
0.0
  0
ARC
  5
68E
330
1F
100
AcDbEntity
  8
0
100
AcDbCircle
 10
132.7580356508092
 20
127.2814866403278
 30
0.0
 40
0.4
100
AcDbArc
 50
0.0
 51
90.0
  0
ARC
  5
68F
330
1F
100
AcDbEntity
  8
0
100
AcDbCircle
 10
131.9580356508099
 20
127.2814866403296
 30
0.0
 40
0.4
100
AcDbArc
 50
90.0
 51
180.0
  0
LINE
  5
690
330
1F
100
AcDbEntity
  8
0
100
AcDbLine
 10
152.208035650809
 20
114.0821866403294
 30
0.0
 11
152.208035650809
 21
127.2814866403278
 31
0.0
  0
ARC
  5
691
330
1F
100
AcDbEntity
  8
0
100
AcDbCircle
 10
151.8080356508094
 20
114.0821866403294
 30
0.0
 40
0.4
100
AcDbArc
 50
270.0
 51
0.0
  0
LINE
  5
692
330
1F
100
AcDbEntity
  8
0
100
AcDbLine
 10
150.6080356508105
 20
114.0821866403275
 30
0.0
 11
150.6080356508105
 21
127.2814866403296
 31
0.0
  0
ARC
  5
693
330
1F
100
AcDbEntity
  8
0
100
AcDbCircle
 10
151.0080356508101
 20
114.0821866403275
 30
0.0
 40
0.4
100
AcDbArc
 50
180.0
 51
270.0
  0
LINE
  5
694
330
1F
100
AcDbEntity
  8
0
100
AcDbLine
 10
151.4080356508098
 20
127.6814866403292
 30
0.0
 11
151.4080356508098
 21
127.6814866403292
 31
0.0
  0
LINE
  5
695
330
1F
100
AcDbEntity
  8
0
100
AcDbLine
 10
151.8080356508094
 20
113.6821866403297
 30
0.0
 11
151.0080356508101
 21
113.6821866403297
 31
0.0
  0
LINE
  5
696
330
1F
100
AcDbEntity
  8
0
100
AcDbLine
 10
151.8080356508094
 20
127.6814866403292
 30
0.0
 11
151.0080356508101
 21
127.6814866403292
 31
0.0
  0
ARC
  5
697
330
1F
100
AcDbEntity
  8
0
100
AcDbCircle
 10
151.8080356508094
 20
127.2814866403278
 30
0.0
 40
0.4
100
AcDbArc
 50
0.0
 51
90.0
  0
ARC
  5
698
330
1F
100
AcDbEntity
  8
0
100
AcDbCircle
 10
151.0080356508101
 20
127.2814866403296
 30
0.0
 40
0.4
100
AcDbArc
 50
90.0
 51
180.0
  0
LINE
  5
699
330
1F
100
AcDbEntity
  8
0
100
AcDbLine
 10
171.2580356508083
 20
114.0821866403294
 30
0.0
 11
171.2580356508083
 21
127.2814866403278
 31
0.0
  0
ARC
  5
69A
330
1F
100
AcDbEntity
  8
0
100
AcDbCircle
 10
170.8580356508087
 20
114.0821866403294
 30
0.0
 40
0.4
100
AcDbArc
 50
270.0
 51
0.0
  0
LINE
  5
69B
330
1F
100
AcDbEntity
  8
0
100
AcDbLine
 10
169.6580356508098
 20
114.0821866403275
 30
0.0
 11
169.6580356508098
 21
127.2814866403296
 31
0.0
  0
ARC
  5
69C
330
1F
100
AcDbEntity
  8
0
100
AcDbCircle
 10
170.0580356508094
 20
114.0821866403275
 30
0.0
 40
0.4
100
AcDbArc
 50
180.0
 51
270.0
  0
LINE
  5
69D
330
1F
100
AcDbEntity
  8
0
100
AcDbLine
 10
170.458035650809
 20
127.6814866403292
 30
0.0
 11
170.458035650809
 21
127.6814866403292
 31
0.0
  0
LINE
  5
69E
330
1F
100
AcDbEntity
  8
0
100
AcDbLine
 10
170.8580356508087
 20
113.6821866403297
 30
0.0
 11
170.0580356508094
 21
113.6821866403297
 31
0.0
  0
LINE
  5
69F
330
1F
100
AcDbEntity
  8
0
100
AcDbLine
 10
170.8580356508087
 20
127.6814866403292
 30
0.0
 11
170.0580356508094
 21
127.6814866403292
 31
0.0
  0
ARC
  5
6A0
330
1F
100
AcDbEntity
  8
0
100
AcDbCircle
 10
170.8580356508087
 20
127.2814866403278
 30
0.0
 40
0.4
100
AcDbArc
 50
0.0
 51
90.0
  0
ARC
  5
6A1
330
1F
100
AcDbEntity
  8
0
100
AcDbCircle
 10
170.0580356508094
 20
127.2814866403296
 30
0.0
 40
0.4
100
AcDbArc
 50
90.0
 51
180.0
  0
LINE
  5
6A2
330
1F
100
AcDbEntity
  8
0
100
AcDbLine
 10
190.3080356508094
 20
114.0821866403294
 30
0.0
 11
190.3080356508094
 21
127.2814866403278
 31
0.0
  0
ARC
  5
6A3
330
1F
100
AcDbEntity
  8
0
100
AcDbCircle
 10
189.9080356508098
 20
114.0821866403294
 30
0.0
 40
0.4
100
AcDbArc
 50
270.0
 51
0.0
  0
LINE
  5
6A4
330
1F
100
AcDbEntity
  8
0
100
AcDbLine
 10
188.7080356508108
 20
114.0821866403275
 30
0.0
 11
188.7080356508108
 21
127.2814866403296
 31
0.0
  0
ARC
  5
6A5
330
1F
100
AcDbEntity
  8
0
100
AcDbCircle
 10
189.1080356508105
 20
114.0821866403275
 30
0.0
 40
0.4
100
AcDbArc
 50
180.0
 51
270.0
  0
LINE
  5
6A6
330
1F
100
AcDbEntity
  8
0
100
AcDbLine
 10
189.5080356508101
 20
127.6814866403292
 30
0.0
 11
189.5080356508101
 21
127.6814866403292
 31
0.0
  0
LINE
  5
6A7
330
1F
100
AcDbEntity
  8
0
100
AcDbLine
 10
189.9080356508098
 20
113.6821866403297
 30
0.0
 11
189.1080356508105
 21
113.6821866403297
 31
0.0
  0
LINE
  5
6A8
330
1F
100
AcDbEntity
  8
0
100
AcDbLine
 10
189.9080356508098
 20
127.6814866403292
 30
0.0
 11
189.1080356508105
 21
127.6814866403292
 31
0.0
  0
ARC
  5
6A9
330
1F
100
AcDbEntity
  8
0
100
AcDbCircle
 10
189.9080356508098
 20
127.2814866403278
 30
0.0
 40
0.4
100
AcDbArc
 50
0.0
 51
90.0
  0
ARC
  5
6AA
330
1F
100
AcDbEntity
  8
0
100
AcDbCircle
 10
189.1080356508105
 20
127.2814866403296
 30
0.0
 40
0.4
100
AcDbArc
 50
90.0
 51
180.0
  0
LINE
  5
6AB
330
1F
100
AcDbEntity
  8
0
100
AcDbLine
 10
209.3585356508088
 20
114.0821866403294
 30
0.0
 11
209.3585356508088
 21
127.2814866403278
 31
0.0
  0
ARC
  5
6AC
330
1F
100
AcDbEntity
  8
0
100
AcDbCircle
 10
208.9585356508091
 20
114.0821866403294
 30
0.0
 40
0.4
100
AcDbArc
 50
270.0
 51
0.0
  0
LINE
  5
6AD
330
1F
100
AcDbEntity
  8
0
100
AcDbLine
 10
207.7585356508103
 20
114.0821866403275
 30
0.0
 11
207.7585356508103
 21
127.2814866403296
 31
0.0
  0
ARC
  5
6AE
330
1F
100
AcDbEntity
  8
0
100
AcDbCircle
 10
208.1585356508099
 20
114.0821866403275
 30
0.0
 40
0.4
100
AcDbArc
 50
180.0
 51
270.0
  0
LINE
  5
6AF
330
1F
100
AcDbEntity
  8
0
100
AcDbLine
 10
208.5585356508095
 20
127.6814866403292
 30
0.0
 11
208.5585356508095
 21
127.6814866403292
 31
0.0
  0
LINE
  5
6B0
330
1F
100
AcDbEntity
  8
0
100
AcDbLine
 10
208.9585356508091
 20
113.6821866403297
 30
0.0
 11
208.1585356508099
 21
113.6821866403297
 31
0.0
  0
LINE
  5
6B1
330
1F
100
AcDbEntity
  8
0
100
AcDbLine
 10
208.9585356508091
 20
127.6814866403292
 30
0.0
 11
208.1585356508099
 21
127.6814866403292
 31
0.0
  0
ARC
  5
6B2
330
1F
100
AcDbEntity
  8
0
100
AcDbCircle
 10
208.9585356508091
 20
127.2814866403278
 30
0.0
 40
0.4
100
AcDbArc
 50
0.0
 51
90.0
  0
ARC
  5
6B3
330
1F
100
AcDbEntity
  8
0
100
AcDbCircle
 10
208.1585356508099
 20
127.2814866403296
 30
0.0
 40
0.4
100
AcDbArc
 50
90.0
 51
180.0
  0
LINE
  5
6B4
330
1F
100
AcDbEntity
  8
0
100
AcDbLine
 10
228.408535650808
 20
114.0821866403294
 30
0.0
 11
228.408535650808
 21
127.2814866403278
 31
0.0
  0
ARC
  5
6B5
330
1F
100
AcDbEntity
  8
0
100
AcDbCircle
 10
228.0085356508084
 20
114.0821866403294
 30
0.0
 40
0.4
100
AcDbArc
 50
270.0
 51
0.0
  0
LINE
  5
6B6
330
1F
100
AcDbEntity
  8
0
100
AcDbLine
 10
226.8085356508095
 20
114.0821866403275
 30
0.0
 11
226.8085356508095
 21
127.2814866403296
 31
0.0
  0
ARC
  5
6B7
330
1F
100
AcDbEntity
  8
0
100
AcDbCircle
 10
227.2085356508092
 20
114.0821866403275
 30
0.0
 40
0.4
100
AcDbArc
 50
180.0
 51
270.0
  0
LINE
  5
6B8
330
1F
100
AcDbEntity
  8
0
100
AcDbLine
 10
227.6085356508088
 20
127.6814866403292
 30
0.0
 11
227.6085356508088
 21
127.6814866403292
 31
0.0
  0
LINE
  5
6B9
330
1F
100
AcDbEntity
  8
0
100
AcDbLine
 10
228.0085356508084
 20
113.6821866403297
 30
0.0
 11
227.2085356508092
 21
113.6821866403297
 31
0.0
  0
LINE
  5
6BA
330
1F
100
AcDbEntity
  8
0
100
AcDbLine
 10
228.0085356508084
 20
127.6814866403292
 30
0.0
 11
227.2085356508092
 21
127.6814866403292
 31
0.0
  0
ARC
  5
6BB
330
1F
100
AcDbEntity
  8
0
100
AcDbCircle
 10
228.0085356508084
 20
127.2814866403278
 30
0.0
 40
0.4
100
AcDbArc
 50
0.0
 51
90.0
  0
ARC
  5
6BC
330
1F
100
AcDbEntity
  8
0
100
AcDbCircle
 10
227.2085356508092
 20
127.2814866403296
 30
0.0
 40
0.4
100
AcDbArc
 50
90.0
 51
180.0
  0
LINE
  5
6BD
330
1F
100
AcDbEntity
  8
0
100
AcDbLine
 10
245.8585356508106
 20
114.0821866403275
 30
0.0
 11
245.8585356508106
 21
127.2814866403296
 31
0.0
  0
ARC
  5
6BE
330
1F
100
AcDbEntity
  8
0
100
AcDbCircle
 10
246.2585356508102
 20
114.0821866403275
 30
0.0
 40
0.4
100
AcDbArc
 50
180.0
 51
270.0
  0
LINE
  5
6BF
330
1F
100
AcDbEntity
  8
0
100
AcDbLine
 10
246.6585356508099
 20
127.6814866403292
 30
0.0
 11
246.6585356508099
 21
127.6814866403292
 31
0.0
  0
LINE
  5
6C0
330
1F
100
AcDbEntity
  8
0
100
AcDbLine
 10
254.2015356508096
 20
113.6821866403293
 30
0.0
 11
246.2585356508102
 21
113.6821866403297
 31
0.0
  0
LINE
  5
6C1
330
1F
100
AcDbEntity
  8
0
100
AcDbLine
 10
254.2015356508096
 20
127.6814866403279
 30
0.0
 11
246.2585356508102
 21
127.6814866403292
 31
0.0
  0
ARC
  5
6C2
330
1F
100
AcDbEntity
  8
0
100
AcDbCircle
 10
246.2585356508102
 20
127.2814866403296
 30
0.0
 40
0.4
100
AcDbArc
 50
90.0
 51
180.0
  0
LINE
  5
6C3
330
1F
100
AcDbEntity
  8
0
100
AcDbLine
 10
104.583035650809
 20
95.03218664032965
 30
0.0
 11
104.583035650809
 21
108.231486640328
 31
0.0
  0
ARC
  5
6C4
330
1F
100
AcDbEntity
  8
0
100
AcDbCircle
 10
104.1830356508094
 20
95.03218664032965
 30
0.0
 40
0.4
100
AcDbArc
 50
270.0
 51
0.0
  0
LINE
  5
6C5
330
1F
100
AcDbEntity
  8
0
100
AcDbLine
 10
102.9830356508105
 20
95.03218664032784
 30
0.0
 11
102.9830356508105
 21
108.2314866403299
 31
0.0
  0
ARC
  5
6C6
330
1F
100
AcDbEntity
  8
0
100
AcDbCircle
 10
103.3830356508101
 20
95.03218664032784
 30
0.0
 40
0.4
100
AcDbArc
 50
180.0
 51
270.0
  0
LINE
  5
6C7
330
1F
100
AcDbEntity
  8
0
100
AcDbLine
 10
103.7830356508097
 20
108.6314866403295
 30
0.0
 11
103.7830356508097
 21
108.6314866403295
 31
0.0
  0
LINE
  5
6C8
330
1F
100
AcDbEntity
  8
0
100
AcDbLine
 10
104.1830356508094
 20
94.63218664033002
 30
0.0
 11
103.3830356508101
 21
94.63218664033002
 31
0.0
  0
LINE
  5
6C9
330
1F
100
AcDbEntity
  8
0
100
AcDbLine
 10
104.1830356508094
 20
108.6314866403295
 30
0.0
 11
103.3830356508101
 21
108.6314866403295
 31
0.0
  0
ARC
  5
6CA
330
1F
100
AcDbEntity
  8
0
100
AcDbCircle
 10
104.1830356508094
 20
108.231486640328
 30
0.0
 40
0.4
100
AcDbArc
 50
0.0
 51
90.0
  0
ARC
  5
6CB
330
1F
100
AcDbEntity
  8
0
100
AcDbCircle
 10
103.3830356508101
 20
108.2314866403299
 30
0.0
 40
0.4
100
AcDbArc
 50
90.0
 51
180.0
  0
LINE
  5
6CC
330
1F
100
AcDbEntity
  8
0
100
AcDbLine
 10
123.6330356508083
 20
95.03218664032965
 30
0.0
 11
123.6330356508083
 21
108.231486640328
 31
0.0
  0
ARC
  5
6CD
330
1F
100
AcDbEntity
  8
0
100
AcDbCircle
 10
123.2330356508087
 20
95.03218664032965
 30
0.0
 40
0.4
100
AcDbArc
 50
270.0
 51
0.0
  0
LINE
  5
6CE
330
1F
100
AcDbEntity
  8
0
100
AcDbLine
 10
122.0330356508098
 20
95.03218664032784
 30
0.0
 11
122.0330356508098
 21
108.2314866403299
 31
0.0
  0
ARC
  5
6CF
330
1F
100
AcDbEntity
  8
0
100
AcDbCircle
 10
122.4330356508094
 20
95.03218664032784
 30
0.0
 40
0.4
100
AcDbArc
 50
180.0
 51
270.0
  0
LINE
  5
6D0
330
1F
100
AcDbEntity
  8
0
100
AcDbLine
 10
122.833035650809
 20
108.6314866403295
 30
0.0
 11
122.833035650809
 21
108.6314866403295
 31
0.0
  0
LINE
  5
6D1
330
1F
100
AcDbEntity
  8
0
100
AcDbLine
 10
123.2330356508087
 20
94.63218664033002
 30
0.0
 11
122.4330356508094
 21
94.63218664033002
 31
0.0
  0
LINE
  5
6D2
330
1F
100
AcDbEntity
  8
0
100
AcDbLine
 10
123.2330356508087
 20
108.6314866403295
 30
0.0
 11
122.4330356508094
 21
108.6314866403295
 31
0.0
  0
ARC
  5
6D3
330
1F
100
AcDbEntity
  8
0
100
AcDbCircle
 10
123.2330356508087
 20
108.231486640328
 30
0.0
 40
0.4
100
AcDbArc
 50
0.0
 51
90.0
  0
ARC
  5
6D4
330
1F
100
AcDbEntity
  8
0
100
AcDbCircle
 10
122.4330356508094
 20
108.2314866403299
 30
0.0
 40
0.4
100
AcDbArc
 50
90.0
 51
180.0
  0
LINE
  5
6D5
330
1F
100
AcDbEntity
  8
0
100
AcDbLine
 10
142.6830356508094
 20
95.03218664032965
 30
0.0
 11
142.6830356508094
 21
108.231486640328
 31
0.0
  0
ARC
  5
6D6
330
1F
100
AcDbEntity
  8
0
100
AcDbCircle
 10
142.2830356508097
 20
95.03218664032965
 30
0.0
 40
0.4
100
AcDbArc
 50
270.0
 51
0.0
  0
LINE
  5
6D7
330
1F
100
AcDbEntity
  8
0
100
AcDbLine
 10
141.0830356508109
 20
95.03218664032784
 30
0.0
 11
141.0830356508109
 21
108.2314866403299
 31
0.0
  0
ARC
  5
6D8
330
1F
100
AcDbEntity
  8
0
100
AcDbCircle
 10
141.4830356508105
 20
95.03218664032784
 30
0.0
 40
0.4
100
AcDbArc
 50
180.0
 51
270.0
  0
LINE
  5
6D9
330
1F
100
AcDbEntity
  8
0
100
AcDbLine
 10
141.8830356508101
 20
108.6314866403295
 30
0.0
 11
141.8830356508101
 21
108.6314866403295
 31
0.0
  0
LINE
  5
6DA
330
1F
100
AcDbEntity
  8
0
100
AcDbLine
 10
142.2830356508097
 20
94.63218664033002
 30
0.0
 11
141.4830356508105
 21
94.63218664033002
 31
0.0
  0
LINE
  5
6DB
330
1F
100
AcDbEntity
  8
0
100
AcDbLine
 10
142.2830356508097
 20
108.6314866403295
 30
0.0
 11
141.4830356508105
 21
108.6314866403295
 31
0.0
  0
ARC
  5
6DC
330
1F
100
AcDbEntity
  8
0
100
AcDbCircle
 10
142.2830356508097
 20
108.231486640328
 30
0.0
 40
0.4
100
AcDbArc
 50
0.0
 51
90.0
  0
ARC
  5
6DD
330
1F
100
AcDbEntity
  8
0
100
AcDbCircle
 10
141.4830356508105
 20
108.2314866403299
 30
0.0
 40
0.4
100
AcDbArc
 50
90.0
 51
180.0
  0
LINE
  5
6DE
330
1F
100
AcDbEntity
  8
0
100
AcDbLine
 10
161.7335356508088
 20
95.03218664032965
 30
0.0
 11
161.7335356508088
 21
108.231486640328
 31
0.0
  0
ARC
  5
6DF
330
1F
100
AcDbEntity
  8
0
100
AcDbCircle
 10
161.3335356508091
 20
95.03218664032965
 30
0.0
 40
0.4
100
AcDbArc
 50
270.0
 51
0.0
  0
LINE
  5
6E0
330
1F
100
AcDbEntity
  8
0
100
AcDbLine
 10
160.1335356508102
 20
95.03218664032784
 30
0.0
 11
160.1335356508102
 21
108.2314866403299
 31
0.0
  0
ARC
  5
6E1
330
1F
100
AcDbEntity
  8
0
100
AcDbCircle
 10
160.5335356508098
 20
95.03218664032784
 30
0.0
 40
0.4
100
AcDbArc
 50
180.0
 51
270.0
  0
LINE
  5
6E2
330
1F
100
AcDbEntity
  8
0
100
AcDbLine
 10
160.9335356508095
 20
108.6314866403295
 30
0.0
 11
160.9335356508095
 21
108.6314866403295
 31
0.0
  0
LINE
  5
6E3
330
1F
100
AcDbEntity
  8
0
100
AcDbLine
 10
161.3335356508091
 20
94.63218664033002
 30
0.0
 11
160.5335356508098
 21
94.63218664033002
 31
0.0
  0
LINE
  5
6E4
330
1F
100
AcDbEntity
  8
0
100
AcDbLine
 10
161.3335356508091
 20
108.6314866403295
 30
0.0
 11
160.5335356508098
 21
108.6314866403295
 31
0.0
  0
ARC
  5
6E5
330
1F
100
AcDbEntity
  8
0
100
AcDbCircle
 10
161.3335356508091
 20
108.231486640328
 30
0.0
 40
0.4
100
AcDbArc
 50
0.0
 51
90.0
  0
ARC
  5
6E6
330
1F
100
AcDbEntity
  8
0
100
AcDbCircle
 10
160.5335356508098
 20
108.2314866403299
 30
0.0
 40
0.4
100
AcDbArc
 50
90.0
 51
180.0
  0
LINE
  5
6E7
330
1F
100
AcDbEntity
  8
0
100
AcDbLine
 10
180.783535650808
 20
95.03218664032965
 30
0.0
 11
180.783535650808
 21
108.231486640328
 31
0.0
  0
ARC
  5
6E8
330
1F
100
AcDbEntity
  8
0
100
AcDbCircle
 10
180.3835356508084
 20
95.03218664032965
 30
0.0
 40
0.4
100
AcDbArc
 50
270.0
 51
0.0
  0
LINE
  5
6E9
330
1F
100
AcDbEntity
  8
0
100
AcDbLine
 10
179.1835356508095
 20
95.03218664032784
 30
0.0
 11
179.1835356508095
 21
108.2314866403299
 31
0.0
  0
ARC
  5
6EA
330
1F
100
AcDbEntity
  8
0
100
AcDbCircle
 10
179.5835356508091
 20
95.03218664032784
 30
0.0
 40
0.4
100
AcDbArc
 50
180.0
 51
270.0
  0
LINE
  5
6EB
330
1F
100
AcDbEntity
  8
0
100
AcDbLine
 10
179.9835356508088
 20
108.6314866403295
 30
0.0
 11
179.9835356508088
 21
108.6314866403295
 31
0.0
  0
LINE
  5
6EC
330
1F
100
AcDbEntity
  8
0
100
AcDbLine
 10
180.3835356508084
 20
94.63218664033002
 30
0.0
 11
179.5835356508091
 21
94.63218664033002
 31
0.0
  0
LINE
  5
6ED
330
1F
100
AcDbEntity
  8
0
100
AcDbLine
 10
180.3835356508084
 20
108.6314866403295
 30
0.0
 11
179.5835356508091
 21
108.6314866403295
 31
0.0
  0
ARC
  5
6EE
330
1F
100
AcDbEntity
  8
0
100
AcDbCircle
 10
180.3835356508084
 20
108.231486640328
 30
0.0
 40
0.4
100
AcDbArc
 50
0.0
 51
90.0
  0
ARC
  5
6EF
330
1F
100
AcDbEntity
  8
0
100
AcDbCircle
 10
179.5835356508091
 20
108.2314866403299
 30
0.0
 40
0.4
100
AcDbArc
 50
90.0
 51
180.0
  0
LINE
  5
6F0
330
1F
100
AcDbEntity
  8
0
100
AcDbLine
 10
199.8335356508091
 20
95.03218664032965
 30
0.0
 11
199.8335356508091
 21
108.231486640328
 31
0.0
  0
ARC
  5
6F1
330
1F
100
AcDbEntity
  8
0
100
AcDbCircle
 10
199.4335356508095
 20
95.03218664032965
 30
0.0
 40
0.4
100
AcDbArc
 50
270.0
 51
0.0
  0
LINE
  5
6F2
330
1F
100
AcDbEntity
  8
0
100
AcDbLine
 10
198.2335356508106
 20
95.03218664032784
 30
0.0
 11
198.2335356508106
 21
108.2314866403299
 31
0.0
  0
ARC
  5
6F3
330
1F
100
AcDbEntity
  8
0
100
AcDbCircle
 10
198.6335356508102
 20
95.03218664032784
 30
0.0
 40
0.4
100
AcDbArc
 50
180.0
 51
270.0
  0
LINE
  5
6F4
330
1F
100
AcDbEntity
  8
0
100
AcDbLine
 10
199.0335356508099
 20
108.6314866403295
 30
0.0
 11
199.0335356508099
 21
108.6314866403295
 31
0.0
  0
LINE
  5
6F5
330
1F
100
AcDbEntity
  8
0
100
AcDbLine
 10
199.4335356508095
 20
94.63218664033002
 30
0.0
 11
198.6335356508102
 21
94.63218664033002
 31
0.0
  0
LINE
  5
6F6
330
1F
100
AcDbEntity
  8
0
100
AcDbLine
 10
199.4335356508095
 20
108.6314866403295
 30
0.0
 11
198.6335356508102
 21
108.6314866403295
 31
0.0
  0
ARC
  5
6F7
330
1F
100
AcDbEntity
  8
0
100
AcDbCircle
 10
199.4335356508095
 20
108.231486640328
 30
0.0
 40
0.4
100
AcDbArc
 50
0.0
 51
90.0
  0
ARC
  5
6F8
330
1F
100
AcDbEntity
  8
0
100
AcDbCircle
 10
198.6335356508102
 20
108.2314866403299
 30
0.0
 40
0.4
100
AcDbArc
 50
90.0
 51
180.0
  0
LINE
  5
6F9
330
1F
100
AcDbEntity
  8
0
100
AcDbLine
 10
218.8835356508089
 20
95.03218664032965
 30
0.0
 11
218.8835356508089
 21
108.231486640328
 31
0.0
  0
ARC
  5
6FA
330
1F
100
AcDbEntity
  8
0
100
AcDbCircle
 10
218.4835356508092
 20
95.03218664032965
 30
0.0
 40
0.4
100
AcDbArc
 50
270.0
 51
0.0
  0
LINE
  5
6FB
330
1F
100
AcDbEntity
  8
0
100
AcDbLine
 10
217.2835356508103
 20
95.03218664032784
 30
0.0
 11
217.2835356508103
 21
108.2314866403299
 31
0.0
  0
ARC
  5
6FC
330
1F
100
AcDbEntity
  8
0
100
AcDbCircle
 10
217.68353565081
 20
95.03218664032784
 30
0.0
 40
0.4
100
AcDbArc
 50
180.0
 51
270.0
  0
LINE
  5
6FD
330
1F
100
AcDbEntity
  8
0
100
AcDbLine
 10
218.0835356508096
 20
108.6314866403295
 30
0.0
 11
218.0835356508096
 21
108.6314866403295
 31
0.0
  0
LINE
  5
6FE
330
1F
100
AcDbEntity
  8
0
100
AcDbLine
 10
218.4835356508092
 20
94.63218664033002
 30
0.0
 11
217.68353565081
 21
94.63218664033002
 31
0.0
  0
LINE
  5
6FF
330
1F
100
AcDbEntity
  8
0
100
AcDbLine
 10
218.4835356508092
 20
108.6314866403295
 30
0.0
 11
217.68353565081
 21
108.6314866403295
 31
0.0
  0
ARC
  5
700
330
1F
100
AcDbEntity
  8
0
100
AcDbCircle
 10
218.4835356508092
 20
108.231486640328
 30
0.0
 40
0.4
100
AcDbArc
 50
0.0
 51
90.0
  0
ARC
  5
701
330
1F
100
AcDbEntity
  8
0
100
AcDbCircle
 10
217.68353565081
 20
108.2314866403299
 30
0.0
 40
0.4
100
AcDbArc
 50
90.0
 51
180.0
  0
LINE
  5
702
330
1F
100
AcDbEntity
  8
0
100
AcDbLine
 10
237.9335356508081
 20
95.03218664032965
 30
0.0
 11
237.9335356508081
 21
108.231486640328
 31
0.0
  0
ARC
  5
703
330
1F
100
AcDbEntity
  8
0
100
AcDbCircle
 10
237.5335356508085
 20
95.03218664032965
 30
0.0
 40
0.4
100
AcDbArc
 50
270.0
 51
0.0
  0
LINE
  5
704
330
1F
100
AcDbEntity
  8
0
100
AcDbLine
 10
236.3335356508096
 20
95.03218664032784
 30
0.0
 11
236.3335356508096
 21
108.2314866403299
 31
0.0
  0
ARC
  5
705
330
1F
100
AcDbEntity
  8
0
100
AcDbCircle
 10
236.7335356508093
 20
95.03218664032784
 30
0.0
 40
0.4
100
AcDbArc
 50
180.0
 51
270.0
  0
LINE
  5
706
330
1F
100
AcDbEntity
  8
0
100
AcDbLine
 10
237.1335356508089
 20
108.6314866403295
 30
0.0
 11
237.1335356508089
 21
108.6314866403295
 31
0.0
  0
LINE
  5
707
330
1F
100
AcDbEntity
  8
0
100
AcDbLine
 10
237.5335356508085
 20
94.63218664033002
 30
0.0
 11
236.7335356508093
 21
94.63218664033002
 31
0.0
  0
LINE
  5
708
330
1F
100
AcDbEntity
  8
0
100
AcDbLine
 10
237.5335356508085
 20
108.6314866403295
 30
0.0
 11
236.7335356508093
 21
108.6314866403295
 31
0.0
  0
ARC
  5
709
330
1F
100
AcDbEntity
  8
0
100
AcDbCircle
 10
237.5335356508085
 20
108.231486640328
 30
0.0
 40
0.4
100
AcDbArc
 50
0.0
 51
90.0
  0
ARC
  5
70A
330
1F
100
AcDbEntity
  8
0
100
AcDbCircle
 10
236.7335356508093
 20
108.2314866403299
 30
0.0
 40
0.4
100
AcDbArc
 50
90.0
 51
180.0
  0
LINE
  5
70B
330
1F
100
AcDbEntity
  8
0
100
AcDbLine
 10
235.5515356508085
 20
75.98228664032944
 30
0.0
 11
235.5515356508085
 21
89.18158664032786
 31
0.0
  0
ARC
  5
70C
330
1F
100
AcDbEntity
  8
0
100
AcDbCircle
 10
235.1515356508089
 20
75.98228664032944
 30
0.0
 40
0.4
100
AcDbArc
 50
270.0
 51
0.0
  0
LINE
  5
70D
330
1F
100
AcDbEntity
  8
0
100
AcDbLine
 10
233.95153565081
 20
75.98228664032763
 30
0.0
 11
233.95153565081
 21
89.18158664032967
 31
0.0
  0
ARC
  5
70E
330
1F
100
AcDbEntity
  8
0
100
AcDbCircle
 10
234.3515356508096
 20
75.98228664032763
 30
0.0
 40
0.4
100
AcDbArc
 50
180.0
 51
270.0
  0
LINE
  5
70F
330
1F
100
AcDbEntity
  8
0
100
AcDbLine
 10
234.7515356508093
 20
89.5815866403293
 30
0.0
 11
234.7515356508093
 21
89.5815866403293
 31
0.0
  0
LINE
  5
710
330
1F
100
AcDbEntity
  8
0
100
AcDbLine
 10
235.1515356508089
 20
75.58228664032981
 30
0.0
 11
234.3515356508096
 21
75.58228664032981
 31
0.0
  0
LINE
  5
711
330
1F
100
AcDbEntity
  8
0
100
AcDbLine
 10
235.1515356508089
 20
89.5815866403293
 30
0.0
 11
234.3515356508096
 21
89.5815866403293
 31
0.0
  0
ARC
  5
712
330
1F
100
AcDbEntity
  8
0
100
AcDbCircle
 10
235.1515356508089
 20
89.18158664032786
 30
0.0
 40
0.4
100
AcDbArc
 50
0.0
 51
90.0
  0
ARC
  5
713
330
1F
100
AcDbEntity
  8
0
100
AcDbCircle
 10
234.3515356508096
 20
89.18158664032967
 30
0.0
 40
0.4
100
AcDbArc
 50
90.0
 51
180.0
  0
LINE
  5
714
330
1F
100
AcDbEntity
  8
0
100
AcDbLine
 10
95.05803565080805
 20
75.98228664032944
 30
0.0
 11
95.05803565080805
 21
89.18158664032786
 31
0.0
  0
ARC
  5
715
330
1F
100
AcDbEntity
  8
0
100
AcDbCircle
 10
94.65803565080841
 20
75.98228664032944
 30
0.0
 40
0.4
100
AcDbArc
 50
270.0
 51
0.0
  0
LINE
  5
716
330
1F
100
AcDbEntity
  8
0
100
AcDbLine
 10
93.45803565080951
 20
75.98228664032763
 30
0.0
 11
93.45803565080951
 21
89.18158664032967
 31
0.0
  0
ARC
  5
717
330
1F
100
AcDbEntity
  8
0
100
AcDbCircle
 10
93.85803565080914
 20
75.98228664032763
 30
0.0
 40
0.4
100
AcDbArc
 50
180.0
 51
270.0
  0
LINE
  5
718
330
1F
100
AcDbEntity
  8
0
100
AcDbLine
 10
94.25803565080878
 20
89.5815866403293
 30
0.0
 11
94.25803565080878
 21
89.5815866403293
 31
0.0
  0
LINE
  5
719
330
1F
100
AcDbEntity
  8
0
100
AcDbLine
 10
94.65803565080841
 20
75.58228664032981
 30
0.0
 11
93.85803565080914
 21
75.58228664032981
 31
0.0
  0
LINE
  5
71A
330
1F
100
AcDbEntity
  8
0
100
AcDbLine
 10
94.65803565080841
 20
89.5815866403293
 30
0.0
 11
93.85803565080914
 21
89.5815866403293
 31
0.0
  0
ARC
  5
71B
330
1F
100
AcDbEntity
  8
0
100
AcDbCircle
 10
94.65803565080841
 20
89.18158664032786
 30
0.0
 40
0.4
100
AcDbArc
 50
0.0
 51
90.0
  0
ARC
  5
71C
330
1F
100
AcDbEntity
  8
0
100
AcDbCircle
 10
93.85803565080914
 20
89.18158664032967
 30
0.0
 40
0.4
100
AcDbArc
 50
90.0
 51
180.0
  0
LINE
  5
71D
330
1F
100
AcDbEntity
  8
0
100
AcDbLine
 10
72.02693565080972
 20
75.98228664032763
 30
0.0
 11
72.02693565080972
 21
89.18158664032967
 31
0.0
  0
ARC
  5
71E
330
1F
100
AcDbEntity
  8
0
100
AcDbCircle
 10
72.42693565080935
 20
75.98228664032763
 30
0.0
 40
0.4
100
AcDbArc
 50
180.0
 51
270.0
  0
LINE
  5
71F
330
1F
100
AcDbEntity
  8
0
100
AcDbLine
 10
72.82693565080899
 20
89.5815866403293
 30
0.0
 11
72.82693565080899
 21
89.5815866403293
 31
0.0
  0
LINE
  5
720
330
1F
100
AcDbEntity
  8
0
100
AcDbLine
 10
75.60803565080823
 20
75.58228664032935
 30
0.0
 11
72.42693565080935
 21
75.58228664032981
 31
0.0
  0
LINE
  5
721
330
1F
100
AcDbEntity
  8
0
100
AcDbLine
 10
75.60803565080823
 20
89.58158664032794
 30
0.0
 11
72.42693565080935
 21
89.5815866403293
 31
0.0
  0
ARC
  5
722
330
1F
100
AcDbEntity
  8
0
100
AcDbCircle
 10
72.42693565080935
 20
89.18158664032967
 30
0.0
 40
0.4
100
AcDbArc
 50
90.0
 51
180.0
  0
LINE
  5
723
330
1F
100
AcDbEntity
  8
0
100
AcDbLine
 10
76.00803565080787
 20
75.98228664032944
 30
0.0
 11
76.00803565080787
 21
89.18158664032786
 31
0.0
  0
ARC
  5
724
330
1F
100
AcDbEntity
  8
0
100
AcDbCircle
 10
75.60803565080823
 20
75.98228664032944
 30
0.0
 40
0.4
100
AcDbArc
 50
270.0
 51
0.0
  0
ARC
  5
725
330
1F
100
AcDbEntity
  8
0
100
AcDbCircle
 10
75.60803565080823
 20
89.18158664032786
 30
0.0
 40
0.4
100
AcDbArc
 50
0.0
 51
90.0
  0
LINE
  5
726
330
1F
100
AcDbEntity
  8
0
100
AcDbLine
 10
255.3835356508098
 20
75.98228664032763
 30
0.0
 11
255.3835356508098
 21
89.18158664032967
 31
0.0
  0
ARC
  5
727
330
1F
100
AcDbEntity
  8
0
100
AcDbCircle
 10
255.7835356508094
 20
75.98228664032763
 30
0.0
 40
0.4
100
AcDbArc
 50
180.0
 51
270.0
  0
LINE
  5
728
330
1F
100
AcDbEntity
  8
0
100
AcDbLine
 10
256.183535650809
 20
89.5815866403293
 30
0.0
 11
256.183535650809
 21
89.5815866403293
 31
0.0
  0
LINE
  5
729
330
1F
100
AcDbEntity
  8
0
100
AcDbLine
 10
258.9646356508083
 20
75.58228664032935
 30
0.0
 11
255.7835356508094
 21
75.58228664032981
 31
0.0
  0
LINE
  5
72A
330
1F
100
AcDbEntity
  8
0
100
AcDbLine
 10
258.9646356508083
 20
89.58158664032794
 30
0.0
 11
255.7835356508094
 21
89.5815866403293
 31
0.0
  0
ARC
  5
72B
330
1F
100
AcDbEntity
  8
0
100
AcDbCircle
 10
255.7835356508094
 20
89.18158664032967
 30
0.0
 40
0.4
100
AcDbArc
 50
90.0
 51
180.0
  0
LINE
  5
72C
330
1F
100
AcDbEntity
  8
0
100
AcDbLine
 10
259.364635650808
 20
75.98228664032944
 30
0.0
 11
259.364635650808
 21
89.18158664032786
 31
0.0
  0
ARC
  5
72D
330
1F
100
AcDbEntity
  8
0
100
AcDbCircle
 10
258.9646356508083
 20
75.98228664032944
 30
0.0
 40
0.4
100
AcDbArc
 50
270.0
 51
0.0
  0
ARC
  5
72E
330
1F
100
AcDbEntity
  8
0
100
AcDbCircle
 10
258.9646356508083
 20
89.18158664032786
 30
0.0
 40
0.4
100
AcDbArc
 50
0.0
 51
90.0
  0
LINE
  5
72F
330
1F
100
AcDbEntity
  8
0
100
AcDbLine
 10
76.78943565080953
 20
95.03218664032784
 30
0.0
 11
76.78943565080953
 21
108.2314866403299
 31
0.0
  0
ARC
  5
730
330
1F
100
AcDbEntity
  8
0
100
AcDbCircle
 10
77.18943565080917
 20
95.03218664032784
 30
0.0
 40
0.4
100
AcDbArc
 50
180.0
 51
270.0
  0
LINE
  5
731
330
1F
100
AcDbEntity
  8
0
100
AcDbLine
 10
77.58943565080881
 20
108.6314866403295
 30
0.0
 11
77.58943565080881
 21
108.6314866403295
 31
0.0
  0
LINE
  5
732
330
1F
100
AcDbEntity
  8
0
100
AcDbLine
 10
85.13303565080923
 20
94.63218664032956
 30
0.0
 11
77.18943565080917
 21
94.63218664033002
 31
0.0
  0
LINE
  5
733
330
1F
100
AcDbEntity
  8
0
100
AcDbLine
 10
85.13303565080923
 20
108.6314866403281
 30
0.0
 11
77.18943565080917
 21
108.6314866403295
 31
0.0
  0
ARC
  5
734
330
1F
100
AcDbEntity
  8
0
100
AcDbCircle
 10
77.18943565080917
 20
108.2314866403299
 30
0.0
 40
0.4
100
AcDbArc
 50
90.0
 51
180.0
  0
LINE
  5
735
330
1F
100
AcDbEntity
  8
0
100
AcDbLine
 10
85.53303565080886
 20
95.03218664032965
 30
0.0
 11
85.53303565080886
 21
108.231486640328
 31
0.0
  0
ARC
  5
736
330
1F
100
AcDbEntity
  8
0
100
AcDbCircle
 10
85.13303565080923
 20
95.03218664032965
 30
0.0
 40
0.4
100
AcDbArc
 50
270.0
 51
0.0
  0
ARC
  5
737
330
1F
100
AcDbEntity
  8
0
100
AcDbCircle
 10
85.13303565080923
 20
108.231486640328
 30
0.0
 40
0.4
100
AcDbArc
 50
0.0
 51
90.0
  0
LINE
  5
738
330
1F
100
AcDbEntity
  8
0
100
AcDbLine
 10
261.7455356508072
 20
134.5170920497892
 30
0.0
 11
261.7455356508076
 21
146.331486640328
 31
0.0
  0
ARC
  5
739
330
1F
100
AcDbEntity
  8
0
100
AcDbCircle
 10
261.345535650808
 20
134.5170920497892
 30
0.0
 40
0.4
100
AcDbArc
 50
270.0
 51
0.0
  0
LINE
  5
73A
330
1F
100
AcDbEntity
  8
0
100
AcDbLine
 10
260.1455356508091
 20
134.5170920497874
 30
0.0
 11
260.1455356508091
 21
146.3314866403297
 31
0.0
  0
ARC
  5
73B
330
1F
100
AcDbEntity
  8
0
100
AcDbCircle
 10
260.5455356508087
 20
134.5170920497874
 30
0.0
 40
0.4
100
AcDbArc
 50
180.0
 51
270.0
  0
LINE
  5
73C
330
1F
100
AcDbEntity
  8
0
100
AcDbLine
 10
260.9455356508083
 20
146.7314866403294
 30
0.0
 11
260.9455356508083
 21
146.7314866403294
 31
0.0
  0
LINE
  5
73D
330
1F
100
AcDbEntity
  8
0
100
AcDbLine
 10
261.345535650808
 20
134.1170920497895
 30
0.0
 11
260.5455356508087
 21
134.1170920497895
 31
0.0
  0
LINE
  5
73E
330
1F
100
AcDbEntity
  8
0
100
AcDbLine
 10
261.345535650808
 20
146.7314866403294
 30
0.0
 11
260.5455356508087
 21
146.7314866403294
 31
0.0
  0
ARC
  5
73F
330
1F
100
AcDbEntity
  8
0
100
AcDbCircle
 10
261.345535650808
 20
146.331486640328
 30
0.0
 40
0.4
100
AcDbArc
 50
0.0
 51
90.0
  0
ARC
  5
740
330
1F
100
AcDbEntity
  8
0
100
AcDbCircle
 10
260.5455356508087
 20
146.3314866403297
 30
0.0
 40
0.4
100
AcDbArc
 50
90.0
 51
180.0
  0
LINE
  5
741
330
1F
100
AcDbEntity
  8
0
100
AcDbLine
 10
72.02693565080972
 20
114.0821866403275
 30
0.0
 11
72.02693565080972
 21
127.2814866403296
 31
0.0
  0
ARC
  5
742
330
1F
100
AcDbEntity
  8
0
100
AcDbCircle
 10
72.42693565080935
 20
114.0821866403275
 30
0.0
 40
0.4
100
AcDbArc
 50
180.0
 51
270.0
  0
LINE
  5
743
330
1F
100
AcDbEntity
  8
0
100
AcDbLine
 10
72.82693565080899
 20
127.6814866403292
 30
0.0
 11
72.82693565080899
 21
127.6814866403292
 31
0.0
  0
LINE
  5
744
330
1F
100
AcDbEntity
  8
0
100
AcDbLine
 10
75.60803565080823
 20
113.6821866403293
 30
0.0
 11
72.42693565080935
 21
113.6821866403297
 31
0.0
  0
LINE
  5
745
330
1F
100
AcDbEntity
  8
0
100
AcDbLine
 10
75.60803565080823
 20
127.6814866403279
 30
0.0
 11
72.42693565080935
 21
127.6814866403292
 31
0.0
  0
ARC
  5
746
330
1F
100
AcDbEntity
  8
0
100
AcDbCircle
 10
72.42693565080935
 20
127.2814866403296
 30
0.0
 40
0.4
100
AcDbArc
 50
90.0
 51
180.0
  0
LINE
  5
747
330
1F
100
AcDbEntity
  8
0
100
AcDbLine
 10
76.00803565080787
 20
114.0821866403294
 30
0.0
 11
76.00803565080787
 21
127.2814866403278
 31
0.0
  0
ARC
  5
748
330
1F
100
AcDbEntity
  8
0
100
AcDbCircle
 10
75.60803565080823
 20
114.0821866403294
 30
0.0
 40
0.4
100
AcDbArc
 50
270.0
 51
0.0
  0
ARC
  5
749
330
1F
100
AcDbEntity
  8
0
100
AcDbCircle
 10
75.60803565080823
 20
127.2814866403278
 30
0.0
 40
0.4
100
AcDbArc
 50
0.0
 51
90.0
  0
LINE
  5
74A
330
1F
100
AcDbEntity
  8
0
100
AcDbLine
 10
259.3645356508082
 20
95.03218664032965
 30
0.0
 11
259.3645356508082
 21
108.231486640328
 31
0.0
  0
ARC
  5
74B
330
1F
100
AcDbEntity
  8
0
100
AcDbCircle
 10
258.9645356508086
 20
95.03218664032965
 30
0.0
 40
0.4
100
AcDbArc
 50
270.0
 51
0.0
  0
LINE
  5
74C
330
1F
100
AcDbEntity
  8
0
100
AcDbLine
 10
257.7645356508096
 20
95.03218664032784
 30
0.0
 11
257.7645356508096
 21
108.2314866403299
 31
0.0
  0
ARC
  5
74D
330
1F
100
AcDbEntity
  8
0
100
AcDbCircle
 10
258.1645356508093
 20
95.03218664032784
 30
0.0
 40
0.4
100
AcDbArc
 50
180.0
 51
270.0
  0
LINE
  5
74E
330
1F
100
AcDbEntity
  8
0
100
AcDbLine
 10
258.5645356508089
 20
108.6314866403295
 30
0.0
 11
258.5645356508089
 21
108.6314866403295
 31
0.0
  0
LINE
  5
74F
330
1F
100
AcDbEntity
  8
0
100
AcDbLine
 10
258.9645356508086
 20
94.63218664033002
 30
0.0
 11
258.1645356508093
 21
94.63218664033002
 31
0.0
  0
LINE
  5
750
330
1F
100
AcDbEntity
  8
0
100
AcDbLine
 10
258.9645356508086
 20
108.6314866403295
 30
0.0
 11
258.1645356508093
 21
108.6314866403295
 31
0.0
  0
ARC
  5
751
330
1F
100
AcDbEntity
  8
0
100
AcDbCircle
 10
258.9645356508086
 20
108.231486640328
 30
0.0
 40
0.4
100
AcDbArc
 50
0.0
 51
90.0
  0
ARC
  5
752
330
1F
100
AcDbEntity
  8
0
100
AcDbCircle
 10
258.1645356508093
 20
108.2314866403299
 30
0.0
 40
0.4
100
AcDbArc
 50
90.0
 51
180.0
  0
LINE
  5
753
330
1F
100
AcDbEntity
  8
0
100
AcDbLine
 10
254.6015356508092
 20
114.0821866403294
 30
0.0
 11
254.6015356508092
 21
127.2814866403278
 31
0.0
  0
ARC
  5
754
330
1F
100
AcDbEntity
  8
0
100
AcDbCircle
 10
254.2015356508096
 20
114.0821866403294
 30
0.0
 40
0.4
100
AcDbArc
 50
270.0
 51
0.0
  0
ARC
  5
755
330
1F
100
AcDbEntity
  8
0
100
AcDbCircle
 10
254.2015356508096
 20
127.2814866403278
 30
0.0
 40
0.4
100
AcDbArc
 50
0.0
 51
90.0
  0
LINE
  5
756
330
1F
100
AcDbEntity
  8
0
100
AcDbLine
 10
277.1969106508072
 20
112.083486640329
 30
0.0
 11
54.44831065081189
 21
112.083486640329
 31
0.0
  0
ARC
  5
757
330
1F
100
AcDbEntity
  8
0
100
AcDbCircle
 10
277.1969106508072
 20
111.6834866403294
 30
0.0
 40
0.4
100
AcDbArc
 50
0.0
 51
90.0
  0
LINE
  5
758
330
1F
100
AcDbEntity
  8
0
100
AcDbLine
 10
277.1969106508091
 20
110.4834866403305
 30
0.0
 11
54.44831065081007
 21
110.4834866403305
 31
0.0
  0
ARC
  5
759
330
1F
100
AcDbEntity
  8
0
100
AcDbCircle
 10
277.1969106508091
 20
110.8834866403301
 30
0.0
 40
0.4
100
AcDbArc
 50
270.0
 51
0.0000000001042204
  0
LINE
  5
75A
330
1F
100
AcDbEntity
  8
0
100
AcDbLine
 10
277.5969106508069
 20
111.6834866403294
 30
0.0
 11
277.5969106508069
 21
110.8834866403301
 31
0.0
  0
LINE
  5
75B
330
1F
100
AcDbEntity
  8
0
100
AcDbLine
 10
54.04831065081044
 20
111.2834866403298
 30
0.0
 11
54.04831065081044
 21
111.2834866403298
 31
0.0
  0
LINE
  5
75C
330
1F
100
AcDbEntity
  8
0
100
AcDbLine
 10
54.04831065081044
 20
111.6834866403294
 30
0.0
 11
54.04831065081044
 21
110.8834866403301
 31
0.0
  0
ARC
  5
75D
330
1F
100
AcDbEntity
  8
0
100
AcDbCircle
 10
54.44831065081189
 20
111.6834866403294
 30
0.0
 40
0.4
100
AcDbArc
 50
90.0
 51
180.0
  0
ARC
  5
75E
330
1F
100
AcDbEntity
  8
0
100
AcDbCircle
 10
54.44831065081007
 20
110.8834866403301
 30
0.0
 40
0.4
100
AcDbArc
 50
180.0
 51
270.0
  0
LINE
  5
75F
330
1F
100
AcDbEntity
  8
0
100
AcDbLine
 10
277.1966106508076
 20
93.03348664033023
 30
0.0
 11
263.9973106508092
 21
93.03348664033023
 31
0.0
  0
ARC
  5
760
330
1F
100
AcDbEntity
  8
0
100
AcDbCircle
 10
277.1966106508076
 20
92.63348664033243
 30
0.0
 40
0.4
100
AcDbArc
 50
0.0
 51
90.0
  0
LINE
  5
761
330
1F
100
AcDbEntity
  8
0
100
AcDbLine
 10
277.1966106508094
 20
91.43348664033169
 30
0.0
 11
263.9973106508073
 21
91.43348664033169
 31
0.0
  0
ARC
  5
762
330
1F
100
AcDbEntity
  8
0
100
AcDbCircle
 10
277.1966106508094
 20
91.83348664033315
 30
0.0
 40
0.4
100
AcDbArc
 50
270.0
 51
0.0000000001042204
  0
LINE
  5
763
330
1F
100
AcDbEntity
  8
0
100
AcDbLine
 10
263.5973106508077
 20
92.23348664033096
 30
0.0
 11
263.5973106508077
 21
92.23348664033096
 31
0.0
  0
LINE
  5
764
330
1F
100
AcDbEntity
  8
0
100
AcDbLine
 10
277.5966106508072
 20
92.63348664033243
 30
0.0
 11
277.5966106508072
 21
91.83348664033315
 31
0.0
  0
LINE
  5
765
330
1F
100
AcDbEntity
  8
0
100
AcDbLine
 10
263.5973106508077
 20
92.63348664033243
 30
0.0
 11
263.5973106508077
 21
91.83348664033315
 31
0.0
  0
ARC
  5
766
330
1F
100
AcDbEntity
  8
0
100
AcDbCircle
 10
263.9973106508092
 20
92.63348664033243
 30
0.0
 40
0.4
100
AcDbArc
 50
90.0
 51
180.0
  0
ARC
  5
767
330
1F
100
AcDbEntity
  8
0
100
AcDbCircle
 10
263.9973106508073
 20
91.83348664033315
 30
0.0
 40
0.4
100
AcDbArc
 50
180.0
 51
270.0
  0
LINE
  5
768
330
1F
100
AcDbEntity
  8
0
100
AcDbLine
 10
228.4259242432999
 20
93.03348664033228
 30
0.0
 11
258.1473106508106
 21
93.03348664033023
 31
0.0
  0
LINE
  5
769
330
1F
100
AcDbEntity
  8
0
100
AcDbLine
 10
228.4259242432972
 20
91.43348664033283
 30
0.0
 11
258.1473106508124
 21
91.43348664033169
 31
0.0
  0
LINE
  5
76A
330
1F
100
AcDbEntity
  8
0
100
AcDbLine
 10
68.04731065081205
 20
92.23348664033096
 30
0.0
 11
68.04731065081205
 21
92.23348664033096
 31
0.0
  0
LINE
  5
76B
330
1F
100
AcDbEntity
  8
0
100
AcDbLine
 10
68.04731065081205
 20
92.63348664033243
 30
0.0
 11
68.04731065081205
 21
91.83348664033315
 31
0.0
  0
ARC
  5
76C
330
1F
100
AcDbEntity
  8
0
100
AcDbCircle
 10
67.64731065081059
 20
92.63348664033243
 30
0.0
 40
0.4
100
AcDbArc
 50
0.0
 51
90.0
  0
ARC
  5
76D
330
1F
100
AcDbEntity
  8
0
100
AcDbCircle
 10
67.64731065081242
 20
91.83348664033315
 30
0.0
 40
0.4
100
AcDbArc
 50
270.0
 51
0.0
  0
LINE
  5
76E
330
1F
100
AcDbEntity
  8
0
100
AcDbLine
 10
67.64731065081059
 20
93.03348664033023
 30
0.0
 11
54.44801065081219
 21
93.03348664033023
 31
0.0
  0
LINE
  5
76F
330
1F
100
AcDbEntity
  8
0
100
AcDbLine
 10
67.64731065081242
 20
91.43348664033169
 30
0.0
 11
54.44801065081037
 21
91.43348664033169
 31
0.0
  0
LINE
  5
770
330
1F
100
AcDbEntity
  8
0
100
AcDbLine
 10
54.04801065081073
 20
92.23348664033096
 30
0.0
 11
54.04801065081073
 21
92.23348664033096
 31
0.0
  0
LINE
  5
771
330
1F
100
AcDbEntity
  8
0
100
AcDbLine
 10
54.04801065081073
 20
92.63348664033243
 30
0.0
 11
54.04801065081073
 21
91.83348664033315
 31
0.0
  0
ARC
  5
772
330
1F
100
AcDbEntity
  8
0
100
AcDbCircle
 10
54.44801065081219
 20
92.63348664033243
 30
0.0
 40
0.4
100
AcDbArc
 50
90.0
 51
180.0
  0
ARC
  5
773
330
1F
100
AcDbEntity
  8
0
100
AcDbCircle
 10
54.44801065081037
 20
91.83348664033315
 30
0.0
 40
0.4
100
AcDbArc
 50
180.0
 51
270.0
  0
LINE
  5
774
330
1F
100
AcDbEntity
  8
0
100
AcDbLine
 10
277.1966106508076
 20
131.1334866403301
 30
0.0
 11
263.9973106508092
 21
131.1334866403301
 31
0.0
  0
ARC
  5
775
330
1F
100
AcDbEntity
  8
0
100
AcDbCircle
 10
277.1966106508076
 20
130.7334866403323
 30
0.0
 40
0.4
100
AcDbArc
 50
0.0
 51
90.0
  0
LINE
  5
776
330
1F
100
AcDbEntity
  8
0
100
AcDbLine
 10
277.1966106508094
 20
129.5334866403316
 30
0.0
 11
263.9973106508073
 21
129.5334866403316
 31
0.0
  0
ARC
  5
777
330
1F
100
AcDbEntity
  8
0
100
AcDbCircle
 10
277.1966106508094
 20
129.933486640333
 30
0.0
 40
0.4
100
AcDbArc
 50
270.0
 51
0.0000000001042204
  0
LINE
  5
778
330
1F
100
AcDbEntity
  8
0
100
AcDbLine
 10
263.5973106508077
 20
130.3334866403309
 30
0.0
 11
263.5973106508077
 21
130.3334866403309
 31
0.0
  0
LINE
  5
779
330
1F
100
AcDbEntity
  8
0
100
AcDbLine
 10
277.5966106508072
 20
130.7334866403323
 30
0.0
 11
277.5966106508072
 21
129.933486640333
 31
0.0
  0
LINE
  5
77A
330
1F
100
AcDbEntity
  8
0
100
AcDbLine
 10
263.5973106508077
 20
130.7334866403323
 30
0.0
 11
263.5973106508077
 21
129.933486640333
 31
0.0
  0
ARC
  5
77B
330
1F
100
AcDbEntity
  8
0
100
AcDbCircle
 10
263.9973106508092
 20
130.7334866403323
 30
0.0
 40
0.4
100
AcDbArc
 50
90.0
 51
180.0
  0
ARC
  5
77C
330
1F
100
AcDbEntity
  8
0
100
AcDbCircle
 10
263.9973106508073
 20
129.933486640333
 30
0.0
 40
0.4
100
AcDbArc
 50
180.0
 51
270.0
  0
LINE
  5
77D
330
1F
100
AcDbEntity
  8
0
100
AcDbLine
 10
168.7473106508091
 20
131.1334866403301
 30
0.0
 11
258.1473106508106
 21
131.1334866403301
 31
0.0
  0
LINE
  5
77E
330
1F
100
AcDbEntity
  8
0
100
AcDbLine
 10
168.7473106508073
 20
129.5334866403316
 30
0.0
 11
258.1473106508124
 21
129.5334866403316
 31
0.0
  0
LINE
  5
77F
330
1F
100
AcDbEntity
  8
0
100
AcDbLine
 10
168.3473106508077
 20
130.3334866403309
 30
0.0
 11
168.3473106508077
 21
130.3334866403309
 31
0.0
  0
LINE
  5
780
330
1F
100
AcDbEntity
  8
0
100
AcDbLine
 10
168.3473106508077
 20
130.7334866403323
 30
0.0
 11
168.3473106508077
 21
129.933486640333
 31
0.0
  0
ARC
  5
781
330
1F
100
AcDbEntity
  8
0
100
AcDbCircle
 10
168.7473106508091
 20
130.7334866403323
 30
0.0
 40
0.4
100
AcDbArc
 50
90.0
 51
180.0
  0
ARC
  5
782
330
1F
100
AcDbEntity
  8
0
100
AcDbCircle
 10
168.7473106508073
 20
129.933486640333
 30
0.0
 40
0.4
100
AcDbArc
 50
180.0
 51
270.0
  0
LINE
  5
783
330
1F
100
AcDbEntity
  8
0
100
AcDbLine
 10
73.49731065080914
 20
131.1334866403301
 30
0.0
 11
162.8973106508106
 21
131.1334866403301
 31
0.0
  0
LINE
  5
784
330
1F
100
AcDbEntity
  8
0
100
AcDbLine
 10
73.49731065080732
 20
129.5334866403316
 30
0.0
 11
162.8973106508124
 21
129.5334866403316
 31
0.0
  0
ARC
  5
785
330
1F
100
AcDbEntity
  8
0
100
AcDbCircle
 10
162.8973106508106
 20
130.7334866403323
 30
0.0
 40
0.4
100
AcDbArc
 50
0.0
 51
90.0
  0
ARC
  5
786
330
1F
100
AcDbEntity
  8
0
100
AcDbCircle
 10
162.8973106508124
 20
129.933486640333
 30
0.0
 40
0.4
100
AcDbArc
 50
270.0
 51
0.0
  0
ARC
  5
787
330
1F
100
AcDbEntity
  8
0
100
AcDbCircle
 10
73.49731065080914
 20
130.7334866403323
 30
0.0
 40
0.4
100
AcDbArc
 50
90.0
 51
180.0
  0
ARC
  5
788
330
1F
100
AcDbEntity
  8
0
100
AcDbCircle
 10
73.49731065080732
 20
129.933486640333
 30
0.0
 40
0.4
100
AcDbArc
 50
180.0
 51
270.0
  0
LINE
  5
789
330
1F
100
AcDbEntity
  8
0
100
AcDbLine
 10
73.09731065080905
 20
130.7334866403323
 30
0.0
 11
73.09731065080723
 21
129.9334866403339
 31
0.0
  0
LINE
  5
78A
330
1F
100
AcDbEntity
  8
0
100
AcDbLine
 10
272.0515356508104
 20
114.0821866403275
 30
0.0
 11
272.0515356508104
 21
127.2814866403296
 31
0.0
  0
ARC
  5
78B
330
1F
100
AcDbEntity
  8
0
100
AcDbCircle
 10
272.45153565081
 20
114.0821866403275
 30
0.0
 40
0.4
100
AcDbArc
 50
180.0
 51
270.0
  0
LINE
  5
78C
330
1F
100
AcDbEntity
  8
0
100
AcDbLine
 10
272.8515356508097
 20
127.6814866403292
 30
0.0
 11
272.8515356508097
 21
127.6814866403292
 31
0.0
  0
LINE
  5
78D
330
1F
100
AcDbEntity
  8
0
100
AcDbLine
 10
277.0701856508094
 20
113.682186640329
 30
0.0
 11
272.45153565081
 21
113.6821866403297
 31
0.0
  0
LINE
  5
78E
330
1F
100
AcDbEntity
  8
0
100
AcDbLine
 10
277.0701856508094
 20
127.6814866403276
 30
0.0
 11
272.45153565081
 21
127.6814866403292
 31
0.0
  0
ARC
  5
78F
330
1F
100
AcDbEntity
  8
0
100
AcDbCircle
 10
272.45153565081
 20
127.2814866403296
 30
0.0
 40
0.4
100
AcDbArc
 50
90.0
 51
180.0
  0
LINE
  5
790
330
1F
100
AcDbEntity
  8
0
100
AcDbLine
 10
277.4701856508091
 20
114.0821866403291
 30
0.0
 11
277.4701856508091
 21
127.2814866403275
 31
0.0
  0
ARC
  5
791
330
1F
100
AcDbEntity
  8
0
100
AcDbCircle
 10
277.0701856508094
 20
114.0821866403291
 30
0.0
 40
0.4
100
AcDbArc
 50
270.0
 51
0.0
  0
ARC
  5
792
330
1F
100
AcDbEntity
  8
0
100
AcDbCircle
 10
277.0701856508094
 20
127.2814866403275
 30
0.0
 40
0.4
100
AcDbArc
 50
0.0
 51
90.0
  0
LINE
  5
793
330
1F
100
AcDbEntity
  8
0
100
AcDbLine
 10
54.0480106508112
 20
95.03218664032942
 30
0.0
 11
54.0480106508112
 21
108.2314866403314
 31
0.0
  0
ARC
  5
794
330
1F
100
AcDbEntity
  8
0
100
AcDbCircle
 10
54.44801065081083
 20
95.03218664032942
 30
0.0
 40
0.4
100
AcDbArc
 50
180.0
 51
270.0
  0
LINE
  5
795
330
1F
100
AcDbEntity
  8
0
100
AcDbLine
 10
54.84801065081047
 20
108.6314866403311
 30
0.0
 11
54.84801065081047
 21
108.6314866403311
 31
0.0
  0
LINE
  5
796
330
1F
100
AcDbEntity
  8
0
100
AcDbLine
 10
59.06666065081026
 20
94.63218664033092
 30
0.0
 11
54.44801065081083
 21
94.63218664033162
 31
0.0
  0
LINE
  5
797
330
1F
100
AcDbEntity
  8
0
100
AcDbLine
 10
59.06666065081026
 20
108.6314866403295
 30
0.0
 11
54.44801065081083
 21
108.6314866403311
 31
0.0
  0
ARC
  5
798
330
1F
100
AcDbEntity
  8
0
100
AcDbCircle
 10
54.44801065081083
 20
108.2314866403314
 30
0.0
 40
0.4
100
AcDbArc
 50
90.0
 51
180.0
  0
LINE
  5
799
330
1F
100
AcDbEntity
  8
0
100
AcDbLine
 10
59.46666065080989
 20
95.03218664033102
 30
0.0
 11
59.46666065080989
 21
108.2314866403294
 31
0.0
  0
ARC
  5
79A
330
1F
100
AcDbEntity
  8
0
100
AcDbCircle
 10
59.06666065081026
 20
95.03218664033102
 30
0.0
 40
0.4
100
AcDbArc
 50
270.0
 51
0.0
  0
ARC
  5
79B
330
1F
100
AcDbEntity
  8
0
100
AcDbCircle
 10
59.06666065081026
 20
108.2314866403294
 30
0.0
 40
0.4
100
AcDbArc
 50
0.0
 51
90.0
  0
ARC
  5
79C
330
1F
100
AcDbEntity
  8
0
100
AcDbCircle
 10
258.1473106508106
 20
92.63348664033015
 30
0.0
 40
0.4
100
AcDbArc
 50
0.0
 51
90.0
  0
ARC
  5
79D
330
1F
100
AcDbEntity
  8
0
100
AcDbCircle
 10
258.1473106508124
 20
91.83348664033088
 30
0.0
 40
0.4
100
AcDbArc
 50
270.0
 51
0.0000000001042204
  0
LINE
  5
79E
330
1F
100
AcDbEntity
  8
0
100
AcDbLine
 10
258.5473106508102
 20
92.63348664033015
 30
0.0
 11
258.5473106508102
 21
91.83348664033088
 31
0.0
  0
LINE
  5
79F
330
1F
100
AcDbEntity
  8
0
100
AcDbLine
 10
228.0259242432976
 20
92.23348664033073
 30
0.0
 11
228.0259242432976
 21
92.23348664033073
 31
0.0
  0
LINE
  5
7A0
330
1F
100
AcDbEntity
  8
0
100
AcDbLine
 10
228.0259242432976
 20
92.6334866403322
 30
0.0
 11
228.0259242432976
 21
91.83348664033292
 31
0.0
  0
ARC
  5
7A1
330
1F
100
AcDbEntity
  8
0
100
AcDbCircle
 10
228.4259242432991
 20
92.6334866403322
 30
0.0
 40
0.4
100
AcDbArc
 50
90.0
 51
180.0
  0
ARC
  5
7A2
330
1F
100
AcDbEntity
  8
0
100
AcDbCircle
 10
228.4259242432972
 20
91.83348664033292
 30
0.0
 40
0.4
100
AcDbArc
 50
180.0
 51
270.0
  0
ARC
  5
7A3
330
1F
100
AcDbEntity
  8
0
100
AcDbCircle
 10
73.49731065080914
 20
92.63348664033243
 30
0.0
 40
0.4
100
AcDbArc
 50
90.0
 51
180.0
  0
ARC
  5
7A4
330
1F
100
AcDbEntity
  8
0
100
AcDbCircle
 10
73.49731065080732
 20
91.83348664033315
 30
0.0
 40
0.4
100
AcDbArc
 50
180.0
 51
270.0
  0
LINE
  5
7A5
330
1F
100
AcDbEntity
  8
0
100
AcDbLine
 10
73.09731065080905
 20
92.63348664033243
 30
0.0
 11
73.09731065080723
 21
91.83348664033406
 31
0.0
  0
LINE
  5
7A6
330
1F
100
AcDbEntity
  8
0
100
AcDbLine
 10
73.49731065080914
 20
93.03348664033023
 30
0.0
 11
117.2857644017845
 21
93.0334866403307
 31
0.0
  0
LINE
  5
7A7
330
1F
100
AcDbEntity
  8
0
100
AcDbLine
 10
73.49731065080732
 20
91.43348664033192
 30
0.0
 11
117.2889763652638
 21
91.43349953371808
 31
0.0
  0
ARC
  5
7A8
330
1F
100
AcDbEntity
  8
0
100
AcDbCircle
 10
117.2889760280045
 20
92.6334995337172
 30
0.0
 40
0.4
100
AcDbArc
 50
0.0
 51
90.0
  0
ARC
  5
7A9
330
1F
100
AcDbEntity
  8
0
100
AcDbCircle
 10
117.2889760280063
 20
91.83349953371793
 30
0.0
 40
0.4
100
AcDbArc
 50
270.0
 51
0.0000000001042204
  0
LINE
  5
7AA
330
1F
100
AcDbEntity
  8
0
100
AcDbLine
 10
117.6889760280041
 20
92.6334995337172
 30
0.0
 11
117.6889760280041
 21
91.83349953371793
 31
0.0
  0
LINE
  5
7AB
330
1F
100
AcDbEntity
  8
0
100
AcDbLine
 10
116.4893356508082
 20
75.98228664032944
 30
0.0
 11
116.4893356508082
 21
89.18158664032786
 31
0.0
  0
ARC
  5
7AC
330
1F
100
AcDbEntity
  8
0
100
AcDbCircle
 10
116.0893356508086
 20
75.98228664032944
 30
0.0
 40
0.4
100
AcDbArc
 50
270.0
 51
0.0
  0
LINE
  5
7AD
330
1F
100
AcDbEntity
  8
0
100
AcDbLine
 10
114.8893356508097
 20
75.98228664032763
 30
0.0
 11
114.8893356508097
 21
89.18158664032967
 31
0.0
  0
ARC
  5
7AE
330
1F
100
AcDbEntity
  8
0
100
AcDbCircle
 10
115.2893356508093
 20
75.98228664032763
 30
0.0
 40
0.4
100
AcDbArc
 50
180.0
 51
270.0
  0
LINE
  5
7AF
330
1F
100
AcDbEntity
  8
0
100
AcDbLine
 10
116.0893356508086
 20
75.58228664032981
 30
0.0
 11
115.2893356508093
 21
75.58228664032981
 31
0.0
  0
ARC
  5
7B0
330
1F
100
AcDbEntity
  8
0
100
AcDbCircle
 10
116.0893356508086
 20
89.18158664032786
 30
0.0
 40
0.4
100
AcDbArc
 50
0.0
 51
90.0
  0
ARC
  5
7B1
330
1F
100
AcDbEntity
  8
0
100
AcDbCircle
 10
115.2893356508093
 20
89.18158664032967
 30
0.0
 40
0.4
100
AcDbArc
 50
90.0
 51
180.0
  0
LINE
  5
7B2
330
1F
100
AcDbEntity
  8
0
100
AcDbLine
 10
115.2893356508093
 20
89.58158664032977
 30
0.0
 11
116.0893356508095
 21
89.58158664032794
 31
0.0
  0
LINE
  5
7B3
330
1F
100
AcDbEntity
  8
0
100
AcDbLine
 10
163.2973106508107
 20
130.7334866403323
 30
0.0
 11
163.2973106508125
 21
129.9334866403339
 31
0.0
  0
ARC
  5
7B4
330
1F
100
AcDbEntity
  8
0
100
AcDbCircle
 10
258.1473106508106
 20
130.73348664033
 30
0.0
 40
0.4
100
AcDbArc
 50
0.0
 51
90.0
  0
ARC
  5
7B5
330
1F
100
AcDbEntity
  8
0
100
AcDbCircle
 10
258.1473106508124
 20
129.9334866403308
 30
0.0
 40
0.4
100
AcDbArc
 50
270.0
 51
0.0
  0
LINE
  5
7B6
330
1F
100
AcDbEntity
  8
0
100
AcDbLine
 10
258.5473106508107
 20
130.73348664033
 30
0.0
 11
258.5473106508125
 21
129.9334866403317
 31
0.0
  0
ENDSEC
  0
SECTION
  2
OBJECTS
  0
DICTIONARY
  5
C
330
0
100
AcDbDictionary
281
     1
  3
ACAD_COLOR
350
6B
  3
ACAD_GROUP
350
D
  3
ACAD_LAYOUT
350
1A
  3
ACAD_MATERIAL
350
6A
  3
ACAD_MLEADERSTYLE
350
12D
  3
ACAD_MLINESTYLE
350
17
  3
ACAD_PLOTSETTINGS
350
19
  3
ACAD_PLOTSTYLENAME
350
E
  3
ACAD_SCALELIST
350
10C
  3
ACAD_TABLESTYLE
350
7E
  3
ACAD_VISUALSTYLE
350
EF
  3
ACDB_RECOMPOSE_DATA
350
15D
  3
AcDbVariableDictionary
350
5E
  0
DICTIONARY
  5
1B3
330
2
100
AcDbDictionary
280
     1
281
     1
  3
ACAD_LAYERSTATES
360
1B4
  0
DICTIONARY
  5
13C
330
10
100
AcDbDictionary
280
     1
281
     1
  3
ADSK_XREC_LAYER_RECONCILED
360
7B7
  0
DICTIONARY
  5
1B2
330
1B1
100
AcDbDictionary
280
     1
281
     1
  3
ADSK_XREC_LAYER_RECONCILED
360
7B8
  0
DICTIONARY
  5
6B
102
{ACAD_REACTORS
330
C
102
}
330
C
100
AcDbDictionary
281
     1
  0
DICTIONARY
  5
D
102
{ACAD_REACTORS
330
C
102
}
330
C
100
AcDbDictionary
281
     1
  0
DICTIONARY
  5
1A
102
{ACAD_REACTORS
330
C
102
}
330
C
100
AcDbDictionary
281
     1
  3
Model
350
22
  3
1
350
D3
  3
2
350
D7
  0
DICTIONARY
  5
6A
102
{ACAD_REACTORS
330
C
102
}
330
C
100
AcDbDictionary
281
     1
  3
ByBlock
350
ED
  3
ByLayer
350
EC
  3
Global
350
EE
  0
DICTIONARY
  5
12D
102
{ACAD_REACTORS
330
C
102
}
330
C
100
AcDbDictionary
281
     1
  3
Annotative
350
13B
  3
Standard
350
12E
  0
DICTIONARY
  5
17
102
{ACAD_REACTORS
330
C
102
}
330
C
100
AcDbDictionary
281
     1
  3
Standard
350
18
  0
DICTIONARY
  5
19
102
{ACAD_REACTORS
330
C
102
}
330
C
100
AcDbDictionary
281
     1
  0
ACDBDICTIONARYWDFLT
  5
E
102
{ACAD_REACTORS
330
C
102
}
330
C
100
AcDbDictionary
281
     1
  3
Normal
350
F
100
AcDbDictionaryWithDefault
340
F
  0
DICTIONARY
  5
10C
102
{ACAD_REACTORS
330
C
102
}
330
C
100
AcDbDictionary
281
     1
  3
A0
350
10D
  3
A1
350
188
  3
A2
350
189
  3
A3
350
18A
  3
A4
350
18B
  3
A5
350
18C
  3
A6
350
18D
  3
A7
350
18E
  3
A8
350
18F
  3
A9
350
190
  3
B0
350
191
  3
B1
350
192
  3
B2
350
193
  3
B3
350
194
  3
B4
350
195
  3
B5
350
196
  3
B6
350
197
  3
B7
350
198
  3
B8
350
199
  3
B9
350
19A
  3
C0
350
19B
  3
C1
350
19C
  3
C2
350
19D
  3
C3
350
19E
  3
C4
350
19F
  3
C5
350
1A0
  3
C6
350
1A1
  3
C7
350
1A2
  3
C8
350
1A3
  3
C9
350
1A4
  3
D0
350
1A5
  3
D1
350
1A6
  3
D2
350
1A7
  0
DICTIONARY
  5
7E
102
{ACAD_REACTORS
330
C
102
}
330
C
100
AcDbDictionary
281
     1
  3
Standard
350
7F
  0
DICTIONARY
  5
EF
102
{ACAD_REACTORS
330
C
102
}
330
C
100
AcDbDictionary
281
     1
  3
2dWireframe
350
F5
  3
3D Hidden
350
F7
  3
3dWireframe
350
F6
  3
Basic
350
F4
  3
Brighten
350
FB
  3
ColorChange
350
FF
  3
Conceptual
350
F8
  3
Dim
350
FA
  3
Facepattern
350
FE
  3
Flat
350
F0
  3
FlatWithEdges
350
F1
  3
Gouraud
350
F2
  3
GouraudWithEdges
350
F3
  3
Linepattern
350
FD
  3
Realistic
350
F9
  3
Thicken
350
FC
  0
XRECORD
  5
15D
102
{ACAD_REACTORS
330
C
102
}
330
C
100
AcDbXrecord
280
     1
 90
        1
330
7F
  0
DICTIONARY
  5
5E
102
{ACAD_REACTORS
330
C
102
}
330
C
100
AcDbDictionary
281
     1
  3
CANNOSCALE
350
146
  3
CMLEADERSTYLE
350
145
  3
CTABLESTYLE
350
84
  3
DIMASSOC
350
5F
  3
HIDETEXT
350
63
  0
DICTIONARY
  5
1B4
102
{ACAD_REACTORS
330
1B3
102
}
330
1B3
100
AcDbDictionary
281
     1
  0
XRECORD
  5
7B7
102
{ACAD_REACTORS
330
13C
102
}
330
13C
100
AcDbXrecord
280
     1
290
     1
  0
XRECORD
  5
7B8
102
{ACAD_REACTORS
330
1B2
102
}
330
1B2
100
AcDbXrecord
280
     1
290
     1
  0
LAYOUT
  5
22
102
{ACAD_REACTORS
330
1A
102
}
330
1A
100
AcDbPlotSettings
  1

  2
none_device
  4
ISO_A4_(210.00_x_297.00_MM)
  6

 40
7.5
 41
20.0
 42
7.5
 43
20.0
 44
210.0
 45
297.0
 46
11.54999923706054
 47
-13.65000009536743
 48
0.0
 49
0.0
140
0.0
141
0.0
142
1.0
143
8.704084754739808
 70
 11952
 72
     1
 73
     0
 74
     0
  7

 75
     0
147
0.1148885871608098
 76
     0
 77
     2
 78
   300
148
0.0
149
0.0
100
AcDbLayout
  1
Model
 70
     1
 71
     0
 10
0.0
 20
0.0
 11
12.0
 21
9.0
 12
0.0
 22
0.0
 32
0.0
 14
0.0
 24
0.0
 34
0.0
 15
0.0
 25
0.0
 35
0.0
146
0.0
 13
0.0
 23
0.0
 33
0.0
 16
1.0
 26
0.0
 36
0.0
 17
0.0
 27
1.0
 37
0.0
 76
     0
330
1F
331
EA
1001
ACAD_PSEXT
1000
None
1000
None
1000
Not applicable
1000
The layout will not be plotted unless a new plotter configuration name is selected.
1070
     0
  0
LAYOUT
  5
D3
102
{ACAD_REACTORS
330
1A
102
}
330
1A
100
AcDbPlotSettings
  1

  2
C:\Documents and Settings\basas\Application Data\Autodesk\AutoCAD 2005\R16.1\enu\plotters\Default Windows System Printer.pc3
  4

  6

 40
0.0
 41
0.0
 42
0.0
 43
0.0
 44
0.0
 45
0.0
 46
0.0
 47
0.0
 48
0.0
 49
0.0
140
0.0
141
0.0
142
1.0
143
1.0
 70
   688
 72
     0
 73
     0
 74
     5
  7

 75
    16
147
1.0
 76
     0
 77
     2
 78
   300
148
0.0
149
0.0
100
AcDbLayout
  1
1
 70
     1
 71
     1
 10
0.0
 20
0.0
 11
12.0
 21
9.0
 12
0.0
 22
0.0
 32
0.0
 14
0.0
 24
0.0
 34
0.0
 15
0.0
 25
0.0
 35
0.0
146
0.0
 13
0.0
 23
0.0
 33
0.0
 16
1.0
 26
0.0
 36
0.0
 17
0.0
 27
1.0
 37
0.0
 76
     0
330
D2
  0
LAYOUT
  5
D7
102
{ACAD_REACTORS
330
1A
102
}
330
1A
100
AcDbPlotSettings
  1

  2
C:\Documents and Settings\basas\Application Data\Autodesk\AutoCAD 2005\R16.1\enu\plotters\Default Windows System Printer.pc3
  4

  6

 40
0.0
 41
0.0
 42
0.0
 43
0.0
 44
0.0
 45
0.0
 46
0.0
 47
0.0
 48
0.0
 49
0.0
140
0.0
141
0.0
142
1.0
143
1.0
 70
   688
 72
     0
 73
     0
 74
     5
  7

 75
    16
147
1.0
 76
     0
 77
     2
 78
   300
148
0.0
149
0.0
100
AcDbLayout
  1
2
 70
     1
 71
     2
 10
0.0
 20
0.0
 11
12.0
 21
9.0
 12
0.0
 22
0.0
 32
0.0
 14
0.0
 24
0.0
 34
0.0
 15
0.0
 25
0.0
 35
0.0
146
0.0
 13
0.0
 23
0.0
 33
0.0
 16
1.0
 26
0.0
 36
0.0
 17
0.0
 27
1.0
 37
0.0
 76
     0
330
D6
  0
MATERIAL
  5
ED
102
{ACAD_REACTORS
330
6A
102
}
330
6A
100
AcDbMaterial
  1
ByBlock
 94
       63
  0
MATERIAL
  5
EC
102
{ACAD_REACTORS
330
6A
102
}
330
6A
100
AcDbMaterial
  1
ByLayer
 94
       63
  0
MATERIAL
  5
EE
102
{ACAD_XDICTIONARY
360
173
102
}
102
{ACAD_REACTORS
330
6A
102
}
330
6A
100
AcDbMaterial
  1
Global
 43
0.0007999999797903
 43
0.0
 43
0.0
 43
0.0
 43
0.0
 43
0.0007999999797903
 43
0.0
 43
0.0
 43
0.0
 43
0.0
 43
1.0
 43
0.0
 43
0.0
 43
0.0
 43
0.0
 43
1.0
 49
0.0007999999797903
 49
0.0
 49
0.0
 49
0.0
 49
0.0
 49
0.0007999999797903
 49
0.0
 49
0.0
 49
0.0
 49
0.0
 49
1.0
 49
0.0
 49
0.0
 49
0.0
 49
0.0
 49
1.0
142
0.0007999999797903
142
0.0
142
0.0
142
0.0
142
0.0
142
0.0007999999797903
142
0.0
142
0.0
142
0.0
142
0.0
142
1.0
142
0.0
142
0.0
142
0.0
142
0.0
142
1.0
144
0.0007999999797903
144
0.0
144
0.0
144
0.0
144
0.0
144
0.0007999999797903
144
0.0
144
0.0
144
0.0
144
0.0
144
1.0
144
0.0
144
0.0
144
0.0
144
0.0
144
1.0
 94
       63
1001
ACAD
1070
    -1
1070
     3
1070
     0
1000

1071
        0
1070
     0
  0
MLEADERSTYLE
  5
13B
102
{ACAD_REACTORS
330
12D
102
}
330
12D
100
AcDbMLeaderStyle
170
     2
171
     1
172
     0
 90
        2
 40
0.0
 41
0.0
173
     1
 91
-1056964608
340
14
 92
       -2
290
     1
 42
2.0
291
     1
 43
8.0
  3
Standard
 44
4.0
300

342
11
174
     1
178
     1
175
     1
176
     0
 93
-1056964608
 45
4.0
292
     0
297
     0
 46
4.0
 94
-1056964608
 47
1.0
 49
1.0
140
1.0
293
     1
141
0.0
294
     1
177
     0
142
1.0
295
     0
296
     1
143
3.75
1001
ACAD_MLEADERVER
1070
     2
  0
MLEADERSTYLE
  5
12E
102
{ACAD_REACTORS
330
12D
102
}
330
12D
100
AcDbMLeaderStyle
170
     2
171
     1
172
     0
 90
        2
 40
0.0
 41
0.0
173
     1
 91
-1056964608
340
14
 92
       -2
290
     1
 42
2.0
291
     1
 43
8.0
  3
Standard
 44
4.0
300

342
11
174
     1
178
     1
175
     1
176
     0
 93
-1056964608
 45
4.0
292
     0
297
     0
 46
4.0
 94
-1056964608
 47
1.0
 49
1.0
140
1.0
293
     1
141
0.0
294
     1
177
     0
142
1.0
295
     0
296
     0
143
3.75
1001
ACAD_MLEADERVER
1070
     2
  0
MLINESTYLE
  5
18
102
{ACAD_REACTORS
330
17
102
}
330
17
100
AcDbMlineStyle
  2
STANDARD
 70
     0
  3

 62
   256
 51
90.0
 52
90.0
 71
     2
 49
0.5
 62
   256
  6
BYLAYER
 49
-0.5
 62
   256
  6
BYLAYER
  0
ACDBPLACEHOLDER
  5
F
102
{ACAD_REACTORS
330
E
102
}
330
E
  0
SCALE
  5
10D
102
{ACAD_REACTORS
330
10C
102
}
330
10C
100
AcDbScale
 70
     0
300
1:1
140
1.0
141
1.0
290
     1
  0
SCALE
  5
188
102
{ACAD_REACTORS
330
10C
102
}
330
10C
100
AcDbScale
 70
     0
300
1:2
140
1.0
141
2.0
290
     0
  0
SCALE
  5
189
102
{ACAD_REACTORS
330
10C
102
}
330
10C
100
AcDbScale
 70
     0
300
1:4
140
1.0
141
4.0
290
     0
  0
SCALE
  5
18A
102
{ACAD_REACTORS
330
10C
102
}
330
10C
100
AcDbScale
 70
     0
300
1:5
140
1.0
141
5.0
290
     0
  0
SCALE
  5
18B
102
{ACAD_REACTORS
330
10C
102
}
330
10C
100
AcDbScale
 70
     0
300
1:8
140
1.0
141
8.0
290
     0
  0
SCALE
  5
18C
102
{ACAD_REACTORS
330
10C
102
}
330
10C
100
AcDbScale
 70
     0
300
1:10
140
1.0
141
10.0
290
     0
  0
SCALE
  5
18D
102
{ACAD_REACTORS
330
10C
102
}
330
10C
100
AcDbScale
 70
     0
300
1:16
140
1.0
141
16.0
290
     0
  0
SCALE
  5
18E
102
{ACAD_REACTORS
330
10C
102
}
330
10C
100
AcDbScale
 70
     0
300
1:20
140
1.0
141
20.0
290
     0
  0
SCALE
  5
18F
102
{ACAD_REACTORS
330
10C
102
}
330
10C
100
AcDbScale
 70
     0
300
1:30
140
1.0
141
30.0
290
     0
  0
SCALE
  5
190
102
{ACAD_REACTORS
330
10C
102
}
330
10C
100
AcDbScale
 70
     0
300
1:40
140
1.0
141
40.0
290
     0
  0
SCALE
  5
191
102
{ACAD_REACTORS
330
10C
102
}
330
10C
100
AcDbScale
 70
     0
300
1:50
140
1.0
141
50.0
290
     0
  0
SCALE
  5
192
102
{ACAD_REACTORS
330
10C
102
}
330
10C
100
AcDbScale
 70
     0
300
1:100
140
1.0
141
100.0
290
     0
  0
SCALE
  5
193
102
{ACAD_REACTORS
330
10C
102
}
330
10C
100
AcDbScale
 70
     0
300
2:1
140
2.0
141
1.0
290
     0
  0
SCALE
  5
194
102
{ACAD_REACTORS
330
10C
102
}
330
10C
100
AcDbScale
 70
     0
300
4:1
140
4.0
141
1.0
290
     0
  0
SCALE
  5
195
102
{ACAD_REACTORS
330
10C
102
}
330
10C
100
AcDbScale
 70
     0
300
8:1
140
8.0
141
1.0
290
     0
  0
SCALE
  5
196
102
{ACAD_REACTORS
330
10C
102
}
330
10C
100
AcDbScale
 70
     0
300
10:1
140
10.0
141
1.0
290
     0
  0
SCALE
  5
197
102
{ACAD_REACTORS
330
10C
102
}
330
10C
100
AcDbScale
 70
     0
300
100:1
140
100.0
141
1.0
290
     0
  0
SCALE
  5
198
102
{ACAD_REACTORS
330
10C
102
}
330
10C
100
AcDbScale
 70
     0
300
1/128" = 1'-0"
140
0.0078125
141
12.0
290
     0
  0
SCALE
  5
199
102
{ACAD_REACTORS
330
10C
102
}
330
10C
100
AcDbScale
 70
     0
300
1/64" = 1'-0"
140
0.015625
141
12.0
290
     0
  0
SCALE
  5
19A
102
{ACAD_REACTORS
330
10C
102
}
330
10C
100
AcDbScale
 70
     0
300
1/32" = 1'-0"
140
0.03125
141
12.0
290
     0
  0
SCALE
  5
19B
102
{ACAD_REACTORS
330
10C
102
}
330
10C
100
AcDbScale
 70
     0
300
1/16" = 1'-0"
140
0.0625
141
12.0
290
     0
  0
SCALE
  5
19C
102
{ACAD_REACTORS
330
10C
102
}
330
10C
100
AcDbScale
 70
     0
300
3/32" = 1'-0"
140
0.09375
141
12.0
290
     0
  0
SCALE
  5
19D
102
{ACAD_REACTORS
330
10C
102
}
330
10C
100
AcDbScale
 70
     0
300
1/8" = 1'-0"
140
0.125
141
12.0
290
     0
  0
SCALE
  5
19E
102
{ACAD_REACTORS
330
10C
102
}
330
10C
100
AcDbScale
 70
     0
300
3/16" = 1'-0"
140
0.1875
141
12.0
290
     0
  0
SCALE
  5
19F
102
{ACAD_REACTORS
330
10C
102
}
330
10C
100
AcDbScale
 70
     0
300
1/4" = 1'-0"
140
0.25
141
12.0
290
     0
  0
SCALE
  5
1A0
102
{ACAD_REACTORS
330
10C
102
}
330
10C
100
AcDbScale
 70
     0
300
3/8" = 1'-0"
140
0.375
141
12.0
290
     0
  0
SCALE
  5
1A1
102
{ACAD_REACTORS
330
10C
102
}
330
10C
100
AcDbScale
 70
     0
300
1/2" = 1'-0"
140
0.5
141
12.0
290
     0
  0
SCALE
  5
1A2
102
{ACAD_REACTORS
330
10C
102
}
330
10C
100
AcDbScale
 70
     0
300
3/4" = 1'-0"
140
0.75
141
12.0
290
     0
  0
SCALE
  5
1A3
102
{ACAD_REACTORS
330
10C
102
}
330
10C
100
AcDbScale
 70
     0
300
1" = 1'-0"
140
1.0
141
12.0
290
     0
  0
SCALE
  5
1A4
102
{ACAD_REACTORS
330
10C
102
}
330
10C
100
AcDbScale
 70
     0
300
1-1/2" = 1'-0"
140
1.5
141
12.0
290
     0
  0
SCALE
  5
1A5
102
{ACAD_REACTORS
330
10C
102
}
330
10C
100
AcDbScale
 70
     0
300
3" = 1'-0"
140
3.0
141
12.0
290
     0
  0
SCALE
  5
1A6
102
{ACAD_REACTORS
330
10C
102
}
330
10C
100
AcDbScale
 70
     0
300
6" = 1'-0"
140
6.0
141
12.0
290
     0
  0
SCALE
  5
1A7
102
{ACAD_REACTORS
330
10C
102
}
330
10C
100
AcDbScale
 70
     0
300
1'-0" = 1'-0"
140
12.0
141
12.0
290
     0
  0
TABLESTYLE
  5
7F
102
{ACAD_XDICTIONARY
360
162
102
}
102
{ACAD_REACTORS
330
7E
102
}
330
7E
100
AcDbTableStyle
  3
Standard
 70
     0
 71
     0
 40
1.5
 41
1.5
280
     0
281
     0
  7
Standard
140
4.5
170
     2
 62
     0
 63
     7
283
     0
 90
      512
 91
        0
  1

274
    -2
284
     1
 64
     0
275
    -2
285
     1
 65
     0
276
    -2
286
     1
 66
     0
277
    -2
287
     1
 67
     0
278
    -2
288
     1
 68
     0
279
    -2
289
     1
 69
     0
  7
Standard
140
6.0
170
     5
 62
     0
 63
     7
283
     0
 90
      512
 91
        0
  1

274
    -2
284
     1
 64
     0
275
    -2
285
     1
 65
     0
276
    -2
286
     1
 66
     0
277
    -2
287
     1
 67
     0
278
    -2
288
     1
 68
     0
279
    -2
289
     1
 69
     0
  7
Standard
140
4.5
170
     5
 62
     0
 63
     7
283
     0
 90
      512
 91
        0
  1

274
    -2
284
     1
 64
     0
275
    -2
285
     1
 65
     0
276
    -2
286
     1
 66
     0
277
    -2
287
     1
 67
     0
278
    -2
288
     1
 68
     0
279
    -2
289
     1
 69
     0
  0
VISUALSTYLE
  5
F5
102
{ACAD_REACTORS
330
EF
102
}
330
EF
100
AcDbVisualStyle
  2
2dWireframe
 70
     4
 71
     0
 72
     2
 73
     1
 90
        0
 40
-0.6
 41
-30.0
 62
     5
 63
     7
421
 16777215
 74
     1
 91
        4
 64
     7
 65
   257
 75
     1
175
     1
 42
1.0
 92
        0
 66
   257
 43
1.0
 76
     1
 77
     6
 78
     2
 67
     7
 79
     5
170
     0
171
     0
290
     0
174
     0
 93
        1
 44
0.0
173
     0
291
     0
 45
0.0
  0
VISUALSTYLE
  5
F7
102
{ACAD_REACTORS
330
EF
102
}
330
EF
100
AcDbVisualStyle
  2
3D Hidden
 70
     6
 71
     1
 72
     2
 73
     2
 90
        0
 40
-0.6
 41
-30.0
 62
     5
 63
     7
421
 16777215
 74
     2
 91
        2
 64
     7
 65
   257
 75
     2
175
     1
 42
40.0
 92
        0
 66
   257
 43
1.0
 76
     1
 77
     6
 78
     2
 67
     7
 79
     3
170
     0
171
     0
290
     0
174
     0
 93
        1
 44
0.0
173
     0
291
     0
 45
0.0
  0
VISUALSTYLE
  5
F6
102
{ACAD_REACTORS
330
EF
102
}
330
EF
100
AcDbVisualStyle
  2
3dWireframe
 70
     5
 71
     0
 72
     2
 73
     1
 90
        0
 40
-0.6
 41
-30.0
 62
     5
 63
     7
421
 16777215
 74
     1
 91
        4
 64
     7
 65
   257
 75
     1
175
     1
 42
1.0
 92
        0
 66
   257
 43
1.0
 76
     1
 77
     6
 78
     2
 67
     7
 79
     5
170
     0
171
     0
290
     0
174
     0
 93
        1
 44
0.0
173
     0
291
     0
 45
0.0
  0
VISUALSTYLE
  5
F4
102
{ACAD_REACTORS
330
EF
102
}
330
EF
100
AcDbVisualStyle
  2
Basic
 70
     7
 71
     1
 72
     0
 73
     1
 90
        0
 40
-0.6
 41
-30.0
 62
     5
 63
     7
421
 16777215
 74
     0
 91
        4
 64
     7
 65
   257
 75
     1
175
     1
 42
1.0
 92
        8
 66
     7
 43
1.0
 76
     1
 77
     6
 78
     2
 67
     7
 79
     5
170
     0
171
     0
290
     0
174
     0
 93
        1
 44
0.0
173
     0
291
     1
 45
0.0
  0
VISUALSTYLE
  5
FB
102
{ACAD_REACTORS
330
EF
102
}
330
EF
100
AcDbVisualStyle
  2
Brighten
 70
    12
 71
     2
 72
     2
 73
     1
 90
        0
 40
-0.6
 41
-30.0
 62
     5
 63
     7
421
 16777215
 74
     1
 91
        4
 64
     7
 65
   257
 75
     1
175
     1
 42
1.0
 92
        8
 66
     7
 43
1.0
 76
     1
 77
     6
 78
     2
 67
     7
 79
     5
170
     0
171
     0
290
     0
174
     0
 93
        1
 44
50.0
173
     0
291
     1
 45
0.0
  0
VISUALSTYLE
  5
FF
102
{ACAD_REACTORS
330
EF
102
}
330
EF
100
AcDbVisualStyle
  2
ColorChange
 70
    16
 71
     2
 72
     2
 73
     3
 90
        0
 40
-0.6
 41
-30.0
 62
     5
 63
     8
421
  8421504
 74
     1
 91
        4
 64
     7
 65
   257
 75
     1
175
     1
 42
1.0
 92
        8
 66
     8
424
  8421504
 43
1.0
 76
     1
 77
     6
 78
     2
 67
     7
 79
     5
170
     0
171
     0
290
     0
174
     0
 93
        1
 44
0.0
173
     0
291
     1
 45
0.0
  0
VISUALSTYLE
  5
F8
102
{ACAD_REACTORS
330
EF
102
}
330
EF
100
AcDbVisualStyle
  2
Conceptual
 70
     9
 71
     3
 72
     2
 73
     1
 90
        0
 40
-0.6
 41
-30.0
 62
     5
 63
     7
421
 16777215
 74
     2
 91
        2
 64
     7
 65
   257
 75
     1
175
     1
 42
40.0
 92
        8
 66
     7
 43
1.0
 76
     1
 77
     6
 78
     2
 67
     7
 79
     3
170
     0
171
     0
290
     0
174
     0
 93
        1
 44
0.0
173
     0
291
     0
 45
0.0
  0
VISUALSTYLE
  5
FA
102
{ACAD_REACTORS
330
EF
102
}
330
EF
100
AcDbVisualStyle
  2
Dim
 70
    11
 71
     2
 72
     2
 73
     1
 90
        0
 40
-0.6
 41
-30.0
 62
     5
 63
     7
421
 16777215
 74
     1
 91
        4
 64
     7
 65
   257
 75
     1
175
     1
 42
1.0
 92
        8
 66
     7
 43
1.0
 76
     1
 77
     6
 78
     2
 67
     7
 79
     5
170
     0
171
     0
290
     0
174
     0
 93
        1
 44
-50.0
173
     0
291
     1
 45
0.0
  0
VISUALSTYLE
  5
FE
102
{ACAD_REACTORS
330
EF
102
}
330
EF
100
AcDbVisualStyle
  2
Facepattern
 70
    15
 71
     2
 72
     2
 73
     1
 90
        0
 40
-0.6
 41
-30.0
 62
     5
 63
     7
421
 16777215
 74
     1
 91
        4
 64
     7
 65
   257
 75
     1
175
     1
 42
1.0
 92
        8
 66
     7
 43
1.0
 76
     1
 77
     6
 78
     2
 67
     7
 79
     5
170
     0
171
     0
290
     0
174
     0
 93
        1
 44
0.0
173
     0
291
     1
 45
0.0
  0
VISUALSTYLE
  5
F0
102
{ACAD_REACTORS
330
EF
102
}
330
EF
100
AcDbVisualStyle
  2
Flat
 70
     0
 71
     2
 72
     1
 73
     1
 90
        2
 40
-0.6
 41
30.0
 62
     5
 63
     7
421
 16777215
 74
     0
 91
        4
 64
     7
 65
   257
 75
     1
175
     1
 42
1.0
 92
        8
 66
     7
 43
1.0
 76
     1
 77
     6
 78
     2
 67
     7
 79
     5
170
     0
171
     0
290
     0
174
     0
 93
        1
 44
0.0
173
     0
291
     1
 45
0.0
  0
VISUALSTYLE
  5
F1
102
{ACAD_REACTORS
330
EF
102
}
330
EF
100
AcDbVisualStyle
  2
FlatWithEdges
 70
     1
 71
     2
 72
     1
 73
     1
 90
        2
 40
-0.6
 41
30.0
 62
     5
 63
     7
421
 16777215
 74
     1
 91
        4
 64
     7
 65
   257
 75
     1
175
     1
 42
1.0
 92
        0
 66
   257
 43
1.0
 76
     1
 77
     6
 78
     2
 67
     7
 79
     5
170
     0
171
     0
290
     0
174
     0
 93
        1
 44
0.0
173
     0
291
     1
 45
0.0
  0
VISUALSTYLE
  5
F2
102
{ACAD_REACTORS
330
EF
102
}
330
EF
100
AcDbVisualStyle
  2
Gouraud
 70
     2
 71
     2
 72
     2
 73
     1
 90
        2
 40
-0.6
 41
30.0
 62
     5
 63
     7
421
 16777215
 74
     0
 91
        4
 64
     7
 65
   257
 75
     1
175
     1
 42
1.0
 92
        0
 66
     7
 43
1.0
 76
     1
 77
     6
 78
     2
 67
     7
 79
     5
170
     0
171
     0
290
     0
174
     0
 93
        1
 44
0.0
173
     0
291
     1
 45
0.0
  0
VISUALSTYLE
  5
F3
102
{ACAD_REACTORS
330
EF
102
}
330
EF
100
AcDbVisualStyle
  2
GouraudWithEdges
 70
     3
 71
     2
 72
     2
 73
     1
 90
        2
 40
-0.6
 41
30.0
 62
     5
 63
     7
421
 16777215
 74
     1
 91
        4
 64
     7
 65
   257
 75
     1
175
     1
 42
1.0
 92
        0
 66
   257
 43
1.0
 76
     1
 77
     6
 78
     2
 67
     7
 79
     5
170
     0
171
     0
290
     0
174
     0
 93
        1
 44
0.0
173
     0
291
     1
 45
0.0
  0
VISUALSTYLE
  5
FD
102
{ACAD_REACTORS
330
EF
102
}
330
EF
100
AcDbVisualStyle
  2
Linepattern
 70
    14
 71
     2
 72
     2
 73
     1
 90
        0
 40
-0.6
 41
-30.0
 62
     5
 63
     7
421
 16777215
 74
     1
 91
        4
 64
     7
 65
   257
 75
     7
175
     7
 42
1.0
 92
        8
 66
     7
 43
1.0
 76
     1
 77
     6
 78
     2
 67
     7
 79
     5
170
     0
171
     0
290
     0
174
     0
 93
        1
 44
0.0
173
     0
291
     1
 45
0.0
  0
VISUALSTYLE
  5
F9
102
{ACAD_REACTORS
330
EF
102
}
330
EF
100
AcDbVisualStyle
  2
Realistic
 70
     8
 71
     2
 72
     2
 73
     1
 90
        0
 40
-0.6
 41
-30.0
 62
     5
 63
     7
421
 16777215
 74
     1
 91
        0
 64
     7
 65
   257
 75
     1
175
     1
 42
1.0
 92
        8
 66
     8
424
  7895160
 43
1.0
 76
     1
 77
     6
 78
     2
 67
     7
 79
     5
170
     0
171
     0
290
     0
174
     0
 93
       13
 44
0.0
173
     0
291
     0
 45
0.0
  0
VISUALSTYLE
  5
FC
102
{ACAD_REACTORS
330
EF
102
}
330
EF
100
AcDbVisualStyle
  2
Thicken
 70
    13
 71
     2
 72
     2
 73
     1
 90
        0
 40
-0.6
 41
-30.0
 62
     5
 63
     7
421
 16777215
 74
     1
 91
        4
 64
     7
 65
   257
 75
     1
175
     1
 42
1.0
 92
       12
 66
     7
 43
1.0
 76
     1
 77
     6
 78
     2
 67
     7
 79
     5
170
     0
171
     0
290
     0
174
     0
 93
        1
 44
0.0
173
     0
291
     1
 45
0.0
  0
DICTIONARYVAR
  5
146
102
{ACAD_REACTORS
330
5E
102
}
330
5E
100
DictionaryVariables
280
     0
  1
1:1
  0
DICTIONARYVAR
  5
145
102
{ACAD_REACTORS
330
5E
102
}
330
5E
100
DictionaryVariables
280
     0
  1
STANDARD
  0
DICTIONARYVAR
  5
84
102
{ACAD_REACTORS
330
5E
102
}
330
5E
100
DictionaryVariables
280
     0
  1
STANDARD
  0
DICTIONARYVAR
  5
5F
102
{ACAD_REACTORS
330
5E
102
}
330
5E
100
DictionaryVariables
280
     0
  1
2
  0
DICTIONARYVAR
  5
63
102
{ACAD_REACTORS
330
5E
102
}
330
5E
100
DictionaryVariables
280
     0
  1
1
  0
DICTIONARY
  5
173
330
EE
100
AcDbDictionary
280
     1
281
     1
  3
BUMPTILE
360
175
  3
DIFFUSETILE
360
174
  3
OPACITYTILE
360
176
  3
REFLECTIONTILE
360
177
  0
DICTIONARY
  5
162
330
7F
100
AcDbDictionary
280
     1
281
     1
  3
ACAD_ROUNDTRIP_2008_TABLESTYLE_CELLSTYLEMAP
360
7B9
  0
XRECORD
  5
175
102
{ACAD_REACTORS
330
173
102
}
330
173
100
AcDbXrecord
280
     1
270
     1
271
     1
  0
XRECORD
  5
174
102
{ACAD_REACTORS
330
173
102
}
330
173
100
AcDbXrecord
280
     1
270
     1
271
     1
  0
XRECORD
  5
176
102
{ACAD_REACTORS
330
173
102
}
330
173
100
AcDbXrecord
280
     1
270
     1
271
     1
  0
XRECORD
  5
177
102
{ACAD_REACTORS
330
173
102
}
330
173
100
AcDbXrecord
280
     1
270
     1
271
     1
  0
CELLSTYLEMAP
  5
7B9
102
{ACAD_REACTORS
330
162
102
}
330
162
100
AcDbCellStyleMap
 90
        3
300
CELLSTYLE
  1
TABLEFORMAT_BEGIN
 90
        5
170
     1
 91
        0
 92
    32768
 62
   257
 93
        1
300
CONTENTFORMAT
  1
CONTENTFORMAT_BEGIN
 90
        0
 91
        0
 92
      512
 93
        0
300

 40
0.0
140
1.0
 94
        5
 62
     0
340
11
144
6.0
309
CONTENTFORMAT_END
171
     1
301
MARGIN
  1
CELLMARGIN_BEGIN
 40
1.5
 40
1.5
 40
1.5
 40
1.5
 40
4.5
 40
4.5
309
CELLMARGIN_END
 94
        6
 95
        1
302
GRIDFORMAT
  1
GRIDFORMAT_BEGIN
 90
        0
 91
        1
 62
     0
 92
       -2
340
14
 93
        0
 40
1.125
309
GRIDFORMAT_END
 95
        2
302
GRIDFORMAT
  1
GRIDFORMAT_BEGIN
 90
        0
 91
        1
 62
     0
 92
       -2
340
14
 93
        0
 40
1.125
309
GRIDFORMAT_END
 95
        4
302
GRIDFORMAT
  1
GRIDFORMAT_BEGIN
 90
        0
 91
        1
 62
     0
 92
       -2
340
14
 93
        0
 40
1.125
309
GRIDFORMAT_END
 95
        8
302
GRIDFORMAT
  1
GRIDFORMAT_BEGIN
 90
        0
 91
        1
 62
     0
 92
       -2
340
14
 93
        0
 40
1.125
309
GRIDFORMAT_END
 95
       16
302
GRIDFORMAT
  1
GRIDFORMAT_BEGIN
 90
        0
 91
        1
 62
     0
 92
       -2
340
14
 93
        0
 40
1.125
309
GRIDFORMAT_END
 95
       32
302
GRIDFORMAT
  1
GRIDFORMAT_BEGIN
 90
        0
 91
        1
 62
     0
 92
       -2
340
14
 93
        0
 40
1.125
309
GRIDFORMAT_END
309
TABLEFORMAT_END
  1
CELLSTYLE_BEGIN
 90
        1
 91
        1
300
_TITLE
309
CELLSTYLE_END
300
CELLSTYLE
  1
TABLEFORMAT_BEGIN
 90
        5
170
     1
 91
        0
 92
        0
 62
   257
 93
        1
300
CONTENTFORMAT
  1
CONTENTFORMAT_BEGIN
 90
        0
 91
        0
 92
      512
 93
        0
300

 40
0.0
140
1.0
 94
        5
 62
     0
340
11
144
4.5
309
CONTENTFORMAT_END
171
     1
301
MARGIN
  1
CELLMARGIN_BEGIN
 40
1.5
 40
1.5
 40
1.5
 40
1.5
 40
4.5
 40
4.5
309
CELLMARGIN_END
 94
        6
 95
        1
302
GRIDFORMAT
  1
GRIDFORMAT_BEGIN
 90
        0
 91
        1
 62
     0
 92
       -2
340
14
 93
        0
 40
1.125
309
GRIDFORMAT_END
 95
        2
302
GRIDFORMAT
  1
GRIDFORMAT_BEGIN
 90
        0
 91
        1
 62
     0
 92
       -2
340
14
 93
        0
 40
1.125
309
GRIDFORMAT_END
 95
        4
302
GRIDFORMAT
  1
GRIDFORMAT_BEGIN
 90
        0
 91
        1
 62
     0
 92
       -2
340
14
 93
        0
 40
1.125
309
GRIDFORMAT_END
 95
        8
302
GRIDFORMAT
  1
GRIDFORMAT_BEGIN
 90
        0
 91
        1
 62
     0
 92
       -2
340
14
 93
        0
 40
1.125
309
GRIDFORMAT_END
 95
       16
302
GRIDFORMAT
  1
GRIDFORMAT_BEGIN
 90
        0
 91
        1
 62
     0
 92
       -2
340
14
 93
        0
 40
1.125
309
GRIDFORMAT_END
 95
       32
302
GRIDFORMAT
  1
GRIDFORMAT_BEGIN
 90
        0
 91
        1
 62
     0
 92
       -2
340
14
 93
        0
 40
1.125
309
GRIDFORMAT_END
309
TABLEFORMAT_END
  1
CELLSTYLE_BEGIN
 90
        2
 91
        1
300
_HEADER
309
CELLSTYLE_END
300
CELLSTYLE
  1
TABLEFORMAT_BEGIN
 90
        5
170
     1
 91
        0
 92
        0
 62
   257
 93
        1
300
CONTENTFORMAT
  1
CONTENTFORMAT_BEGIN
 90
        0
 91
        0
 92
      512
 93
        0
300

 40
0.0
140
1.0
 94
        2
 62
     0
340
11
144
4.5
309
CONTENTFORMAT_END
171
     1
301
MARGIN
  1
CELLMARGIN_BEGIN
 40
1.5
 40
1.5
 40
1.5
 40
1.5
 40
4.5
 40
4.5
309
CELLMARGIN_END
 94
        6
 95
        1
302
GRIDFORMAT
  1
GRIDFORMAT_BEGIN
 90
        0
 91
        1
 62
     0
 92
       -2
340
14
 93
        0
 40
1.125
309
GRIDFORMAT_END
 95
        2
302
GRIDFORMAT
  1
GRIDFORMAT_BEGIN
 90
        0
 91
        1
 62
     0
 92
       -2
340
14
 93
        0
 40
1.125
309
GRIDFORMAT_END
 95
        4
302
GRIDFORMAT
  1
GRIDFORMAT_BEGIN
 90
        0
 91
        1
 62
     0
 92
       -2
340
14
 93
        0
 40
1.125
309
GRIDFORMAT_END
 95
        8
302
GRIDFORMAT
  1
GRIDFORMAT_BEGIN
 90
        0
 91
        1
 62
     0
 92
       -2
340
14
 93
        0
 40
1.125
309
GRIDFORMAT_END
 95
       16
302
GRIDFORMAT
  1
GRIDFORMAT_BEGIN
 90
        0
 91
        1
 62
     0
 92
       -2
340
14
 93
        0
 40
1.125
309
GRIDFORMAT_END
 95
       32
302
GRIDFORMAT
  1
GRIDFORMAT_BEGIN
 90
        0
 91
        1
 62
     0
 92
       -2
340
14
 93
        0
 40
1.125
309
GRIDFORMAT_END
309
TABLEFORMAT_END
  1
CELLSTYLE_BEGIN
 90
        3
 91
        2
300
_DATA
309
CELLSTYLE_END
  0
ENDSEC
  0
EOF
